<svg width="45" height="40" viewBox="0 0 45 40" fill="none" xmlns="http://www.w3.org/2000/svg">
<path d="M41.6978 8.78425e-05H27.3052C26.9404 8.78425e-05 26.6447 0.29584 26.6447 0.660587C26.6447 1.02533 26.9404 1.32109 27.3052 1.32109H41.6977C42.7902 1.32109 43.6791 2.20993 43.6791 3.3025V26.4184H40.5126L40.5125 6.12906C40.5125 5.03649 39.6235 4.14765 38.5311 4.14765H6.46894C5.37637 4.14765 4.48753 5.03649 4.48753 6.12906V26.4184H1.32091V3.30241C1.32091 2.20984 2.20984 1.321 3.30232 1.321H24.6633C25.0281 1.321 25.3238 1.02525 25.3238 0.660499C25.3238 0.295753 25.0281 0 24.6633 0H3.30232C1.4814 8.78908e-05 0 1.48149 0 3.30241V30.0079C0 31.8288 1.4814 33.3102 3.30232 33.3102H17.8246L17.1589 38.3868H14.8121C14.4472 38.3868 14.1516 38.6826 14.1516 39.0473C14.1516 39.4121 14.4472 39.7078 14.8121 39.7078H30.1879C30.5528 39.7078 30.8484 39.4121 30.8484 39.0473C30.8484 38.6826 30.5528 38.3868 30.1879 38.3868H27.8412L27.1755 33.3102H34.1741C34.539 33.3102 34.8346 33.0144 34.8346 32.6497C34.8346 32.2849 34.539 31.9892 34.1741 31.9892H3.30232C2.20984 31.9892 1.32091 31.1003 1.32091 30.0078V27.7392H43.6791V30.0078C43.6791 31.1003 42.7902 31.9892 41.6977 31.9892H36.816C36.4511 31.9892 36.1555 32.2849 36.1555 32.6497C36.1555 33.0144 36.4511 33.3102 36.816 33.3102H41.6977C43.5186 33.3102 45 31.8288 45 30.0079V3.30241C45.0001 1.48149 43.5187 8.78425e-05 41.6978 8.78425e-05ZM26.5089 38.3868H18.4913L19.1569 33.3102H25.8431L26.5089 38.3868ZM5.80844 6.12898C5.80844 5.76476 6.10472 5.46848 6.46894 5.46848H38.5312C38.8954 5.46848 39.1916 5.76476 39.1916 6.12898V9.37962H5.80844V6.12898ZM5.80844 10.7006H39.1916V26.4184H35.9806V23.4741C35.9806 23.1094 35.685 22.8136 35.3201 22.8136H24.0811C23.7163 22.8136 23.4206 23.1094 23.4206 23.4741V26.4184H21.5794V23.4741C21.5794 23.1094 21.2837 22.8136 20.9189 22.8136H9.67994C9.31511 22.8136 9.01944 23.1094 9.01944 23.4741V26.4184H5.80844V10.7006ZM34.6596 26.4183H24.7416V24.1346H34.6596V26.4183ZM20.2585 26.4183H10.3404V24.1346H20.2585V26.4183Z" fill="#EF0061"/>
<path d="M8.32694 6.35889C7.7676 6.35889 7.3125 6.81399 7.3125 7.37341C7.3125 7.93283 7.7676 8.38785 8.32694 8.38785C8.88627 8.38785 9.34137 7.93275 9.34137 7.37341C9.34146 6.81407 8.88636 6.35889 8.32694 6.35889Z" fill="#EF0061"/>
<path d="M11.5828 6.35889C11.0235 6.35889 10.5684 6.81399 10.5684 7.37341C10.5684 7.93283 11.0235 8.38785 11.5828 8.38785C12.1421 8.38785 12.5972 7.93275 12.5972 7.37341C12.5972 6.81407 12.1421 6.35889 11.5828 6.35889Z" fill="#EF0061"/>
<path d="M14.8387 6.35889C14.2793 6.35889 13.8242 6.81399 13.8242 7.37341C13.8242 7.93283 14.2793 8.38785 14.8387 8.38785C15.3981 8.38785 15.8532 7.93275 15.8532 7.37341C15.8532 6.81407 15.3981 6.35889 14.8387 6.35889Z" fill="#EF0061"/>
<path d="M9.68003 21.2014H14.4849C14.8498 21.2014 15.1454 20.9057 15.1454 20.5409C15.1454 20.1762 14.8498 19.8804 14.4849 19.8804H10.3404V14.0851H34.6583V19.8804H17.1268C16.7619 19.8804 16.4663 20.1762 16.4663 20.5409C16.4663 20.9057 16.7619 21.2014 17.1268 21.2014H35.3187C35.6836 21.2014 35.9792 20.9057 35.9792 20.5409V13.4247C35.9792 13.0599 35.6836 12.7642 35.3187 12.7642H9.68003C9.3152 12.7642 9.01953 13.0599 9.01953 13.4247V20.541C9.01953 20.9057 9.3152 21.2014 9.68003 21.2014Z" fill="#EF0061"/>
</svg>
