<svg width="112" height="23" viewBox="0 0 112 23" fill="none" xmlns="http://www.w3.org/2000/svg">
<g clip-path="url(#clip0_50_501)">
<path d="M111.998 4.57837L106.616 9.11186C106.551 9.04449 106.58 8.97414 106.58 8.91276C106.58 8.28094 106.58 7.6491 106.58 7.01878C106.58 6.86906 106.548 6.82863 106.402 6.83013C105.723 6.83911 105.044 6.83013 104.372 6.83013C103.995 6.83013 103.877 6.94843 103.877 7.3437C103.877 8.24202 103.877 9.14031 103.877 10.0506C103.904 11.0867 103.614 12.1053 103.048 12.9612C102.365 13.9808 101.409 14.6306 100.31 15.0797C100.081 15.178 99.8469 15.2596 99.6077 15.3237C99.4264 15.3672 99.3931 15.4585 99.3945 15.6352C99.3945 17.2357 99.3945 18.8362 99.3945 20.4382C99.3945 20.6239 99.3684 20.6897 99.1639 20.6882C97.5513 20.6782 95.9392 20.6782 94.3275 20.6882C94.1593 20.6882 94.1086 20.6478 94.1086 20.4666C94.1158 18.8512 94.1086 17.2342 94.1173 15.6187C94.1237 15.5845 94.1232 15.5492 94.1157 15.5151C94.1083 15.4811 94.0941 15.449 94.0741 15.4209C94.0541 15.3927 94.0286 15.3692 93.9994 15.3517C93.9701 15.3342 93.9377 15.3232 93.9041 15.3193C92.7932 14.9764 91.7824 14.4464 90.9587 13.584C90.5276 13.1491 90.1847 12.6299 89.9502 12.0566C89.7156 11.4833 89.5941 10.8676 89.5927 10.2453C89.5738 7.68953 89.5927 5.13381 89.5811 2.57809C89.5811 2.39244 89.6623 2.39844 89.7899 2.39994C91.3575 2.39994 92.9267 2.39994 94.4943 2.39994C94.6756 2.39994 94.7234 2.44186 94.722 2.63051C94.722 4.87631 94.7365 7.12211 94.7089 9.36791C94.6959 10.4609 95.3296 10.901 96.0301 11.0388C96.6042 11.1661 97.2013 11.1256 97.7543 10.922C98.0389 10.8303 98.2855 10.643 98.455 10.3899C98.6245 10.1367 98.7071 9.8323 98.6897 9.52509C98.6897 8.53993 98.6897 7.55627 98.6897 6.57112C98.6862 5.93867 98.7933 5.31078 99.0059 4.7176C99.5033 3.3806 100.487 2.66345 101.821 2.40293C102.23 2.3299 102.645 2.2963 103.061 2.30259C104.155 2.30259 105.25 2.30259 106.344 2.30259C106.547 2.30259 106.582 2.24122 106.579 2.05108C106.567 1.37883 106.579 0.703584 106.579 -0.0180664L107.691 0.917684C109.078 2.08949 110.466 3.2608 111.855 4.43161C111.897 4.46605 111.927 4.53043 112 4.51546L111.998 4.57837Z" fill="white"/>
<path d="M72.404 9.21083C72.404 11.2096 72.404 13.2099 72.404 15.2086C72.404 16.7657 71.9429 18.1341 70.8523 19.2376C70.0295 20.0483 68.9915 20.5877 67.8707 20.7872C66.3335 21.0971 64.8122 21.0672 63.3243 20.5057C62.7766 20.2996 62.2626 20.0083 61.8002 19.6418C61.7219 19.5789 61.6668 19.5325 61.5595 19.6164C60.2688 20.648 58.7852 21.0252 57.1755 20.9639C55.9994 20.9249 54.8552 20.7318 53.7951 20.1748C52.1477 19.308 51.2399 17.9081 51.0165 16.0246C50.9861 15.7408 50.973 15.4552 50.9774 15.1697C50.9774 10.9985 50.9774 6.82679 50.9774 2.65459C50.9774 2.45246 51.0223 2.39557 51.2239 2.39707C52.8008 2.40705 54.3766 2.40705 55.9516 2.39707C56.1285 2.39707 56.1618 2.45097 56.1618 2.62165C56.1618 6.75592 56.1618 10.8902 56.1618 15.0244C56.1618 15.9018 56.5872 16.357 57.438 16.3899C57.766 16.4189 58.0962 16.3755 58.4067 16.2626C58.6049 16.1939 58.7777 16.0637 58.9015 15.8898C59.0253 15.7159 59.0941 15.5067 59.0985 15.2909C59.0985 15.1861 59.0985 15.0799 59.0985 14.9751C59.0985 10.8707 59.0985 6.76641 59.0985 2.66208C59.0985 2.439 59.1565 2.39408 59.3624 2.39557C60.9315 2.40555 62.5002 2.40555 64.0683 2.39557C64.2481 2.39557 64.2945 2.439 64.2945 2.62765C64.2945 6.7689 64.2945 10.9117 64.2829 15.0544C64.2829 15.9872 64.8485 16.3465 65.5257 16.3884C65.7804 16.4089 66.0366 16.3932 66.2871 16.342C66.902 16.2027 67.2268 15.7985 67.2268 15.1442C67.2268 12.573 67.2268 10.0023 67.2268 7.43214C67.2268 5.83163 67.2268 4.22965 67.2268 2.62914C67.2268 2.44499 67.2645 2.39258 67.4502 2.39407C69.0251 2.40206 70.6005 2.40206 72.1763 2.39407C72.3634 2.39407 72.4185 2.43148 72.4185 2.6351C72.4011 4.83449 72.404 7.02193 72.404 9.21083Z" fill="white"/>
<path d="M47.3575 11.0284C47.6913 11.2247 48.0073 11.4517 48.3016 11.7066C48.7509 12.1041 49.1127 12.5961 49.3628 13.1498C49.613 13.7034 49.7456 14.3058 49.7518 14.9166C49.7924 16.032 49.6184 17.1056 49.0789 18.0877C48.3248 19.4592 47.1342 20.2003 45.6782 20.5461C45.0866 20.6785 44.4824 20.7418 43.877 20.7348C41.0627 20.7348 38.2474 20.7348 35.4311 20.7348C35.2237 20.7348 35.1846 20.6689 35.1846 20.4698C35.1846 14.5338 35.1846 8.59495 35.1846 2.65305C35.1846 2.44494 35.2382 2.39404 35.4369 2.39554C38.2227 2.40303 41.0086 2.39555 43.7958 2.40303C44.6649 2.39671 45.5275 2.55765 46.3395 2.87763C48.2494 3.6457 49.3211 5.31808 49.2892 7.45459C49.2674 8.8919 48.6409 9.99982 47.5489 10.8487L47.3749 10.985C47.3749 10.985 47.3691 11.0059 47.3575 11.0284ZM41.8772 13.1889C41.432 13.1889 40.9882 13.1889 40.5445 13.1889C40.427 13.1889 40.3777 13.2143 40.3792 13.3491C40.3792 14.4001 40.3792 15.4511 40.3792 16.5022C40.3792 16.6175 40.414 16.6594 40.5242 16.6519C41.3769 16.6519 42.2296 16.6654 43.0809 16.6429C43.79 16.6249 44.2251 16.2671 44.3962 15.6128C44.5021 15.2124 44.515 14.7917 44.4339 14.3851C44.2758 13.5781 43.8132 13.1874 43.0098 13.1874C42.6342 13.1859 42.2557 13.1889 41.8772 13.1889ZM40.3806 8.02203C40.3806 8.51761 40.3806 9.01467 40.3806 9.51024C40.3806 9.63601 40.414 9.67791 40.5401 9.67641C41.3203 9.67641 42.1006 9.67641 42.8808 9.67641C43.1537 9.68484 43.4212 9.59553 43.6376 9.42361C43.8541 9.25169 44.0063 9.00778 44.0685 8.73321C44.1748 8.3484 44.1912 7.94301 44.1163 7.55039C43.9974 6.8497 43.6349 6.45893 42.9562 6.4245C42.1411 6.38257 41.3218 6.40954 40.5053 6.40205C40.3603 6.40205 40.385 6.49787 40.385 6.58621C40.3821 7.06231 40.3806 7.54093 40.3806 8.02203Z" fill="white"/>
<path d="M73.9975 13.855C73.9975 11.8189 73.9975 9.78215 73.9975 7.74496C73.9975 5.46622 75.0387 3.84026 76.9689 2.80419C78.4452 2.01217 80.0448 1.82052 81.6835 1.89089C82.9031 1.94329 84.0865 2.17837 85.1886 2.73833C86.7287 3.51987 87.783 4.72212 88.163 6.48133C88.2458 6.89342 88.2848 7.31363 88.279 7.73447C88.279 11.9895 88.279 16.2441 88.279 20.4981C88.279 20.6838 88.2384 20.7332 88.0542 20.7317C86.4716 20.7227 84.8889 20.7227 83.3063 20.7317C83.1265 20.7317 83.0946 20.6748 83.0946 20.5056C83.0946 18.8737 83.0946 17.2432 83.1033 15.6128C83.1033 15.4361 83.0612 15.3867 82.8872 15.3882C81.7203 15.3972 80.5533 15.3972 79.3864 15.3882C79.1935 15.3882 79.166 15.451 79.166 15.6277C79.1732 17.2357 79.166 18.8452 79.1747 20.4532C79.1747 20.6448 79.1254 20.6838 78.947 20.6838C77.3721 20.6758 75.7967 20.6758 74.2208 20.6838C74.0134 20.6838 73.9902 20.6149 73.9902 20.4307C73.998 18.2418 74.0004 16.0499 73.9975 13.855ZM81.1223 11.211C81.727 11.211 82.3317 11.211 82.9365 11.211C83.0496 11.211 83.1047 11.1945 83.1047 11.0612C83.1047 10.0132 83.1047 8.97416 83.0974 7.93061C83.1089 7.64902 83.0307 7.37129 82.8749 7.13986C82.7191 6.90844 82.4942 6.73605 82.2346 6.649C81.5527 6.3866 80.8042 6.37392 80.1144 6.61307C79.4966 6.81369 79.179 7.27635 79.1747 7.9456C79.1747 8.97417 79.1747 10.0042 79.1747 11.0328C79.1747 11.1825 79.2138 11.22 79.356 11.2185C79.9418 11.2065 80.5321 11.211 81.1223 11.211Z" fill="white"/>
<path d="M19.1758 9.27829C19.1758 7.0759 19.1758 4.87354 19.1758 2.67116C19.1758 2.46155 19.2309 2.41211 19.4281 2.41361C21.0262 2.42159 22.6239 2.42159 24.221 2.41361C24.4313 2.41361 24.4646 2.48248 24.4632 2.67712C24.4632 6.71357 24.4632 10.75 24.4632 14.7865C24.4632 15.8585 24.8982 16.3915 25.9453 16.5277C26.4084 16.6024 26.882 16.565 27.3288 16.4184C28.0539 16.1624 28.3889 15.6788 28.3889 14.8988C28.3889 10.8244 28.3889 6.7505 28.3889 2.67712C28.3889 2.47799 28.428 2.41211 28.6354 2.41361C30.2026 2.42359 31.7707 2.42359 33.3398 2.41361C33.5095 2.41361 33.5762 2.43756 33.5748 2.63969C33.5748 6.91569 33.582 11.1932 33.5646 15.4707C33.5574 17.489 32.5669 18.9367 30.9456 19.9623C29.8681 20.6451 28.6731 20.9625 27.4259 21.0777C26.0367 21.2266 24.6326 21.0907 23.2943 20.678C21.9051 20.2288 20.7318 19.4608 19.9328 18.1672C19.4242 17.3271 19.1646 16.3518 19.1859 15.3614C19.1811 13.3312 19.1777 11.3035 19.1758 9.27829Z" fill="white"/>
<path d="M5.36415 22.9997L4.26199 22.0729C2.88044 20.9071 1.49793 19.7413 0.114441 18.5755C0.00857636 18.4856 -0.0697317 18.4257 0.0897898 18.2985C1.79812 16.8652 3.50306 15.4288 5.20462 13.9895C5.24378 13.9566 5.28584 13.9282 5.32644 13.8967C5.39315 13.9446 5.3627 14.0105 5.3627 14.0644C5.3627 14.7247 5.3627 15.3864 5.3627 16.0482C5.3627 16.2054 5.3859 16.2668 5.55992 16.2668C7.77002 16.2757 9.98012 16.2937 12.1888 16.3087C12.3201 16.3129 12.4514 16.2983 12.5789 16.2653C12.7098 16.236 12.8307 16.1706 12.9286 16.0762C13.0265 15.9817 13.0978 15.8616 13.135 15.7287C13.1722 15.5958 13.1738 15.4549 13.1397 15.3211C13.1056 15.1873 13.0371 15.0656 12.9414 14.9687C12.7065 14.7311 12.4312 14.5403 12.1293 14.4058C10.8937 13.7635 9.62192 13.2005 8.40376 12.5223C7.5728 12.0596 6.77953 11.5446 6.14 10.814C5.48455 10.0574 5.0899 9.09833 5.01755 8.08607C4.92184 7.06049 5.04511 6.07383 5.52077 5.15904C6.19801 3.85498 7.29726 3.10188 8.63869 2.68716C9.3545 2.47556 10.0955 2.36874 10.8401 2.36977C12.9414 2.34282 15.0457 2.40567 17.1397 2.45059C17.2848 2.45059 17.321 2.5015 17.3196 2.64523C17.3196 3.97475 17.3196 5.30578 17.3196 6.6353C17.3196 6.82245 17.2514 6.83739 17.1035 6.8344C15.0616 6.80046 13.0197 6.76954 10.9779 6.74159C10.8544 6.73236 10.7303 6.74194 10.6095 6.77003C10.4729 6.79816 10.3471 6.86681 10.2477 6.9676C10.1483 7.06838 10.0795 7.19694 10.0497 7.33747C10.0142 7.47688 10.0201 7.62408 10.0666 7.75999C10.1132 7.89589 10.1982 8.01418 10.3108 8.09953C10.6363 8.35353 10.9909 8.56526 11.3665 8.72988C12.4614 9.27636 13.5781 9.7779 14.657 10.3528C15.2758 10.6725 15.8668 11.0467 16.4233 11.4712C17.4646 12.2857 18.0867 13.3382 18.2071 14.6947C18.3086 15.8236 18.2071 16.9196 17.6995 17.9407C17.0295 19.2881 15.8984 20.0233 14.5163 20.4065C13.9142 20.5594 13.296 20.6338 12.676 20.6281C10.3195 20.6626 7.96435 20.6057 5.60923 20.5892C5.40765 20.5892 5.354 20.6371 5.35835 20.8437C5.3714 21.5429 5.36415 22.2406 5.36415 22.9997Z" fill="white"/>
</g>
<defs>
<clipPath id="clip0_50_501">
<rect width="112" height="23" fill="white"/>
</clipPath>
</defs>
</svg>
