<svg width="115" height="33" viewBox="0 0 115 33" fill="none" xmlns="http://www.w3.org/2000/svg">
<path d="M29.9004 0H35.1904V32.66H29.9004V0Z" fill="white"/>
<path d="M53.5896 22.3101C53.5896 27.3701 49.4496 27.8301 48.0696 27.8301C44.8496 27.8301 44.3896 24.8401 44.3896 23.2301V10.5801H39.0996V23.0001C39.0996 25.9901 40.0196 28.7501 41.8596 30.3601C43.4696 31.9701 45.5396 32.6601 48.0696 32.6601C49.9096 32.6601 52.2096 32.2001 53.5896 30.8201V32.6601H58.8796V10.5801H53.5896V22.3101Z" fill="white"/>
<path d="M69.2303 2.52979H63.9403V10.5798H60.0303V15.6398H63.9403V32.6598H69.2303V15.6398H73.1403V10.5798H69.2303V2.52979Z" fill="white"/>
<path d="M89.7005 25.9896C88.5505 26.9096 86.9406 27.5996 85.3306 27.5996C81.6506 27.5996 79.1205 24.8396 79.1205 21.1596C79.1205 17.4796 81.6506 14.9496 85.3306 14.9496C86.9406 14.9496 88.5505 15.4096 89.7005 16.5596L90.3906 17.2496L94.0705 13.7996L93.1505 13.1096C91.0805 11.2696 88.3206 10.1196 85.3306 10.1196C78.8906 10.1196 74.0605 14.9496 74.0605 21.3896C74.0605 27.8296 78.8906 32.6596 85.3306 32.6596C88.3206 32.6596 91.0805 31.5096 93.1505 29.6696L94.0705 28.9796L90.3906 25.2996L89.7005 25.9896Z" fill="white"/>
<path d="M112.7 12.42C111.09 10.81 109.48 10.12 106.95 10.12C105.11 10.12 103.27 10.58 101.89 11.96V0H96.5996V32.66H101.89V20.47C101.89 15.41 105.34 14.95 106.72 14.95C109.94 14.95 109.71 17.94 109.71 19.55V32.43H115V19.78C115 16.79 114.31 14.03 112.7 12.42Z" fill="white"/>
<path d="M85.0999 25.07C87.1323 25.07 88.7799 23.4224 88.7799 21.39C88.7799 19.3576 87.1323 17.71 85.0999 17.71C83.0675 17.71 81.4199 19.3576 81.4199 21.39C81.4199 23.4224 83.0675 25.07 85.0999 25.07Z" fill="white"/>
<path d="M22.54 24.6101C20.7 26.4501 17.94 27.6001 14.95 27.6001C9.2 27.6001 5.06 23.0001 5.06 16.7901C5.06 10.5801 9.2 5.98012 15.18 5.98012C17.94 5.98012 20.7 7.13012 22.77 9.20012L23.46 9.89012L26.91 6.44012L26.22 5.75012C23.23 2.76012 19.32 1.15012 15.18 1.15012C6.44 0.920117 0 7.82012 0 16.7901C0 25.7601 6.44 32.6601 14.95 32.6601C19.09 32.6601 23.23 31.0501 25.99 28.0601L26.68 27.3701L23.23 23.9201L22.54 24.6101Z" fill="white"/>
</svg>
