<svg width="169" height="20" viewBox="0 0 169 20" fill="none" xmlns="http://www.w3.org/2000/svg">
<path d="M9.95698 0.0297767C11.8593 0.025705 13.723 0.566677 15.3275 1.58868C16.932 2.61068 18.2102 4.07093 19.0107 5.79663C19.8113 7.52233 20.1007 9.44124 19.8448 11.3263C19.5888 13.2113 18.7982 14.9836 17.5666 16.4334C17.4011 16.6336 17.196 16.8321 16.9958 17.0322C16.0812 17.9653 14.9892 18.706 13.7841 19.2108C12.579 19.7157 11.2851 19.9744 9.97849 19.9719H0V0L9.95698 0.0297767ZM3.5368 16.4334H9.95698C11.6417 16.4064 13.2482 15.7181 14.43 14.5172C15.6118 13.3163 16.2741 11.6989 16.2741 10.0141C16.2741 8.32917 15.6118 6.7118 14.43 5.51088C13.2482 4.30997 11.6417 3.62175 9.95698 3.5947H3.5368V16.4334Z" fill="white"/>
<path d="M66.0727 0L55.8941 19.9719L45.7039 0H49.6972L55.8941 12.1257L62.086 0H66.0727Z" fill="white"/>
<path d="M9.95698 0.0297767C11.8593 0.025705 13.723 0.566677 15.3275 1.58868C16.932 2.61068 18.2102 4.07093 19.0107 5.79663C19.8113 7.52233 20.1007 9.44124 19.8448 11.3263C19.5888 13.2113 18.7982 14.9836 17.5666 16.4334C17.4011 16.6336 17.196 16.8321 16.9958 17.0322C16.0812 17.9653 14.9892 18.706 13.7841 19.2108C12.579 19.7157 11.2851 19.9744 9.97849 19.9719H0V0L9.95698 0.0297767ZM3.5368 16.4334H9.95698C11.6417 16.4064 13.2482 15.7181 14.43 14.5172C15.6118 13.3163 16.2741 11.6989 16.2741 10.0141C16.2741 8.32917 15.6118 6.7118 14.43 5.51088C13.2482 4.30997 11.6417 3.62175 9.95698 3.5947H3.5368V16.4334Z" fill="white"/>
<path d="M100.336 16.4334V20H90.2083C89.2374 20.0017 88.2797 19.775 87.4126 19.3383C86.1557 18.715 85.1419 17.6913 84.5309 16.4284C84.0942 15.5613 83.8675 14.6036 83.8691 13.6328V0.0297852H87.4407V13.9801C87.5256 14.5933 87.8085 15.162 88.2462 15.5998C88.684 16.0375 89.2526 16.3203 89.8658 16.4053L100.336 16.4334Z" fill="white"/>
<path d="M145.982 0.0297767V20L142.412 17.2605L129.573 7.36145V20H126.011V0.0860209L129.578 2.82547L142.412 12.7246V0L145.982 0.0297767Z" fill="white"/>
<path d="M168.776 0.0297852V3.59471H160.589V20H157.022V3.59471H148.833V0.0297852H168.776Z" fill="white"/>
<path d="M51.1812 0.0283203H60.5955L55.8892 9.2475L51.1812 0.0283203Z" fill="white"/>
<path d="M42.7957 8.20166H26.3904V11.7682H42.7957V8.20166Z" fill="white"/>
<path d="M28.2149 3.56658H42.7939V0H28.2149C26.7889 0.00481893 25.423 0.575492 24.4174 1.58666C23.4118 2.59784 22.8487 3.96681 22.8518 5.39288V14.579C22.8487 16.005 23.4118 17.374 24.4174 18.3852C25.423 19.3964 26.7889 19.967 28.2149 19.9719H42.7939V16.4053H28.2149C27.7338 16.4005 27.2737 16.2073 26.9335 15.8671C26.5932 15.5268 26.4 15.0667 26.3952 14.5856V5.39288C26.3983 4.91059 26.5907 4.44881 26.9312 4.10715C27.2716 3.7655 27.7326 3.57135 28.2149 3.56658Z" fill="white"/>
<path d="M123.161 8.20166H106.756V11.7682H123.161V8.20166Z" fill="white"/>
<path d="M108.581 3.56658H123.16V0H108.581C107.155 0.00481893 105.789 0.575492 104.783 1.58666C103.778 2.59784 103.214 3.96681 103.218 5.39288V14.579C103.214 16.005 103.778 17.374 104.783 18.3852C105.789 19.3964 107.155 19.967 108.581 19.9719H123.16V16.4053H108.581C108.1 16.4005 107.639 16.2073 107.299 15.8671C106.959 15.5268 106.766 15.0667 106.761 14.5856V5.39288C106.764 4.91059 106.956 4.44881 107.297 4.10715C107.637 3.7655 108.098 3.57135 108.581 3.56658Z" fill="white"/>
<path d="M9.95698 0.0297767C11.8593 0.025705 13.723 0.566677 15.3275 1.58868C16.932 2.61068 18.2102 4.07093 19.0107 5.79663C19.8113 7.52233 20.1007 9.44124 19.8448 11.3263C19.5888 13.2113 18.7982 14.9836 17.5666 16.4334C17.4011 16.6336 17.196 16.8321 16.9958 17.0322C16.0812 17.9653 14.9892 18.706 13.7841 19.2108C12.579 19.7157 11.2851 19.9744 9.97849 19.9719H0V0L9.95698 0.0297767ZM3.5368 16.4334H9.95698C11.6417 16.4064 13.2482 15.7181 14.43 14.5172C15.6118 13.3163 16.2741 11.6989 16.2741 10.0141C16.2741 8.32917 15.6118 6.7118 14.43 5.51088C13.2482 4.30997 11.6417 3.62175 9.95698 3.5947H3.5368V16.4334Z" fill="white"/>
<path d="M66.0727 0L55.8941 19.9719L45.7039 0H49.6972L55.8941 12.1257L62.086 0H66.0727Z" fill="white"/>
<path d="M9.95698 0.0297767C11.8593 0.025705 13.723 0.566677 15.3275 1.58868C16.932 2.61068 18.2102 4.07093 19.0107 5.79663C19.8113 7.52233 20.1007 9.44124 19.8448 11.3263C19.5888 13.2113 18.7982 14.9836 17.5666 16.4334C17.4011 16.6336 17.196 16.8321 16.9958 17.0322C16.0812 17.9653 14.9892 18.706 13.7841 19.2108C12.579 19.7157 11.2851 19.9744 9.97849 19.9719H0V0L9.95698 0.0297767ZM3.5368 16.4334H9.95698C11.6417 16.4064 13.2482 15.7181 14.43 14.5172C15.6118 13.3163 16.2741 11.6989 16.2741 10.0141C16.2741 8.32917 15.6118 6.7118 14.43 5.51088C13.2482 4.30997 11.6417 3.62175 9.95698 3.5947H3.5368V16.4334Z" fill="white"/>
<path d="M145.982 0.0297767V20L142.412 17.2605L129.573 7.36145V20H126.011V0.0860209L129.578 2.82547L142.412 12.7246V0L145.982 0.0297767Z" fill="white"/>
<path d="M168.776 0.0297852V3.59471H160.589V20H157.022V3.59471H148.833V0.0297852H168.776Z" fill="white"/>
<path d="M51.1812 0.0283203H60.5955L55.8892 9.2475L51.1812 0.0283203Z" fill="#EF0061"/>
<path d="M26.3886 5.39288C26.3934 4.91174 26.5866 4.45165 26.9268 4.11141C27.2671 3.77118 27.7272 3.57794 28.2083 3.5732H42.7873V0H28.2149C26.7889 0.00481893 25.423 0.575492 24.4174 1.58666C23.4118 2.59784 22.8487 3.96681 22.8518 5.39288V14.579C22.8487 16.005 23.4118 17.374 24.4174 18.3852C25.423 19.3964 26.7889 19.967 28.2149 19.9719H42.7939V16.4053H28.2149C27.7338 16.4005 27.2737 16.2073 26.9335 15.8671C26.5932 15.5268 26.4 15.0667 26.3952 14.5856V11.7734H42.8005V8.20181H26.3886V5.38957V5.39288Z" fill="white"/>
<path d="M75.4872 19.9421H66.0745L70.7808 10.7246L75.4872 19.9421Z" fill="#EF0061"/>
<path d="M103.218 5.39288V14.579C103.214 16.005 103.778 17.374 104.783 18.3852C105.789 19.3964 107.155 19.967 108.581 19.9719H123.16V16.4053H108.581C108.1 16.4005 107.639 16.2073 107.299 15.8671C106.959 15.5268 106.766 15.0667 106.761 14.5856V11.7734H123.166V8.20181H106.754V5.38957C106.759 4.90843 106.952 4.44834 107.293 4.1081C107.633 3.76787 108.093 3.57463 108.574 3.56989H123.153V0H108.581C107.155 0.00481893 105.789 0.575492 104.783 1.58666C103.778 2.59784 103.214 3.96681 103.218 5.39288Z" fill="white"/>
<path d="M100.336 16.4334V20H90.2083C89.2374 20.0017 88.2797 19.775 87.4126 19.3383C86.1557 18.715 85.1419 17.6913 84.5309 16.4284C84.0942 15.5613 83.8675 14.6036 83.8691 13.6328V0.0297852H87.4407V13.9801C87.5256 14.5933 87.8085 15.162 88.2462 15.5998C88.684 16.0375 89.2526 16.3203 89.8658 16.4053L100.336 16.4334Z" fill="white"/>
<path d="M108.581 16.4053C108.1 16.4005 107.639 16.2073 107.299 15.8671C106.959 15.5268 106.766 15.0667 106.761 14.5856V11.7734H123.166V8.20181H106.754V5.38957C106.759 4.90843 106.952 4.44834 107.293 4.1081C107.633 3.76787 108.093 3.57463 108.574 3.56989H123.153V0H108.581C107.155 0.00481893 105.789 0.575492 104.783 1.58666C103.778 2.59784 103.214 3.96681 103.218 5.39288V14.579C103.218 15.2118 103.33 15.8395 103.548 16.4334H123.16V16.4053H108.581Z" fill="white"/>
<path d="M106.754 5.39288C106.759 4.91174 106.952 4.45165 107.293 4.11141C107.633 3.77118 108.093 3.57794 108.574 3.5732H123.153V0H108.581C107.155 0.00481893 105.789 0.575492 104.783 1.58666C103.778 2.59784 103.214 3.96681 103.218 5.39288V14.579C103.217 15.7614 103.607 16.9109 104.326 17.8494V17.8577C104.645 18.2757 105.023 18.6446 105.449 18.9528L105.489 18.9826C105.693 19.1278 105.907 19.2583 106.129 19.373L106.228 19.421C106.437 19.5241 106.652 19.6137 106.872 19.689L106.936 19.7121C107.17 19.7835 107.409 19.8388 107.651 19.8776L107.816 19.9024C108.068 19.9412 108.323 19.9617 108.577 19.9636H123.156V16.4053H108.581C108.1 16.4005 107.639 16.2073 107.299 15.8671C106.959 15.5268 106.766 15.0667 106.761 14.5856V11.7734H123.166V8.20181H106.754V5.38957V5.39288Z" fill="white"/>
<path d="M60.5955 19.9719L70.7824 0L80.9676 19.9719H76.971L70.7824 7.84615L64.5921 19.9719H60.5955Z" fill="white"/>
</svg>
