<svg width="428" height="454" viewBox="0 0 428 454" fill="none" xmlns="http://www.w3.org/2000/svg">
<path d="M345.605 2.37268C345.605 68.7704 291.78 122.596 225.381 122.596C158.983 122.596 105.159 68.7704 105.159 2.3727" stroke="#3E3F44" stroke-width="0.790941" stroke-miterlimit="10"/>
<path d="M402.555 2.37269C402.555 100.222 323.232 179.543 225.382 179.543C127.532 179.543 48.2133 100.222 48.2132 2.37273" stroke="#3E3F44" stroke-width="0.790941" stroke-miterlimit="10"/>
<path d="M450.801 2.37285C450.801 126.869 349.877 227.791 225.38 227.791C100.883 227.791 -0.0354561 126.869 -0.035467 2.37289" stroke="#3E3F44" stroke-width="0.790941" stroke-miterlimit="10"/>
<path d="M450.801 2.37285C450.801 126.869 349.877 227.791 225.38 227.791C100.883 227.791 -0.0354561 126.869 -0.035467 2.37289" stroke="#3E3F44" stroke-width="0.790941" stroke-miterlimit="10"/>
<path d="M500.631 2.37269C500.631 154.389 377.398 277.62 225.381 277.62C73.3633 277.62 -49.8639 154.389 -49.8639 2.37273" stroke="#3E3F44" stroke-width="0.790941" stroke-miterlimit="10"/>
<path d="M500.631 2.37269C500.631 154.389 377.398 277.62 225.381 277.62C73.3633 277.62 -49.8639 154.389 -49.8639 2.37273" stroke="#3E3F44" stroke-width="0.790941" stroke-miterlimit="10"/>
<path d="M562.324 2.37264C562.324 188.461 411.47 339.313 225.38 339.314C39.2898 339.314 -111.557 188.461 -111.557 2.3727" stroke="#3E3F44" stroke-width="0.790941" stroke-miterlimit="10"/>
<path d="M562.324 2.37264C562.324 188.461 411.47 339.313 225.38 339.314C39.2898 339.314 -111.557 188.461 -111.557 2.3727" stroke="#3E3F44" stroke-width="0.790941" stroke-miterlimit="10"/>
<path d="M640.627 2.37272C640.627 231.707 454.715 417.617 225.379 417.617C-3.95778 417.617 -189.861 231.707 -189.861 2.37279" stroke="#3E3F44" stroke-width="0.790941" stroke-miterlimit="10"/>
<circle cx="412.044" cy="279.993" r="25.7056" fill="#0E0F15" stroke="#3E3F44" stroke-width="0.790941"/>
<circle cx="163.691" cy="332.195" r="25.7056" fill="#0E0F15" stroke="#3E3F44" stroke-width="0.790941"/>
<circle cx="94.8784" cy="184.289" r="25.7056" fill="#0E0F15" stroke="#3E3F44" stroke-width="0.790941"/>
<path d="M158.548 73.9529C158.548 89.2366 145.982 101.636 130.47 101.636C114.957 101.636 102.392 89.2366 102.392 73.9529C102.392 58.6692 114.957 46.27 130.47 46.27C145.982 46.27 158.548 58.6692 158.548 73.9529Z" fill="#0E0F15" stroke="#3E3F44" stroke-width="0.790941"/>
<circle cx="23.693" cy="358.296" r="44.6882" fill="#0E0F15" stroke="#3E3F44" stroke-width="0.790941"/>
<circle cx="383.572" cy="382.024" r="25.7056" fill="#0E0F15" stroke="#3E3F44" stroke-width="0.790941"/>
<circle cx="247.53" cy="416.035" r="37.5697" fill="#0E0F15" stroke="#3E3F44" stroke-width="0.790941"/>
<circle cx="286.681" cy="274.852" r="37.9652" fill="#ED0161" stroke="#3E3F44" stroke-width="0.790941"/>
<circle cx="419.164" cy="194.571" r="25.7056" fill="#0E0F15" stroke="#3E3F44" stroke-width="0.790941"/>
<circle cx="236.061" cy="179.148" r="25.3101" fill="#0E0F15" stroke="#3E3F44" stroke-width="0.790941"/>
<circle cx="366.567" cy="104.8" r="25.3101" fill="#0E0F15" stroke="#3E3F44" stroke-width="0.790941"/>
<circle cx="4.71042" cy="253.892" r="25.7056" fill="#0E0F15" stroke="#3E3F44" stroke-width="0.790941"/>
<rect x="-265" width="958.62" height="90.1672" fill="url(#paint0_linear_69_694)"/>
<path d="M277.412 273.795C277.398 274.237 277.457 274.679 277.574 275.107C277.707 275.475 277.869 275.828 278.046 276.167C278.105 276.27 278.149 276.388 278.149 276.506C278.134 276.683 278.031 276.86 277.869 276.948L276.941 277.567C276.823 277.64 276.691 277.699 276.558 277.699C276.396 277.684 276.234 277.611 276.116 277.493C275.925 277.287 275.733 277.051 275.586 276.801C275.438 276.55 275.291 276.27 275.129 275.931C273.98 277.287 272.536 277.964 270.798 277.964C269.561 277.964 268.574 277.611 267.852 276.904C267.13 276.197 266.762 275.254 266.762 274.075C266.762 272.823 267.204 271.807 268.102 271.041C269.001 270.275 270.194 269.892 271.711 269.892C272.227 269.892 272.757 269.936 273.273 270.009C273.818 270.083 274.378 270.201 274.967 270.334V269.258C274.967 268.139 274.731 267.358 274.275 266.901C273.818 266.445 273.008 266.224 271.873 266.224C271.343 266.224 270.798 266.282 270.282 266.415C269.737 266.548 269.207 266.71 268.692 266.916C268.529 266.99 268.353 267.048 268.176 267.107C268.102 267.137 268.014 267.152 267.94 267.152C267.734 267.152 267.631 267.004 267.631 266.695V265.973C267.616 265.796 267.66 265.62 267.734 265.458C267.852 265.325 267.984 265.222 268.146 265.148C268.736 264.854 269.354 264.633 270.003 264.485C270.754 264.294 271.535 264.205 272.301 264.205C274.054 264.205 275.335 264.603 276.16 265.399C276.985 266.194 277.383 267.402 277.383 269.022V273.795H277.412ZM271.432 276.035C271.947 276.035 272.463 275.946 272.949 275.769C273.494 275.578 273.965 275.254 274.348 274.827C274.584 274.561 274.761 274.237 274.849 273.884C274.952 273.471 274.997 273.029 274.997 272.602V271.983C274.555 271.88 274.098 271.792 273.641 271.733C273.185 271.674 272.713 271.645 272.256 271.645C271.269 271.645 270.548 271.836 270.062 272.234C269.575 272.632 269.34 273.191 269.34 273.928C269.34 274.62 269.516 275.136 269.885 275.49C270.253 275.843 270.754 276.035 271.432 276.035ZM283.261 277.626C283.069 277.64 282.863 277.596 282.701 277.478C282.554 277.316 282.436 277.125 282.392 276.904L278.93 265.516C278.856 265.325 278.812 265.133 278.797 264.927C278.782 264.75 278.9 264.588 279.077 264.559H280.609C280.889 264.559 281.081 264.603 281.184 264.706C281.287 264.809 281.39 265.001 281.478 265.281L283.938 275.033L286.236 265.281C286.31 264.986 286.399 264.795 286.516 264.706C286.693 264.603 286.899 264.544 287.106 264.559H288.284C288.564 264.559 288.756 264.603 288.873 264.706C289.021 264.868 289.124 265.06 289.153 265.281L291.481 275.151L294.029 265.281C294.074 265.06 294.177 264.868 294.324 264.706C294.501 264.603 294.692 264.544 294.898 264.559H296.268C296.445 264.529 296.607 264.662 296.637 264.839V264.927C296.637 265.001 296.622 265.089 296.607 265.163C296.578 265.295 296.548 265.413 296.504 265.531L292.954 276.918C292.866 277.213 292.762 277.405 292.645 277.493C292.483 277.596 292.276 277.655 292.085 277.64H290.818C290.538 277.64 290.346 277.596 290.229 277.493C290.081 277.331 289.978 277.125 289.949 276.904L287.665 267.402L285.397 276.889C285.367 277.11 285.264 277.316 285.117 277.478C284.94 277.596 284.734 277.64 284.528 277.626H283.261ZM302.19 278.023C301.424 278.023 300.658 277.935 299.922 277.758C299.185 277.581 298.611 277.39 298.228 277.169C298.036 277.081 297.874 276.933 297.771 276.756C297.712 276.624 297.683 276.491 297.683 276.344V275.593C297.683 275.283 297.801 275.136 298.021 275.136C298.11 275.136 298.198 275.151 298.287 275.18C298.375 275.21 298.508 275.269 298.655 275.327C299.171 275.563 299.716 275.725 300.275 275.843C300.85 275.961 301.439 276.02 302.028 276.02C302.956 276.02 303.678 275.858 304.179 275.534C304.665 275.239 304.96 274.709 304.945 274.134C304.96 273.751 304.813 273.383 304.547 273.103C304.282 272.823 303.781 272.573 303.06 272.337L300.924 271.674C299.848 271.335 299.053 270.834 298.567 270.172C298.095 269.553 297.83 268.816 297.83 268.035C297.815 267.461 297.948 266.901 298.228 266.4C298.493 265.929 298.846 265.516 299.288 265.192C299.745 264.839 300.261 264.588 300.82 264.426C301.424 264.25 302.043 264.161 302.677 264.176C303.001 264.176 303.339 264.191 303.664 264.235C304.002 264.279 304.312 264.338 304.621 264.397C304.93 264.456 305.196 264.544 305.461 264.633C305.682 264.706 305.888 264.795 306.08 264.898C306.256 264.986 306.404 265.104 306.521 265.266C306.625 265.413 306.669 265.575 306.654 265.752V266.445C306.654 266.754 306.536 266.916 306.315 266.916C306.124 266.886 305.932 266.828 305.755 266.739C304.872 266.341 303.899 266.15 302.927 266.165C302.087 266.165 301.424 266.297 300.968 266.577C300.511 266.857 300.275 267.284 300.275 267.888C300.261 268.286 300.423 268.669 300.717 268.934C301.012 269.214 301.557 269.494 302.338 269.744L304.43 270.407C305.49 270.746 306.256 271.217 306.713 271.821C307.17 272.411 307.405 273.147 307.391 273.884C307.405 274.473 307.273 275.062 307.008 275.593C306.742 276.094 306.374 276.535 305.932 276.889C305.446 277.272 304.886 277.552 304.297 277.714C303.619 277.92 302.912 278.023 302.19 278.023Z" fill="white"/>
<path d="M304.972 285.183C300.125 288.762 293.084 290.663 287.029 290.663C278.544 290.663 270.899 287.525 265.124 282.31C264.667 281.897 265.08 281.338 265.625 281.662C271.871 285.286 279.575 287.481 287.545 287.481C293.29 287.451 298.976 286.287 304.265 284.063C305.075 283.695 305.768 284.593 304.972 285.183Z" fill="white"/>
<path d="M306.989 282.885C306.371 282.089 302.894 282.502 301.318 282.693C300.846 282.752 300.773 282.34 301.2 282.03C303.969 280.086 308.521 280.645 309.052 281.294C309.582 281.942 308.904 286.508 306.312 288.689C305.914 289.028 305.531 288.851 305.708 288.409C306.297 286.95 307.608 283.665 306.989 282.885Z" fill="white"/>
<path d="M435.163 204.63H412.748L412.74 204.587L426.262 202.196C426.287 202.058 426.173 202 426.109 201.919C423.851 199.227 421.593 196.537 419.335 193.85C419.218 193.712 419.179 193.598 419.246 193.415C420.437 190.155 421.624 186.895 422.807 183.632C422.826 183.581 422.852 183.533 422.905 183.417L435.163 204.63Z" fill="white"/>
<path d="M421.794 181.917C421.817 182.068 421.74 182.154 421.696 182.25C418.65 188.782 415.605 195.314 412.561 201.845C412.459 202.066 412.341 202.142 412.095 202.141C410.05 202.129 408.005 202.128 405.96 202.137C405.702 202.137 405.655 202.094 405.792 201.86C408.212 197.675 410.628 193.488 413.039 189.3C413.099 189.194 413.176 189.101 413.269 189.023C416.073 186.676 418.877 184.328 421.68 181.979C421.716 181.956 421.754 181.935 421.794 181.917Z" fill="white"/>
<path d="M-1.82847 354.268H-5.36152V365.212H-6.8049V354.268H-10.3164V352.975H-1.82847V354.268ZM4.82831 356.465L0.799773 366.612C0.0888548 368.422 -0.923665 369.326 -2.21624 369.326C-2.58248 369.326 -2.88408 369.283 -3.12105 369.219V367.969C-2.81945 368.077 -2.53939 368.12 -2.30242 368.12C-1.5915 368.12 -1.07447 367.689 -0.708235 366.849L-0.0188599 365.19L-3.42265 356.465H-1.87156L0.498172 363.187C0.519714 363.273 0.584344 363.488 0.670516 363.854H0.713602C0.735145 363.725 0.799773 363.51 0.885945 363.208L3.36339 356.465H4.82831ZM7.11187 363.941H7.06878V369.219H5.66849V356.465H7.06878V357.995H7.11187C7.80124 356.831 8.81376 356.25 10.1279 356.25C11.2481 356.25 12.1314 356.638 12.7561 357.413C13.3809 358.189 13.704 359.244 13.704 360.558C13.704 362.023 13.3378 363.187 12.6269 364.07C11.916 364.953 10.9465 365.384 9.71857 365.384C8.61988 365.427 7.73662 364.932 7.11187 363.941ZM7.09033 360.429V361.657C7.09033 362.389 7.3273 362.993 7.80124 363.488C8.27519 363.984 8.85685 364.242 9.58931 364.242C10.4295 364.242 11.0973 363.919 11.5928 363.273C12.0668 362.626 12.3037 361.722 12.3037 360.558C12.3037 359.589 12.0883 358.813 11.6359 358.275C11.1835 357.715 10.5803 357.456 9.80474 357.456C8.98611 357.456 8.33982 357.736 7.84433 358.296C7.3273 358.856 7.09033 359.567 7.09033 360.429ZM22.2781 361.183H16.1168C16.1384 362.153 16.3969 362.907 16.8924 363.445C17.3879 363.984 18.0772 364.242 18.9605 364.242C19.9515 364.242 20.8563 363.919 21.6749 363.273V364.587C20.8994 365.147 19.8869 365.427 18.6374 365.427C17.4094 365.427 16.44 365.039 15.7291 364.242C15.0181 363.445 14.6735 362.325 14.6735 360.903C14.6735 359.546 15.0612 358.426 15.8368 357.585C16.6123 356.724 17.5602 356.293 18.702 356.293C19.8438 356.293 20.727 356.659 21.3518 357.413C21.9765 358.146 22.2997 359.18 22.2997 360.494L22.2781 361.183ZM20.8347 359.998C20.8347 359.18 20.6409 358.555 20.2531 358.102C19.8653 357.65 19.3267 357.435 18.6589 357.435C17.9911 357.435 17.431 357.672 16.9786 358.146C16.5262 358.619 16.2246 359.244 16.1168 359.998H20.8347ZM22.9675 364.781V363.811C23.8508 364.371 24.734 364.651 25.6388 364.651C26.5867 364.651 27.3192 364.458 27.8147 364.048C28.3102 363.639 28.5471 363.1 28.5471 362.389C28.5471 361.765 28.3748 361.269 28.0517 360.881C27.7285 360.515 26.996 359.998 25.8974 359.352C24.6479 358.619 23.8723 358.016 23.5492 357.542C23.226 357.047 23.0537 356.487 23.0537 355.862C23.0537 355 23.3984 354.268 24.0662 353.665C24.734 353.061 25.6388 352.76 26.7591 352.76C27.4915 352.76 28.224 352.889 28.9349 353.126V354.009C28.224 353.686 27.4484 353.514 26.6298 353.514C25.7896 353.514 25.1433 353.729 24.6479 354.139C24.1524 354.569 23.9154 355.086 23.9154 355.733C23.9154 356.357 24.0877 356.853 24.4109 357.219C24.734 357.585 25.4665 358.102 26.5652 358.727C27.707 359.373 28.461 359.955 28.8487 360.451C29.2365 360.946 29.4089 361.528 29.4089 362.196C29.4089 363.143 29.0857 363.897 28.4394 364.501C27.7931 365.104 26.8668 365.384 25.6819 365.384C25.2511 365.384 24.7771 365.319 24.217 365.19C23.6569 365.061 23.2476 364.953 22.9675 364.781ZM36.6904 364.824C36.0441 365.212 35.2686 365.427 34.3637 365.427C33.1789 365.427 32.2094 365.018 31.477 364.199C30.7445 363.38 30.3783 362.325 30.3783 360.989C30.3783 359.61 30.7876 358.469 31.6062 357.585C32.4249 356.702 33.4805 356.25 34.7731 356.25C35.4409 356.25 36.0872 356.379 36.7119 356.659V357.542C36.0872 357.155 35.3978 356.961 34.6653 356.961C33.6313 356.961 32.8126 357.327 32.1664 358.059C31.5201 358.792 31.2185 359.761 31.2185 360.925C31.2185 362.066 31.5201 362.971 32.1017 363.661C32.6834 364.35 33.4589 364.695 34.4068 364.695C35.2901 364.695 36.0441 364.458 36.6904 364.005V364.824ZM41.9038 357.284C41.6453 357.09 41.3437 357.004 40.9774 357.004C40.2881 357.004 39.7064 357.37 39.254 358.081C38.7801 358.792 38.5646 359.804 38.5646 361.118V365.233H37.7891V356.465H38.5646V358.404H38.6077C38.8016 357.736 39.1247 357.219 39.5556 356.853C39.9865 356.487 40.482 356.293 41.0636 356.293C41.3868 356.293 41.6884 356.336 41.9253 356.444V357.284H41.9038ZM43.1533 354.268C42.9809 354.268 42.8301 354.203 42.7009 354.074C42.5716 353.945 42.507 353.794 42.507 353.6C42.507 353.406 42.5716 353.255 42.7009 353.148C42.8301 353.04 42.9809 352.975 43.1533 352.975C43.3256 352.975 43.4764 353.04 43.6272 353.148C43.7565 353.255 43.8211 353.406 43.8211 353.6C43.8211 353.772 43.7565 353.945 43.6272 354.074C43.4764 354.203 43.3256 354.268 43.1533 354.268ZM42.7655 365.212V356.465H43.5411V365.212H42.7655ZM46.2339 363.661H46.1908V369.24H45.4153V356.465H46.1908V358.275H46.2339C46.5571 357.628 46.9879 357.133 47.5696 356.788C48.1513 356.444 48.7975 356.271 49.4869 356.271C50.6072 356.271 51.4689 356.659 52.0936 357.413C52.7184 358.189 53.02 359.223 53.02 360.537C53.02 362.002 52.6537 363.187 51.9428 364.091C51.2319 364.996 50.284 365.449 49.1207 365.449C47.8281 365.427 46.8587 364.845 46.2339 363.661ZM46.1908 360.408V361.506C46.1908 362.389 46.4709 363.143 47.0095 363.768C47.5696 364.393 48.2805 364.716 49.1853 364.716C50.0686 364.716 50.801 364.328 51.3612 363.574C51.9213 362.799 52.2013 361.808 52.2013 360.558C52.2013 359.46 51.9428 358.598 51.4258 357.952C50.9088 357.305 50.2409 356.982 49.3792 356.982C48.3667 356.982 47.5696 357.327 47.0095 358.016C46.4494 358.706 46.1908 359.481 46.1908 360.408ZM57.781 365.082C57.3717 365.276 56.9839 365.362 56.6392 365.362C55.3466 365.362 54.7003 364.587 54.7003 363.036V357.198H53.1277V356.487H54.7003V354.203L55.0881 354.074L55.4759 353.945V356.487H57.781V357.198H55.4759V362.971C55.4759 363.574 55.562 364.005 55.7559 364.285C55.9498 364.565 56.273 364.695 56.7254 364.695C57.0485 364.695 57.3932 364.587 57.781 364.371V365.082Z" fill="white"/>
<path d="M388.225 388.065C386.687 388.065 385.148 388.071 383.609 388.06C383.311 388.06 383.152 388.093 383.15 388.459C383.149 388.826 383.276 388.905 383.619 388.901C385.41 388.883 387.203 388.901 388.996 388.879C389.382 388.874 389.482 388.996 389.465 389.362C389.437 389.946 389.439 390.533 389.465 391.118C389.508 392.238 388.998 393.061 388.102 393.673C387.041 394.398 385.817 394.681 384.577 394.862C382.622 395.153 380.624 394.86 378.835 394.02C378.208 393.742 377.672 393.294 377.285 392.729C377.007 392.32 376.862 391.836 376.869 391.342C376.881 389.285 376.869 387.228 376.885 385.17C376.899 383.501 378.314 382.104 380 382.091C382.014 382.075 384.029 382.091 386.043 382.084C388.516 382.084 390.219 380.378 390.229 377.909C390.229 377.165 390.238 376.421 390.229 375.678C390.224 375.413 390.311 375.315 390.583 375.321C391.375 375.337 392.17 375.3 392.961 375.341C394.13 375.403 394.829 376.165 395.274 377.132C395.81 378.299 396.049 379.551 396.149 380.841C396.216 381.71 396.298 382.574 396.117 383.425C395.878 384.544 395.594 385.659 395.014 386.669C394.479 387.598 393.7 388.086 392.602 388.076C391.143 388.062 389.684 388.076 388.225 388.076V388.065ZM385.542 391.682C385.54 391.994 385.661 392.293 385.878 392.516C386.095 392.74 386.392 392.868 386.703 392.875C387.32 392.882 387.847 392.325 387.847 391.669C387.847 390.98 387.375 390.507 386.687 390.51C386 390.513 385.537 390.989 385.542 391.684V391.682Z" fill="white"/>
<path d="M383.041 381.293C382.094 381.293 381.137 381.288 380.185 381.293C377.791 381.309 376.09 382.994 376.056 385.386C376.045 386.146 376.044 386.906 376.062 387.666C376.069 387.963 375.999 388.091 375.672 388.076C375.086 388.049 374.498 388.065 373.911 388.065C372.691 388.065 371.796 387.516 371.185 386.477C370.582 385.458 370.41 384.317 370.237 383.179C369.984 381.543 370.19 379.931 370.614 378.342C371.113 376.467 372.548 375.338 374.494 375.328C377.223 375.312 379.952 375.319 382.681 375.314C383.141 375.314 383.312 375.071 383.166 374.636C383.08 374.386 382.876 374.49 382.724 374.489C380.931 374.479 379.138 374.469 377.346 374.489C376.967 374.493 376.86 374.388 376.875 374.015C376.907 373.193 376.875 372.369 376.901 371.546C376.933 370.438 377.463 369.666 378.509 369.254C379.554 368.841 380.657 368.711 381.763 368.63C383.233 368.523 384.711 368.582 386.168 368.806C387.162 368.958 387.998 369.431 388.687 370.139C389.215 370.681 389.447 371.369 389.447 372.129C389.447 374.11 389.457 376.087 389.447 378.065C389.438 379.923 388.053 381.284 386.18 381.295C385.133 381.301 384.086 381.295 383.039 381.295L383.041 381.293ZM379.615 372.892C379.774 372.893 379.931 372.862 380.076 372.8C380.222 372.739 380.354 372.648 380.465 372.535C380.575 372.421 380.661 372.286 380.718 372.138C380.775 371.991 380.802 371.833 380.796 371.675C380.79 371.363 380.665 371.066 380.447 370.845C380.228 370.623 379.933 370.493 379.622 370.483C379.303 370.487 378.998 370.615 378.772 370.84C378.546 371.065 378.416 371.369 378.41 371.688C378.41 372.008 378.537 372.314 378.763 372.54C378.989 372.766 379.296 372.892 379.615 372.892Z" fill="white"/>
<path d="M411.962 268.92C412.075 268.955 412.184 268.983 412.291 269.02C415.554 270.129 418.817 271.238 422.08 272.346C422.362 272.442 422.452 272.54 422.407 272.876C422.098 275.16 421.826 277.45 421.54 279.738C421.289 281.752 421.032 283.766 420.784 285.782C420.757 286.003 420.598 286.061 420.447 286.144C418.041 287.473 415.635 288.801 413.228 290.129C412.812 290.356 412.396 290.734 411.966 290.755C411.535 290.776 411.123 290.361 410.707 290.131C408.33 288.823 405.954 287.513 403.58 286.2C403.388 286.095 403.289 285.973 403.263 285.746C403.055 283.878 402.831 282.01 402.612 280.143C402.393 278.263 402.173 276.383 401.955 274.503C401.894 273.979 401.85 273.455 401.774 272.934C401.732 272.65 401.815 272.517 402.096 272.419C403.957 271.771 405.812 271.103 407.669 270.443C408.993 269.972 410.317 269.502 411.641 269.033C411.749 268.988 411.856 268.955 411.962 268.92ZM411.947 269.771C411.871 269.926 411.82 270.038 411.768 270.149C410.793 272.308 409.819 274.467 408.846 276.626C407.564 279.472 406.28 282.317 404.995 285.162C404.862 285.455 404.877 285.54 405.222 285.525C405.864 285.494 406.508 285.49 407.149 285.5C407.402 285.5 407.527 285.424 407.617 285.183C408.005 284.177 408.418 283.182 408.811 282.179C408.887 281.993 408.968 281.909 409.189 281.909C411.116 281.909 413.042 281.898 414.969 281.877C415.245 281.877 415.361 281.975 415.462 282.215C415.887 283.231 416.339 284.235 416.767 285.25C416.847 285.438 416.94 285.506 417.149 285.506C417.74 285.506 418.332 285.531 418.924 285.547C419.358 285.558 419.358 285.559 419.181 285.179L411.947 269.771Z" fill="white"/>
<path d="M409.844 279.844C410.569 278.129 411.254 276.508 411.94 274.887C412.102 274.934 412.119 275.071 412.17 275.176C412.869 276.612 413.558 278.054 414.261 279.489C414.394 279.761 414.37 279.853 414.039 279.85C412.671 279.837 411.301 279.844 409.844 279.844Z" fill="white"/>
<path d="M178.413 330.611C178.117 330.183 177.758 329.802 177.349 329.481C176.041 328.432 174.531 327.791 172.948 327.305C172.682 327.222 172.6 327.139 172.67 326.854C172.937 325.782 173.076 324.681 173.083 323.576C173.083 322.464 172.987 321.367 172.483 320.351C171.947 319.275 171.085 318.712 169.862 318.751C169.083 318.776 168.36 319.015 167.662 319.338C166.305 319.967 165.136 320.87 164.057 321.891C163.873 322.065 163.778 322.063 163.597 321.891C163.231 321.541 162.846 321.209 162.446 320.898C161.257 319.98 159.999 319.191 158.504 318.866C156.852 318.507 155.607 319.122 154.988 320.605C154.845 320.953 154.739 321.316 154.673 321.686C154.354 323.409 154.571 325.104 154.959 326.785C155.032 327.099 154.965 327.199 154.66 327.288C153.536 327.603 152.456 328.058 151.446 328.644C150.553 329.169 149.736 329.782 149.162 330.665C148.493 331.695 148.501 332.735 149.151 333.777C149.475 334.283 149.88 334.73 150.35 335.102C151.649 336.16 153.152 336.817 154.734 337.308C154.967 337.38 155.015 337.473 154.958 337.691C154.745 338.522 154.606 339.37 154.545 340.226C154.455 341.468 154.501 342.697 154.978 343.869C155.538 345.243 156.666 345.914 158.088 345.73C158.745 345.645 159.385 345.462 159.988 345.187C161.363 344.565 162.561 343.685 163.65 342.65C163.821 342.484 163.917 342.475 164.084 342.65C164.321 342.89 164.572 343.117 164.836 343.327C166.075 344.352 167.383 345.252 168.977 345.635C170.808 346.075 172.102 345.373 172.741 343.596C172.892 343.167 172.997 342.722 173.052 342.271C173.248 340.756 173.108 339.259 172.761 337.784C172.672 337.406 172.753 337.279 173.115 337.175C173.975 336.925 174.805 336.585 175.594 336.159C176.692 335.58 177.713 334.895 178.426 333.841C179.152 332.773 179.144 331.682 178.413 330.611ZM164.91 322.854C166.032 321.816 167.223 320.885 168.662 320.322C169.037 320.175 169.431 320.084 169.832 320.053C170.545 319.998 171.028 320.307 171.328 320.938C171.716 321.757 171.78 322.637 171.801 323.477C171.774 324.533 171.644 325.583 171.413 326.614C171.371 326.81 171.309 326.862 171.101 326.814C169.911 326.552 168.706 326.364 167.493 326.252C167.423 326.246 167.355 326.223 167.296 326.185C167.237 326.146 167.188 326.094 167.154 326.033C166.466 325.056 165.721 324.121 164.923 323.231C164.8 323.096 164.743 323.008 164.91 322.854ZM163.813 337.086C162.996 337.086 162.179 337.08 161.362 337.086C161.136 337.086 161.011 336.987 160.894 336.81C159.982 335.436 159.155 334.007 158.42 332.53C158.372 332.447 158.347 332.353 158.347 332.257C158.347 332.161 158.372 332.067 158.42 331.984C159.155 330.507 159.979 329.077 160.888 327.701C160.932 327.622 160.996 327.557 161.073 327.511C161.15 327.464 161.237 327.439 161.327 327.437C162.985 327.335 164.648 327.335 166.306 327.437C166.396 327.441 166.484 327.468 166.56 327.515C166.637 327.563 166.7 327.629 166.743 327.708C167.644 329.089 168.471 330.516 169.222 331.985C169.267 332.062 169.29 332.15 169.29 332.24C169.29 332.33 169.267 332.418 169.222 332.496C168.471 333.979 167.644 335.422 166.743 336.818C166.696 336.903 166.625 336.972 166.541 337.018C166.456 337.064 166.36 337.085 166.263 337.078C165.446 337.078 164.629 337.078 163.812 337.078L163.813 337.086ZM158.992 336.246C159.111 336.457 159.414 336.693 159.304 336.869C159.194 337.045 158.864 336.842 158.633 336.814C158.068 336.741 157.508 336.631 156.944 336.541C156.721 336.505 156.609 336.443 156.707 336.173C156.988 335.398 157.248 334.615 157.595 333.83C158.074 334.656 158.54 335.447 158.992 336.246ZM156.715 328.352C156.668 328.217 156.658 328.094 156.842 328.058C157.661 327.892 158.48 327.74 159.385 327.638C158.73 328.663 158.172 329.662 157.605 330.71C157.245 329.911 156.981 329.132 156.715 328.352ZM170.033 333.763C170.439 334.6 170.723 335.419 171.006 336.24C171.042 336.342 171.018 336.424 170.903 336.448C170.027 336.642 169.141 336.784 168.249 336.873C168.888 335.833 169.464 334.841 170.033 333.765V333.763ZM170.027 330.72C169.455 329.661 168.883 328.67 168.247 327.644C169.115 327.744 169.977 327.891 170.829 328.083C170.967 328.115 170.983 328.185 170.943 328.306C170.68 329.102 170.391 329.887 170.027 330.722V330.72ZM163.714 324.075C163.848 323.927 163.909 324.046 163.983 324.127C164.535 324.731 165.047 325.369 165.582 326.079H162.062C162.577 325.383 163.128 324.713 163.714 324.075ZM156.135 321.242C156.494 320.264 157.088 319.924 158.101 320.115C159.223 320.327 160.186 320.881 161.106 321.523C161.666 321.924 162.201 322.357 162.709 322.822C162.858 322.955 162.919 323.034 162.752 323.215C161.935 324.103 161.175 325.043 160.479 326.03C160.438 326.094 160.382 326.148 160.316 326.187C160.251 326.225 160.176 326.247 160.1 326.251C158.938 326.354 157.784 326.533 156.645 326.787C156.379 326.848 156.269 326.812 156.207 326.512C155.994 325.492 155.818 324.471 155.825 323.377C155.813 322.682 155.875 321.948 156.134 321.242H156.135ZM155.448 335.905C155.39 336.094 155.314 336.145 155.118 336.082C153.578 335.586 152.102 334.967 150.887 333.855C150.412 333.42 150.011 332.929 149.95 332.277C149.967 331.874 150.119 331.489 150.381 331.184C151.124 330.251 152.133 329.699 153.19 329.215C153.828 328.93 154.485 328.688 155.156 328.491C155.335 328.437 155.404 328.464 155.459 328.647C155.825 329.81 156.263 330.949 156.773 332.057C156.806 332.118 156.823 332.187 156.824 332.257C156.825 332.327 156.809 332.397 156.778 332.459C156.261 333.578 155.817 334.729 155.447 335.905H155.448ZM162.83 341.666C161.52 342.846 160.151 343.924 158.393 344.361C158.28 344.39 158.165 344.412 158.05 344.427C157.934 344.442 157.817 344.443 157.7 344.449C157.003 344.495 156.544 344.16 156.25 343.549C156.016 343.041 155.879 342.494 155.846 341.935C155.746 340.603 155.899 339.293 156.208 337.995C156.259 337.784 156.311 337.727 156.539 337.775C157.718 338.023 158.912 338.192 160.113 338.28C160.191 338.283 160.266 338.305 160.333 338.343C160.4 338.382 160.456 338.436 160.498 338.501C161.205 339.495 161.971 340.446 162.792 341.349C162.879 341.447 162.981 341.528 162.829 341.666H162.83ZM163.981 340.465C163.88 340.578 163.81 340.539 163.728 340.448C163.137 339.808 162.58 339.136 162.062 338.435H165.601C165.102 339.144 164.56 339.821 163.98 340.465H163.981ZM171.547 343.115C171.154 344.291 170.473 344.669 169.272 344.38C167.992 344.072 166.934 343.352 165.924 342.551C165.588 342.285 165.285 341.98 164.954 341.709C164.789 341.575 164.805 341.489 164.939 341.34C165.742 340.439 166.487 339.488 167.17 338.493C167.209 338.427 167.264 338.372 167.33 338.333C167.396 338.294 167.47 338.272 167.546 338.268C168.721 338.173 169.888 337.996 171.038 337.741C171.303 337.68 171.441 337.702 171.507 338.029C171.706 338.991 171.821 339.968 171.851 340.949C171.836 341.611 171.791 342.376 171.546 343.111L171.547 343.115ZM177.33 333.156C176.91 333.768 176.339 334.21 175.719 334.602C174.75 335.217 173.692 335.635 172.611 336.01C172.363 336.092 172.281 336.028 172.206 335.794C171.842 334.658 171.398 333.549 170.878 332.475C170.839 332.402 170.818 332.321 170.818 332.238C170.818 332.156 170.839 332.075 170.878 332.002C171.369 330.943 171.796 329.856 172.156 328.746C172.212 328.57 172.239 328.438 172.487 328.517C173.837 328.948 175.145 329.468 176.297 330.318C176.726 330.615 177.096 330.987 177.392 331.416C177.549 331.658 177.666 331.918 177.66 332.217C177.675 332.57 177.525 332.871 177.332 333.155L177.33 333.156Z" fill="white"/>
<path d="M163.797 334.932C163.262 334.929 162.741 334.767 162.299 334.466C161.857 334.165 161.514 333.74 161.313 333.244C161.112 332.747 161.063 332.202 161.171 331.678C161.28 331.154 161.541 330.673 161.923 330.298C162.304 329.923 162.787 329.669 163.312 329.57C163.837 329.47 164.38 329.529 164.872 329.739C165.363 329.949 165.782 330.3 166.074 330.748C166.366 331.197 166.519 331.722 166.513 332.257C166.513 332.613 166.442 332.964 166.305 333.292C166.168 333.619 165.967 333.916 165.714 334.165C165.461 334.414 165.162 334.61 164.832 334.742C164.503 334.874 164.151 334.939 163.797 334.932Z" fill="white"/>
<path d="M242.984 167.68C243.652 168.055 244.313 168.442 244.99 168.8C245.289 168.958 245.407 169.159 245.406 169.5C245.396 172.857 245.395 176.214 245.403 179.572C245.403 179.844 245.307 180.02 245.068 180.155C243.927 180.804 242.791 181.46 241.658 182.123C241.439 182.251 241.247 182.258 241.025 182.128C239.875 181.456 238.722 180.79 237.565 180.129C237.363 180.013 237.275 179.859 237.275 179.626C237.28 178.287 237.28 176.948 237.275 175.609C237.275 175.375 237.364 175.222 237.566 175.107C238.735 174.438 239.902 173.766 241.067 173.089C241.253 172.982 241.425 172.98 241.608 173.089C241.865 173.243 242.127 173.39 242.387 173.539C242.593 173.658 242.691 173.602 242.691 173.366C242.691 171.575 242.69 169.783 242.689 167.991C242.689 167.856 242.721 167.752 242.837 167.679L242.984 167.68ZM239.973 177.621C239.973 177.838 239.976 178.054 239.973 178.272C239.969 178.311 239.977 178.35 239.997 178.384C240.016 178.419 240.045 178.446 240.08 178.463C240.465 178.681 240.848 178.901 241.23 179.124C241.26 179.144 241.296 179.155 241.332 179.155C241.369 179.155 241.405 179.143 241.434 179.122C241.816 178.9 242.2 178.679 242.584 178.461C242.617 178.445 242.645 178.419 242.663 178.387C242.681 178.355 242.69 178.319 242.687 178.282C242.684 177.844 242.684 177.406 242.687 176.968C242.69 176.929 242.681 176.89 242.662 176.856C242.642 176.822 242.613 176.795 242.578 176.778C242.194 176.56 241.811 176.339 241.43 176.115C241.357 176.072 241.298 176.076 241.226 176.119C240.849 176.34 240.47 176.559 240.09 176.774C240.006 176.821 239.971 176.878 239.973 176.973C239.977 177.187 239.973 177.404 239.973 177.62L239.973 177.621Z" fill="white"/>
<path d="M255.31 176.573H255.298H255.285C255.285 176.178 255.285 175.784 255.285 175.389C255.289 175.387 255.293 175.386 255.297 175.386C255.302 175.386 255.306 175.387 255.31 175.389L255.31 176.573Z" fill="white"/>
<path d="M235.475 177.583C235.475 178.257 235.472 178.932 235.477 179.606C235.478 179.805 235.396 179.944 235.228 180.04C234.85 180.254 234.47 180.465 234.093 180.683C233.319 181.131 232.542 181.576 231.775 182.036C231.534 182.181 231.331 182.177 231.092 182.036C229.96 181.373 228.824 180.716 227.685 180.067C227.488 179.954 227.396 179.805 227.396 179.579C227.4 178.231 227.4 176.883 227.396 175.534C227.396 175.324 227.478 175.177 227.656 175.074C228.839 174.393 230.023 173.711 231.206 173.029C231.39 172.923 231.561 172.962 231.734 173.062C232.515 173.516 233.297 173.968 234.08 174.418C234.454 174.634 234.827 174.853 235.204 175.065C235.396 175.172 235.483 175.326 235.482 175.545C235.478 176.226 235.48 176.904 235.48 177.583L235.475 177.583Z" fill="white"/>
<path d="M217.474 178.204C217.474 177.298 217.477 176.392 217.473 175.487C217.473 175.267 217.555 175.115 217.747 175.005C218.924 174.332 220.1 173.656 221.275 172.977C221.449 172.876 221.617 172.875 221.791 172.975C222.97 173.655 224.151 174.334 225.332 175.01C225.513 175.114 225.595 175.264 225.595 175.47C225.59 177.301 225.586 179.132 225.582 180.963C225.582 181.221 225.429 181.308 225.204 181.18C224.517 180.789 223.831 180.394 223.143 180.003C222.962 179.9 222.883 179.748 222.884 179.542C222.887 178.72 222.88 177.898 222.889 177.076C222.891 176.83 222.798 176.667 222.584 176.552C222.324 176.413 222.069 176.264 221.817 176.111C221.624 175.992 221.444 175.992 221.25 176.111C220.99 176.271 220.727 176.424 220.458 176.57C220.263 176.675 220.179 176.828 220.18 177.048C220.184 177.86 220.176 178.672 220.185 179.484C220.187 179.745 220.091 179.916 219.859 180.044C219.197 180.411 218.544 180.793 217.887 181.168C217.629 181.316 217.479 181.231 217.479 180.936C217.479 180.025 217.479 179.115 217.479 178.204L217.474 178.204Z" fill="white"/>
<path d="M255.287 175.39C255.287 175.785 255.287 176.179 255.287 176.574C255.267 176.712 255.184 176.805 255.069 176.872C254.364 177.283 253.658 177.692 252.952 178.101C252.745 178.219 252.588 178.128 252.585 177.894C252.582 177.598 252.578 177.302 252.585 177.008C252.59 176.845 252.528 176.744 252.385 176.666C252.053 176.485 251.726 176.294 251.4 176.101C251.282 176.03 251.178 176.028 251.057 176.101C250.724 176.299 250.387 176.493 250.048 176.682C249.92 176.753 249.87 176.847 249.87 176.991C249.876 177.375 249.876 177.759 249.87 178.143C249.868 178.289 249.926 178.377 250.052 178.449C251.183 179.094 252.313 179.741 253.442 180.391C253.476 180.41 253.51 180.43 253.544 180.45C253.641 180.503 253.738 180.56 253.737 180.687C253.737 180.813 253.643 180.871 253.545 180.923C253.102 181.168 252.659 181.413 252.217 181.66C251.981 181.791 251.744 181.92 251.509 182.055C251.326 182.16 251.154 182.16 250.967 182.055C249.803 181.388 248.637 180.724 247.469 180.063C247.289 179.961 247.203 179.819 247.203 179.609C247.206 178.246 247.206 176.882 247.203 175.519C247.203 175.315 247.287 175.174 247.461 175.075C248.637 174.399 249.811 173.721 250.985 173.042C251.175 172.931 251.35 172.932 251.539 173.042C252.698 173.718 253.858 174.391 255.02 175.062C255.154 175.136 255.263 175.227 255.287 175.39Z" fill="white"/>
<path d="M240.3 186.158C240.3 186.798 240.295 187.438 240.302 188.078C240.306 188.404 240.167 188.633 239.892 188.791C238.792 189.425 237.692 190.059 236.593 190.694C236.302 190.862 236.018 190.859 235.73 190.684C235.381 190.472 235.027 190.267 234.677 190.058C234.637 190.034 234.575 190.018 234.588 189.956C234.597 189.906 234.654 189.907 234.694 189.89C234.794 189.849 234.903 189.821 234.99 189.76C235.136 189.658 235.256 189.667 235.401 189.768C235.608 189.91 235.832 190.024 236.045 190.157C236.137 190.214 236.213 190.208 236.305 190.155C237.39 189.526 238.476 188.899 239.565 188.274C239.673 188.212 239.697 188.134 239.697 188.022C239.694 187.062 239.697 186.102 239.697 185.142C239.697 184.856 239.694 184.571 239.697 184.284C239.697 184.178 239.66 184.112 239.567 184.059C238.47 183.429 237.375 182.798 236.281 182.165C236.249 182.143 236.211 182.131 236.172 182.131C236.133 182.131 236.095 182.143 236.063 182.165C234.964 182.801 233.865 183.436 232.764 184.068C232.726 184.086 232.695 184.114 232.674 184.15C232.653 184.186 232.643 184.228 232.646 184.269C232.647 185.535 232.647 186.8 232.646 188.065C232.642 188.104 232.651 188.143 232.67 188.177C232.689 188.211 232.719 188.238 232.754 188.256C233.041 188.417 233.324 188.588 233.612 188.748C233.773 188.836 233.945 188.896 234.135 188.839C234.324 188.783 234.435 188.647 234.449 188.455C234.456 188.366 234.453 188.277 234.453 188.188V184.662C234.453 184.446 234.466 184.432 234.676 184.434C235.14 184.436 235.088 184.379 235.09 184.839C235.091 186.01 235.091 187.182 235.09 188.354C235.093 188.501 235.076 188.649 235.041 188.792C234.932 189.21 234.622 189.453 234.19 189.485C233.846 189.51 233.54 189.413 233.246 189.248C232.971 189.094 232.7 188.934 232.427 188.777C232.166 188.627 232.037 188.404 232.037 188.099C232.039 186.809 232.039 185.52 232.037 184.23C232.037 183.925 232.167 183.705 232.43 183.553C233.547 182.911 234.664 182.267 235.78 181.623C236.036 181.475 236.296 181.47 236.552 181.618C237.678 182.265 238.803 182.915 239.927 183.565C240.178 183.711 240.302 183.931 240.301 184.224C240.299 184.868 240.3 185.513 240.3 186.158Z" fill="white"/>
<path d="M237.111 184.343C237.436 184.334 237.759 184.366 238.066 184.488C238.51 184.664 238.729 185.006 238.787 185.467C238.802 185.588 238.753 185.644 238.631 185.639C238.602 185.636 238.572 185.636 238.543 185.639C238.304 185.672 238.132 185.631 238.074 185.346C238.037 185.164 237.875 185.054 237.695 185.006C237.322 184.905 236.93 184.902 236.556 184.999C236.333 185.058 236.223 185.189 236.214 185.371C236.204 185.554 236.251 185.635 236.425 185.695C236.673 185.78 236.933 185.809 237.191 185.848C237.54 185.901 237.892 185.939 238.232 186.046C238.635 186.174 238.901 186.414 238.923 186.861C238.945 187.291 238.784 187.629 238.41 187.853C238.114 188.031 237.786 188.093 237.45 188.109C237.011 188.131 236.575 188.101 236.158 187.941C235.706 187.768 235.424 187.372 235.418 186.917C235.418 186.804 235.453 186.751 235.57 186.757C235.687 186.762 235.807 186.759 235.925 186.757C236.001 186.755 236.053 186.786 236.061 186.861C236.111 187.279 236.387 187.442 236.766 187.482C237.129 187.521 237.493 187.537 237.851 187.442C238.029 187.394 238.179 187.308 238.231 187.111C238.293 186.877 238.231 186.741 238.006 186.654C237.751 186.556 237.482 186.528 237.213 186.496C236.838 186.452 236.462 186.415 236.102 186.281C235.346 185.999 235.415 185.022 235.882 184.669C236.165 184.456 236.488 184.372 236.831 184.344C236.923 184.336 237.017 184.343 237.111 184.343Z" fill="white"/>
<path d="M252.011 177.556C252.132 177.9 251.937 178.05 251.666 178.218C251.37 178.402 251.155 178.41 250.85 178.227C250.561 178.053 250.454 177.877 250.455 177.538C250.455 177.205 250.554 177.03 250.844 176.862C251.146 176.686 251.361 176.679 251.662 176.862C251.95 177.036 252.125 177.207 252.011 177.556Z" fill="white"/>
<path d="M241.481 183.333C241.568 183.332 241.653 183.347 241.734 183.379C241.814 183.411 241.887 183.458 241.949 183.518C242.011 183.578 242.061 183.65 242.095 183.729C242.129 183.808 242.148 183.894 242.149 183.98C242.156 184.335 241.853 184.639 241.494 184.641C241.409 184.642 241.323 184.626 241.244 184.594C241.164 184.561 241.091 184.514 241.03 184.454C240.969 184.394 240.92 184.322 240.886 184.243C240.853 184.164 240.835 184.079 240.834 183.993C240.833 183.908 240.849 183.822 240.881 183.743C240.913 183.663 240.961 183.591 241.021 183.529C241.081 183.468 241.153 183.419 241.232 183.385C241.311 183.352 241.396 183.334 241.481 183.333ZM240.941 183.979C240.938 184.126 240.994 184.268 241.097 184.373C241.199 184.479 241.339 184.539 241.486 184.541C241.783 184.545 242.039 184.288 242.039 183.986C242.037 183.839 241.978 183.699 241.874 183.596C241.77 183.493 241.63 183.435 241.483 183.434C241.339 183.435 241.201 183.493 241.1 183.595C240.998 183.697 240.941 183.835 240.941 183.979Z" fill="white"/>
<path d="M241.24 183.982C241.236 183.938 241.236 183.894 241.24 183.85C241.254 183.773 241.188 183.648 241.278 183.626C241.411 183.593 241.567 183.58 241.69 183.67C241.708 183.683 241.723 183.701 241.735 183.72C241.746 183.74 241.753 183.761 241.756 183.783C241.759 183.806 241.757 183.829 241.751 183.85C241.745 183.872 241.734 183.892 241.72 183.91C241.665 183.979 241.683 184.015 241.712 184.079C241.74 184.142 241.737 184.212 241.75 184.279C241.757 184.312 241.778 184.351 241.721 184.356C241.679 184.36 241.627 184.373 241.614 184.31C241.603 184.262 241.596 184.214 241.592 184.165C241.587 184.078 241.533 184.065 241.461 184.063C241.376 184.06 241.392 184.117 241.381 184.17C241.367 184.235 241.44 184.355 241.31 184.352C241.171 184.35 241.255 184.226 241.24 184.158C241.229 184.102 241.24 184.041 241.24 183.982ZM241.466 183.935C241.542 183.935 241.599 183.92 241.6 183.834C241.601 183.748 241.539 183.738 241.472 183.732C241.398 183.725 241.38 183.761 241.383 183.827C241.387 183.893 241.38 183.949 241.466 183.936V183.935Z" fill="white"/>
<path d="M362.944 104.588C365.952 104.588 368.96 104.593 371.968 104.588C372.686 104.591 373.399 104.462 374.072 104.21C374.295 104.123 374.386 104.048 374.254 103.792C373.418 102.176 373.799 100.662 374.663 99.192C374.827 98.9139 374.987 98.8507 375.275 99.0493C376.267 99.732 376.995 100.602 377.259 101.796C377.328 102.106 377.453 102.137 377.726 102.094C378.776 101.938 379.791 102.02 380.746 102.548C381.097 102.742 381.172 102.94 380.98 103.308C380.198 104.809 378.923 105.514 377.282 105.588C376.87 105.607 376.681 105.724 376.528 106.105C375.622 108.371 374.381 110.418 372.497 112.019C370.373 113.82 367.886 114.777 365.148 115.143C362.998 115.442 360.81 115.35 358.692 114.871C356.097 114.276 354.428 112.684 353.536 110.224C353.023 108.817 352.748 107.334 352.725 105.836C352.711 104.869 352.981 104.588 353.966 104.588H362.944Z" fill="white"/>
<path d="M363.544 104.039C363.178 104.039 362.813 104.033 362.448 104.039C362.199 104.043 362.085 103.932 362.086 103.683C362.09 103.014 362.09 102.344 362.086 101.675C362.086 101.42 362.216 101.327 362.458 101.329C363.188 101.333 363.918 101.335 364.649 101.329C364.933 101.329 365.067 101.431 365.061 101.731C365.048 102.355 365.045 102.979 365.061 103.602C365.07 103.95 364.916 104.058 364.592 104.042C364.245 104.025 363.894 104.039 363.544 104.039Z" fill="white"/>
<path d="M363.575 98.1304C363.941 98.1304 364.307 98.1363 364.673 98.1304C364.94 98.1244 365.062 98.239 365.06 98.5112C365.053 99.1515 365.056 99.7918 365.06 100.432C365.06 100.721 364.92 100.841 364.636 100.838C363.919 100.832 363.202 100.829 362.486 100.838C362.185 100.843 362.082 100.709 362.086 100.424C362.095 99.7992 362.098 99.1738 362.086 98.5491C362.079 98.2278 362.218 98.1133 362.526 98.1259C362.873 98.1408 363.224 98.1297 363.575 98.1304Z" fill="white"/>
<path d="M367.094 101.331C367.368 101.343 367.643 101.342 367.918 101.326C368.364 101.282 368.56 101.423 368.527 101.907C368.487 102.469 368.507 103.036 368.521 103.6C368.529 103.906 368.431 104.047 368.104 104.047C367.386 104.032 366.668 104.035 365.947 104.047C365.649 104.051 365.544 103.919 365.549 103.63C365.56 103.005 365.563 102.378 365.549 101.753C365.542 101.425 365.688 101.322 365.995 101.333C366.36 101.342 366.727 101.331 367.094 101.331Z" fill="white"/>
<path d="M367.031 100.835C366.68 100.835 366.329 100.829 365.978 100.835C365.694 100.841 365.554 100.723 365.557 100.429C365.563 99.7886 365.564 99.1483 365.557 98.508C365.557 98.2328 365.674 98.1243 365.942 98.1265C366.659 98.1324 367.375 98.1324 368.092 98.1265C368.404 98.1265 368.529 98.2618 368.523 98.5727C368.513 99.1825 368.514 99.7923 368.523 100.402C368.528 100.713 368.396 100.848 368.084 100.838C367.732 100.826 367.381 100.835 367.031 100.835Z" fill="white"/>
<path d="M356.692 101.332C357.077 101.398 357.659 101.12 357.979 101.452C358.277 101.761 358.073 102.327 358.078 102.778C358.094 104.042 358.084 104.042 356.843 104.042C356.416 104.042 355.989 104.036 355.562 104.042C355.26 104.049 355.108 103.932 355.115 103.615C355.124 102.974 355.121 102.334 355.115 101.694C355.115 101.445 355.225 101.329 355.473 101.332C355.852 101.335 356.233 101.332 356.692 101.332Z" fill="white"/>
<path d="M370.629 101.332C371.012 101.397 371.596 101.12 371.914 101.451C372.211 101.759 372.007 102.326 372.012 102.777C372.027 104.042 372.017 104.042 370.777 104.042C370.351 104.042 369.924 104.035 369.497 104.042C369.194 104.048 369.043 103.928 369.047 103.613C369.054 102.973 369.052 102.333 369.047 101.692C369.047 101.443 369.157 101.329 369.405 101.332C369.787 101.335 370.171 101.332 370.629 101.332Z" fill="white"/>
<path d="M367.022 94.9135C367.372 94.9135 367.722 94.9209 368.072 94.9135C368.37 94.9053 368.526 95.0191 368.519 95.3381C368.51 95.9767 368.51 96.6158 368.519 97.2553C368.519 97.5342 368.393 97.6272 368.128 97.6272C367.413 97.6188 366.697 97.6188 365.982 97.6272C365.667 97.6309 365.548 97.4844 365.553 97.181C365.561 96.557 365.563 95.9331 365.553 95.3091C365.548 95.0072 365.687 94.9046 365.971 94.9142C366.322 94.9209 366.672 94.9135 367.022 94.9135Z" fill="white"/>
<path d="M360.07 98.129C360.421 98.129 360.772 98.1365 361.123 98.129C361.409 98.1209 361.537 98.2287 361.53 98.5321C361.514 99.1576 361.517 99.7837 361.53 100.409C361.536 100.725 361.403 100.846 361.092 100.841C360.405 100.829 359.718 100.828 359.031 100.841C358.693 100.847 358.569 100.707 358.577 100.375C358.593 99.78 358.6 99.1851 358.577 98.5901C358.561 98.2116 358.726 98.109 359.066 98.1276C359.406 98.1462 359.734 98.129 360.07 98.129Z" fill="white"/>
<path d="M360.064 104.039C359.699 104.039 359.334 104.039 358.968 104.039C358.706 104.039 358.578 103.925 358.58 103.653C358.586 102.999 358.588 102.344 358.58 101.689C358.58 101.435 358.686 101.329 358.933 101.33C359.677 101.33 360.426 101.335 361.172 101.33C361.453 101.33 361.535 101.469 361.53 101.732C361.519 102.37 361.517 103.011 361.53 103.65C361.537 103.956 361.398 104.051 361.115 104.042C360.766 104.03 360.415 104.039 360.064 104.039Z" fill="white"/>
<path d="M98.8752 194.623H89.8449C89.4216 194.623 89.4209 194.623 89.5571 194.212C89.9658 192.979 90.3813 191.75 90.777 190.514C90.8604 190.253 90.9782 190.162 91.2591 190.162C96.8309 190.17 102.403 190.17 107.975 190.162C108.273 190.162 108.364 190.238 108.358 190.544C108.34 191.78 108.34 193.016 108.358 194.254C108.362 194.56 108.271 194.636 107.975 194.632C104.945 194.619 101.91 194.623 98.8752 194.623Z" fill="white"/>
<path d="M100.302 186.141C97.7517 186.141 95.2018 186.136 92.6495 186.146C92.3281 186.146 92.2263 186.109 92.3495 185.754C92.7858 184.505 93.1914 183.245 93.5985 181.986C93.6666 181.774 93.7592 181.689 93.9957 181.69C98.6757 181.698 103.355 181.698 108.035 181.69C108.284 181.69 108.359 181.758 108.356 182.01C108.344 183.272 108.339 184.535 108.356 185.796C108.36 186.097 108.259 186.147 107.986 186.145C105.428 186.141 102.865 186.141 100.302 186.141Z" fill="white"/>
<path d="M101.661 177.672C99.5836 177.672 97.5066 177.666 95.4288 177.677C95.1227 177.677 95.0339 177.636 95.1464 177.31C95.5842 176.048 96.0012 174.78 96.4114 173.509C96.4818 173.292 96.5783 173.216 96.8109 173.217C100.546 173.224 104.28 173.224 108.015 173.217C108.281 173.217 108.361 173.287 108.358 173.557C108.344 174.819 108.344 176.081 108.358 177.342C108.358 177.617 108.267 177.678 108.009 177.678C105.895 177.668 103.779 177.672 101.661 177.672Z" fill="white"/>
<path d="M85.8824 177.671C84.5316 177.671 83.1817 177.665 81.8309 177.677C81.5516 177.677 81.4284 177.632 81.4338 177.308C81.4537 176.06 81.4483 174.811 81.4338 173.563C81.4338 173.302 81.4957 173.215 81.7705 173.216C84.9939 173.225 88.217 173.225 91.4399 173.216C91.7537 173.216 91.8034 173.287 91.7031 173.581C91.2756 174.832 90.8613 176.087 90.4603 177.348C90.3838 177.596 90.2728 177.681 90.008 177.678C88.6343 177.664 87.2584 177.671 85.8824 177.671Z" fill="white"/>
<path d="M88.9988 181.733C88.6054 182.934 88.2134 184.131 87.8226 185.323C87.5516 186.147 87.5494 186.146 86.6662 186.146C85.0476 186.146 83.429 186.138 81.8105 186.154C81.4998 186.154 81.4278 186.061 81.4339 185.771C81.45 184.523 81.4431 183.274 81.4385 182.021C81.4385 181.821 81.4454 181.692 81.7133 181.693C84.0964 181.704 86.4802 181.7 88.8633 181.702C88.9094 181.708 88.9547 181.718 88.9988 181.733Z" fill="white"/>
<path d="M83.8391 190.159C84.5148 190.159 85.1906 190.172 85.8655 190.153C86.1717 190.146 86.1969 190.235 86.1058 190.503C85.6696 191.779 85.2487 193.06 84.8324 194.342C84.7681 194.539 84.6893 194.633 84.4635 194.629C83.5582 194.616 82.6529 194.617 81.7483 194.629C81.5225 194.629 81.4361 194.575 81.4376 194.332C81.4491 193.045 81.4514 191.757 81.4376 190.47C81.4338 190.198 81.5432 190.153 81.7743 190.156C82.4616 190.166 83.1503 190.159 83.8391 190.159Z" fill="white"/>
<path d="M116.933 67.5865L116.933 67.5865C115.928 69.3274 116.226 71.6148 117.608 74.0249L117.711 73.9659L117.608 74.0249C117.68 74.1501 117.798 74.2416 117.937 74.2794C118.077 74.3171 118.225 74.298 118.35 74.2263C118.476 74.1545 118.567 74.036 118.605 73.8967C118.643 73.7575 118.624 73.609 118.552 73.4838L118.552 73.4838C117.324 71.3432 117.106 69.4606 117.875 68.1303L117.875 68.1303C118.396 67.2271 119.365 66.5954 120.69 66.2765C122.015 65.9575 123.686 65.9542 125.591 66.3011C125.661 66.3149 125.734 66.3147 125.804 66.3003C125.875 66.2859 125.942 66.2576 126.001 66.217L125.935 66.1189L126.001 66.217C126.061 66.1764 126.112 66.1244 126.151 66.0639C126.191 66.0035 126.217 65.9358 126.23 65.8648L126.114 65.8436L126.23 65.8648C126.243 65.7938 126.242 65.721 126.226 65.6506C126.211 65.5801 126.182 65.5135 126.14 65.4545C126.098 65.3955 126.046 65.3454 125.985 65.307C125.924 65.2689 125.857 65.2431 125.786 65.2312C121.63 64.4745 118.279 65.2545 116.933 67.5865ZM141.841 84.2249L141.842 84.2244C141.96 84.1427 142.041 84.0177 142.067 83.8765C142.093 83.7354 142.062 83.5897 141.982 83.4711C141.901 83.3525 141.776 83.2707 141.635 83.2435C141.495 83.2162 141.349 83.2458 141.229 83.3257L141.229 83.3262C139.853 84.2641 137.664 84.5289 135.082 84.1352C132.505 83.7423 129.558 82.696 126.689 81.0392C124.289 79.6534 122.19 77.9882 120.584 76.2232C120.536 76.1694 120.479 76.1255 120.414 76.0941C120.349 76.0626 120.279 76.0443 120.207 76.0403C120.135 76.0363 120.062 76.0467 119.994 76.0708C119.926 76.095 119.864 76.1324 119.811 76.1809C119.757 76.2295 119.714 76.2882 119.684 76.3536C119.653 76.419 119.636 76.4898 119.633 76.5619C119.63 76.634 119.642 76.7059 119.667 76.7735C119.692 76.8408 119.73 76.9024 119.779 76.9548C121.465 78.8068 123.652 80.5418 126.145 81.9811C129.163 83.7234 132.281 84.8292 135.044 85.2287C137.804 85.6277 140.228 85.3246 141.841 84.2249Z" fill="white" stroke="white" stroke-width="0.237282"/>
<path d="M137.433 66.0632L137.433 66.0632C137.361 66.0622 137.291 66.0472 137.225 66.019C137.159 65.9908 137.1 65.9499 137.05 65.8988C137 65.8476 136.961 65.7871 136.935 65.7208C136.908 65.6544 136.895 65.5835 136.896 65.5121C136.897 65.4407 136.912 65.3702 136.94 65.3046C136.968 65.239 137.009 65.1796 137.06 65.1298C137.112 65.0799 137.172 65.0407 137.238 65.0142C137.305 64.9878 137.376 64.9747 137.447 64.9756C137.447 64.9756 137.447 64.9756 137.447 64.9756L137.446 65.0943L137.433 66.0632ZM137.433 66.0632C139.839 66.0943 141.533 66.8443 142.289 68.1523M137.433 66.0632L143.128 67.6679L143.23 67.6086C144.574 69.9359 143.581 73.219 140.86 76.4335M140.86 76.4335C140.86 76.4338 140.86 76.4341 140.859 76.4344L140.769 76.3577M140.86 76.4335C140.86 76.4332 140.861 76.4329 140.861 76.4326L140.769 76.3577M140.86 76.4335C140.815 76.4892 140.759 76.5353 140.695 76.5691C140.631 76.6031 140.561 76.6241 140.489 76.6307C140.418 76.6374 140.345 76.6297 140.276 76.608C140.207 76.5863 140.143 76.551 140.088 76.5043C140.033 76.4577 139.987 76.4004 139.955 76.336C139.922 76.2716 139.902 76.2013 139.897 76.1292C139.892 76.0571 139.901 75.9847 139.924 75.9162C139.947 75.8481 139.983 75.7851 140.03 75.7311C141.277 74.2579 142.105 72.8126 142.489 71.5092C142.872 70.2057 142.809 69.0536 142.289 68.1523M140.769 76.3577C140.733 76.4016 140.689 76.4378 140.639 76.4644C140.589 76.491 140.535 76.5074 140.479 76.5126C140.422 76.5178 140.366 76.5118 140.312 76.4948C140.258 76.4778 140.208 76.4503 140.165 76.4138C140.121 76.3773 140.086 76.3325 140.06 76.2822C140.035 76.2318 140.019 76.1769 140.015 76.1205C140.011 76.0641 140.018 76.0075 140.036 75.954C140.054 75.9004 140.083 75.8509 140.12 75.8085C142.629 72.8448 143.474 69.9685 142.391 68.093M140.769 76.3577L137.434 65.9445C139.858 65.9759 141.605 66.7318 142.391 68.093M142.289 68.1523L142.391 68.093M142.289 68.1523C142.289 68.1523 142.289 68.1523 142.289 68.1523L142.391 68.093M133.771 65.3736L133.771 65.3735L133.768 65.3741C131.3 65.903 128.676 66.936 126.159 68.3898C123.043 70.1884 120.466 72.4154 118.737 74.678C117.011 76.9365 116.118 79.2475 116.405 81.2095C116.414 81.281 116.437 81.3501 116.473 81.4127C116.509 81.4758 116.557 81.531 116.615 81.5752C116.672 81.6193 116.738 81.6514 116.809 81.6696C116.879 81.6879 116.952 81.6918 117.024 81.6812C117.096 81.6707 117.165 81.6458 117.227 81.6081C117.289 81.5704 117.343 81.5207 117.386 81.4618C117.428 81.4029 117.458 81.3361 117.475 81.2653C117.491 81.1951 117.493 81.1223 117.481 81.0513C117.239 79.3983 118.05 77.3289 119.682 75.2324C121.311 73.1398 123.743 71.0397 126.702 69.3316L126.643 69.2289L126.702 69.3316C129.126 67.9318 131.644 66.9417 133.996 66.4373L133.996 66.4373L133.999 66.4367C134.137 66.4036 134.257 66.3179 134.332 66.1978C134.408 66.0776 134.434 65.9327 134.404 65.7938C134.374 65.6549 134.291 65.5332 134.173 65.4547C134.055 65.3762 133.91 65.3471 133.771 65.3736Z" fill="white" stroke="white" stroke-width="0.237282"/>
<path d="M123.59 83.6801C123.59 83.6971 123.59 83.7141 123.591 83.7311H123.568L123.625 83.8898C125.048 87.8623 127.397 90.371 130.088 90.371C132.051 90.371 133.844 89.0337 135.229 86.7321C135.267 86.6713 135.294 86.6034 135.306 86.5323C135.319 86.4605 135.317 86.387 135.3 86.3161C135.284 86.2452 135.253 86.1783 135.21 86.1194C135.167 86.0605 135.113 86.0109 135.051 85.9733C134.988 85.9358 134.919 85.9112 134.847 85.9009C134.775 85.8907 134.702 85.895 134.631 85.9136C134.561 85.9323 134.495 85.9649 134.437 86.0095C134.38 86.0537 134.333 86.1088 134.297 86.1716C133.072 88.2092 131.587 89.2839 130.088 89.2839C129.046 89.2839 128.016 88.7612 127.077 87.7746C126.139 86.7882 125.301 85.3446 124.649 83.5241C124.626 83.4559 124.59 83.3929 124.542 83.3389C124.494 83.2845 124.436 83.2402 124.371 83.2086C124.306 83.177 124.235 83.1587 124.163 83.1548C124.091 83.1509 124.018 83.1615 123.95 83.1859C123.882 83.2103 123.82 83.2481 123.766 83.297C123.713 83.346 123.67 83.405 123.64 83.4708C123.609 83.5366 123.593 83.6077 123.59 83.6801ZM131.902 60.415L131.902 60.415L131.9 60.4143C131.769 60.3582 131.621 60.3561 131.488 60.4083C131.355 60.4606 131.248 60.5632 131.19 60.6937C131.132 60.8243 131.128 60.9725 131.178 61.1062C131.228 61.2398 131.329 61.3483 131.459 61.4082L131.461 61.4089C132.984 62.0855 134.336 63.8385 135.308 66.2846C136.278 68.7259 136.861 71.8369 136.861 75.1957C136.861 77.9225 136.48 80.5332 135.776 82.7837C135.753 82.852 135.744 82.9241 135.749 82.9959C135.754 83.0683 135.774 83.1389 135.807 83.2036C135.839 83.2683 135.885 83.3257 135.94 83.3726C135.996 83.4194 136.06 83.4547 136.129 83.4764C136.198 83.4981 136.271 83.5057 136.343 83.4987C136.416 83.4918 136.486 83.4705 136.55 83.4361C136.613 83.4017 136.67 83.3548 136.715 83.2983C136.76 83.2421 136.794 83.1776 136.814 83.1084C137.552 80.7485 137.948 78.0283 137.948 75.1957C137.948 71.6617 137.33 68.3678 136.268 65.7586C135.208 63.1532 133.698 61.2125 131.902 60.415ZM144.825 82.6581C144.825 82.0871 144.598 81.5394 144.194 81.1356C143.79 80.7318 143.243 80.5049 142.672 80.5049C142.101 80.5049 141.553 80.7318 141.149 81.1356C140.745 81.5394 140.518 82.0871 140.518 82.6581C140.518 83.2292 140.745 83.7769 141.149 84.1807C141.553 84.5845 142.101 84.8113 142.672 84.8113C143.243 84.8113 143.79 84.5845 144.194 84.1807C144.598 83.7769 144.825 83.2292 144.825 82.6581ZM143.737 82.6581C143.737 82.9408 143.625 83.2118 143.425 83.4116C143.225 83.6115 142.954 83.7238 142.672 83.7238C142.389 83.7238 142.118 83.6115 141.918 83.4116C141.718 83.2118 141.606 82.9408 141.606 82.6581C141.606 82.3755 141.718 82.1045 141.918 81.9046C142.118 81.7048 142.389 81.5925 142.672 81.5925C142.954 81.5925 143.225 81.7048 143.425 81.9046C143.625 82.1045 143.737 82.3755 143.737 82.6581ZM117.476 84.8113C118.047 84.8113 118.595 84.5845 118.998 84.1807C119.402 83.7769 119.629 83.2292 119.629 82.6581C119.629 82.0871 119.402 81.5394 118.998 81.1356C118.595 80.7318 118.047 80.5049 117.476 80.5049C116.905 80.5049 116.357 80.7318 115.953 81.1356C115.55 81.5394 115.323 82.0871 115.323 82.6581C115.323 83.2292 115.55 83.7769 115.953 84.1807C116.357 84.5845 116.905 84.8113 117.476 84.8113ZM117.476 83.7238C117.193 83.7238 116.922 83.6115 116.722 83.4116C116.522 83.2117 116.41 82.9406 116.41 82.6579C116.41 82.3752 116.522 82.1041 116.722 81.9043C116.922 81.7044 117.193 81.5921 117.476 81.5921C117.759 81.5921 118.03 81.7044 118.23 81.9043C118.43 82.1041 118.542 82.3752 118.542 82.6579C118.542 82.9406 118.43 83.2117 118.23 83.4116C118.03 83.6115 117.759 83.7238 117.476 83.7238Z" fill="white" stroke="white" stroke-width="0.237282"/>
<path d="M130.841 61.3182C130.648 61.5111 130.389 61.6225 130.117 61.63H130.087C129.947 61.63 129.809 61.6024 129.679 61.5489C129.55 61.4953 129.433 61.4168 129.334 61.3179C129.235 61.2189 129.156 61.1014 129.103 60.9721C129.049 60.8428 129.022 60.7043 129.022 60.5643C129.022 60.4244 129.049 60.2858 129.103 60.1565C129.156 60.0272 129.235 59.9098 129.334 59.8108C129.433 59.7119 129.55 59.6334 129.679 59.5798C129.809 59.5263 129.947 59.4987 130.087 59.4987C130.37 59.4987 130.641 59.611 130.841 59.8109C131.041 60.0108 131.153 60.2819 131.153 60.5645C131.153 60.8472 131.041 61.1183 130.841 61.3182ZM130.423 76.7512L130.517 76.731V76.7262C130.885 76.6173 131.202 76.3785 131.409 76.0525C131.633 75.6997 131.708 75.2731 131.62 74.8648C131.532 74.4565 131.287 74.0993 130.938 73.8702C130.588 73.6412 130.163 73.5587 129.753 73.6406L129.753 73.6406L129.751 73.641C129.339 73.7301 128.979 73.9793 128.75 74.334C128.521 74.6886 128.443 75.1195 128.532 75.532C128.621 75.9444 128.871 76.3046 129.225 76.5333C129.401 76.6465 129.597 76.724 129.802 76.7614C130.008 76.7988 130.219 76.7954 130.423 76.7512ZM130.087 62.7175C130.37 62.7175 130.65 62.6618 130.911 62.5536C131.173 62.4454 131.41 62.2868 131.61 62.0869C131.81 61.8869 131.968 61.6496 132.077 61.3883C132.185 61.1271 132.24 60.8471 132.24 60.5643C132.24 60.2816 132.185 60.0016 132.077 59.7403C131.968 59.4791 131.81 59.2417 131.61 59.0418C131.41 58.8419 131.173 58.6833 130.911 58.575C130.65 58.4668 130.37 58.4111 130.087 58.4111C129.516 58.4111 128.969 58.638 128.565 59.0418C128.161 59.4456 127.934 59.9933 127.934 60.5643C127.934 61.1354 128.161 61.6831 128.565 62.0869C128.969 62.4907 129.516 62.7175 130.087 62.7175Z" fill="white" stroke="white" stroke-width="0.237282"/>
<path d="M-4.6594 253.707C-4.6594 252.821 -4.66443 251.936 -4.65509 251.049C-4.65509 250.843 -4.70681 250.734 -4.91511 250.655C-5.84025 250.304 -6.3373 249.599 -6.36244 248.629C-6.38471 247.734 -5.9638 247.028 -5.14711 246.629C-4.29667 246.214 -3.47281 246.317 -2.73442 246.916C-2.57712 247.045 -2.4744 247.056 -2.30345 246.955C-0.739759 246.049 0.821777 245.145 2.39481 244.259C2.6577 244.11 2.60023 243.923 2.58012 243.716C2.47453 242.613 3.07502 241.666 4.08348 241.345C5.65866 240.843 7.17567 242.156 6.92427 243.819C6.89051 244.042 6.93576 244.138 7.11677 244.242C8.69315 245.145 10.2667 246.055 11.8373 246.971C11.9996 247.065 12.1009 247.05 12.2431 246.932C12.9923 246.313 13.8276 246.214 14.6853 246.645C15.5213 247.067 15.9214 247.789 15.864 248.728C15.8058 249.686 15.2893 250.315 14.4123 250.682C14.3516 250.715 14.2992 250.761 14.2592 250.817C14.2192 250.874 14.1927 250.938 14.1818 251.006C14.1674 252.826 14.1767 254.645 14.166 256.465C14.166 256.719 14.3096 256.776 14.4928 256.852C15.4265 257.231 15.9214 258.055 15.8575 259.105C15.8065 259.977 15.1514 260.777 14.2572 261.011C13.5044 261.209 12.8055 261.067 12.2158 260.541C12.0528 260.398 11.9364 260.381 11.7475 260.49C10.209 261.388 8.66657 262.279 7.12036 263.164C6.93289 263.272 6.86322 263.369 6.90488 263.613C7.06577 264.513 6.79354 265.281 6.04294 265.822C5.29234 266.362 4.45411 266.41 3.64677 265.944C2.83942 265.477 2.47597 264.753 2.58012 263.835C2.62106 263.476 2.51979 263.31 2.21595 263.139C0.730556 262.303 -0.744069 261.442 -2.223 260.58C-2.43059 260.459 -2.56562 260.432 -2.78254 260.605C-3.50082 261.179 -4.31319 261.26 -5.13562 260.861C-5.95805 260.462 -6.36962 259.757 -6.3567 258.863C-6.34017 257.92 -5.86467 257.222 -4.98119 256.859C-4.72477 256.753 -4.65078 256.629 -4.65581 256.364C-4.66946 255.479 -4.6594 254.596 -4.6594 253.707ZM4.74142 258.403C6.82443 258.403 8.90743 258.397 10.9904 258.409C11.3352 258.409 11.588 258.374 11.675 257.978C11.7172 257.814 11.8066 257.667 11.9321 257.553C12.1641 257.346 12.1088 257.173 11.9723 256.937C9.88501 253.336 7.80584 249.731 5.7348 246.121C5.5107 245.727 5.29665 245.505 4.82977 245.634C4.71167 245.658 4.58926 245.652 4.47422 245.616C4.18691 245.54 4.05259 245.662 3.91325 245.903C1.83455 249.522 -0.252048 253.137 -2.34655 256.749C-2.54192 257.084 -2.69348 257.36 -2.32931 257.673C-2.22459 257.773 -2.15337 257.904 -2.12532 258.046C-2.05924 258.365 -1.86243 258.41 -1.57799 258.405C0.528001 258.398 2.63184 258.403 4.74142 258.403ZM-1.98238 259.402L-2.00608 259.511C-1.95637 259.558 -1.9028 259.601 -1.84591 259.64C-0.252048 260.558 1.3454 261.476 2.93495 262.403C3.12386 262.514 3.22226 262.453 3.37023 262.339C4.22426 261.666 5.35555 261.673 6.17151 262.371C6.36545 262.536 6.49258 262.53 6.69801 262.409C8.21789 261.523 9.74279 260.648 11.2627 259.768C11.3697 259.706 11.4667 259.628 11.5687 259.558C11.5586 259.506 11.5493 259.453 11.5399 259.401L-1.98238 259.402ZM-3.61718 256.74L-3.51303 256.767L3.27829 245.002C3.1253 245.027 3.07502 245.022 3.03838 245.043C1.39927 245.985 -0.241274 246.926 -1.86961 247.88C-1.94647 247.924 -1.99962 248.095 -1.98525 248.195C-1.82867 249.285 -2.34439 250.229 -3.37009 250.637C-3.60353 250.731 -3.66315 250.861 -3.66243 251.091C-3.65597 252.863 -3.66243 254.635 -3.65669 256.406C-3.65042 256.518 -3.63722 256.63 -3.61718 256.74ZM6.35898 244.989L6.27782 245.074L13.0296 256.765C13.1338 256.681 13.1539 256.638 13.1539 256.595C13.1539 254.716 13.1589 252.836 13.1481 250.956C13.1379 250.898 13.1146 250.844 13.08 250.796C13.0454 250.749 13.0004 250.71 12.9485 250.682C11.8473 250.18 11.3884 249.433 11.5119 248.232C11.5378 247.982 11.4401 247.893 11.2627 247.791C9.73034 246.91 8.19802 246.026 6.66569 245.139C6.56657 245.082 6.46098 245.038 6.35898 244.989Z" fill="white"/>
<path d="M244.076 403.563C244.499 403.312 244.971 403.411 245.413 403.411C247.008 403.411 248.608 403.312 250.196 403.468C250.129 404.127 250.348 404.76 250.348 405.422C250.325 412.833 250.339 420.243 250.331 427.654C250.331 429.798 250.415 431.944 250.199 434.083C248.342 434.235 246.483 434.153 244.625 434.119C244.543 434.119 244.464 434.03 244.382 433.981C244.382 433.829 244.4 433.677 244.253 433.586C244.253 423.951 244.253 414.313 244.253 404.67C244.279 404.292 244.218 403.914 244.076 403.563Z" fill="#101014"/>
<path d="M250.197 434.086C250.413 431.947 250.327 429.801 250.329 427.657C250.336 420.246 250.329 412.836 250.346 405.425C250.346 404.763 250.13 404.13 250.193 403.472C251.734 403.966 253.084 404.851 254.543 405.53C254.786 405.642 254.733 405.918 254.733 406.138C254.733 407.019 254.733 407.901 254.733 408.782V428.725C254.733 429.612 254.733 430.498 254.722 431.384C254.722 431.632 254.784 431.926 254.495 432.057C253.064 432.716 251.724 433.612 250.197 434.086Z" fill="white"/>
<path d="M244.076 403.563C244.22 403.915 244.281 404.294 244.256 404.673C244.256 414.308 244.256 423.946 244.256 433.589C244.297 433.721 244.336 433.852 244.377 433.983C244.105 434.115 243.891 433.946 243.67 433.831C242.543 433.274 241.423 432.694 240.285 432.157C239.951 432.005 239.861 431.795 239.862 431.455C239.87 430.542 239.849 429.641 239.84 428.735C239.84 427.192 239.847 425.65 239.84 424.107C239.834 418.999 239.826 413.891 239.818 408.782C239.833 407.905 239.847 407.028 239.862 406.151C239.862 405.88 239.818 405.609 240.155 405.451C241.467 404.838 242.77 404.197 244.076 403.563Z" fill="white"/>
<path d="M239.817 408.791C239.825 413.899 239.832 419.008 239.838 424.116C239.838 425.658 239.838 427.201 239.838 428.743C238.641 429.019 237.442 429.288 236.248 429.571C236.034 429.644 235.807 429.668 235.582 429.641C235.582 423.094 235.582 416.545 235.582 409.996C235.582 409.289 235.605 408.581 235.615 407.866C237.052 407.986 238.399 408.545 239.817 408.791Z" fill="#101014"/>
<path d="M254.744 428.728V408.785C256.197 408.537 257.583 407.982 259.06 407.848C259.043 408.175 259.014 408.502 259.014 408.829C259.014 415.77 259.014 422.712 259.014 429.656C257.735 429.519 256.529 429.058 255.272 428.819C255.091 428.787 254.918 428.758 254.744 428.728Z" fill="#101014"/>
<path d="M235.605 407.874C235.594 408.581 235.572 409.288 235.572 410.003C235.572 416.552 235.572 423.1 235.572 429.648C234.811 429.507 234.216 429.017 233.527 428.725C233.243 428.606 233.305 428.358 233.305 428.141C233.305 421.875 233.305 415.609 233.305 409.343C233.305 409.154 233.224 408.923 233.48 408.817C234.2 408.511 234.808 407.991 235.605 407.874Z" fill="white"/>
<path d="M259.006 429.656C259.006 422.713 259.006 415.771 259.006 408.829C259.006 408.502 259.035 408.175 259.051 407.848C259.747 408.026 260.319 408.471 260.976 408.733C261.28 408.852 261.28 409.089 261.28 409.355C261.28 415.608 261.28 421.862 261.28 428.116C261.28 428.372 261.3 428.629 260.994 428.752C260.319 429.023 259.735 429.504 259.006 429.656Z" fill="white"/>
<path d="M244.369 433.981C244.328 433.851 244.289 433.72 244.248 433.588C244.4 433.686 244.379 433.837 244.377 433.983L244.369 433.981Z" fill="white"/>
<defs>
<linearGradient id="paint0_linear_69_694" x1="214.31" y1="0" x2="214.31" y2="90.1672" gradientUnits="userSpaceOnUse">
<stop stop-color="#0E0F15"/>
<stop offset="1" stop-color="#0E0F15" stop-opacity="0"/>
</linearGradient>
</defs>
</svg>
