<svg width="1212" height="574" viewBox="0 0 1212 574" fill="none" xmlns="http://www.w3.org/2000/svg">
<path d="M772 2.99998C772 86.9478 703.947 155 619.998 155C536.05 155 468 86.9478 468 3" stroke="#3E3F44" stroke-miterlimit="10"/>
<path d="M844 2.99996C844 126.712 743.711 227 619.998 227C496.284 227 396 126.713 396 2.99999" stroke="#3E3F44" stroke-miterlimit="10"/>
<path d="M905 2.99993C905 160.402 777.401 288 619.997 288C462.593 288 335 160.402 335 2.99998" stroke="#3E3F44" stroke-miterlimit="10"/>
<path d="M905 2.99993C905 160.402 777.401 288 619.997 288C462.593 288 335 160.402 335 2.99998" stroke="#3E3F44" stroke-miterlimit="10"/>
<path d="M968 2.99994C968 195.196 812.195 351 619.996 351C427.798 351 272 195.196 272 3" stroke="#3E3F44" stroke-miterlimit="10"/>
<path d="M968 2.99994C968 195.196 812.195 351 619.996 351C427.798 351 272 195.196 272 3" stroke="#3E3F44" stroke-miterlimit="10"/>
<path d="M1046 2.99993C1046 238.275 855.273 429 619.996 429C384.719 429 194 238.275 194 3.00001" stroke="#3E3F44" stroke-miterlimit="10"/>
<path d="M1046 2.99993C1046 238.275 855.273 429 619.996 429C384.719 429 194 238.275 194 3.00001" stroke="#3E3F44" stroke-miterlimit="10"/>
<path d="M1145 2.99989C1145 292.951 909.949 528 619.995 528C330.04 528 95 292.951 95 2.99998" stroke="#3E3F44" stroke-miterlimit="10"/>
<circle cx="1069" cy="266" r="44.5" fill="#0E0F15" stroke="#3E3F44"/>
<circle cx="946" cy="117" r="32.5" fill="#0E0F15" stroke="#3E3F44"/>
<circle cx="216" cy="341" r="32.5" fill="#0E0F15" stroke="#3E3F44"/>
<circle cx="856" cy="354" r="32.5" fill="#0E0F15" stroke="#3E3F44"/>
<circle cx="542" cy="420" r="32.5" fill="#0E0F15" stroke="#3E3F44"/>
<circle cx="455" cy="233" r="32.5" fill="#0E0F15" stroke="#3E3F44"/>
<path d="M535.5 93.5C535.5 112.823 519.613 128.5 500 128.5C480.387 128.5 464.5 112.823 464.5 93.5C464.5 74.1766 480.387 58.5 500 58.5C519.613 58.5 535.5 74.1766 535.5 93.5Z" fill="#0E0F15" stroke="#3E3F44"/>
<circle cx="282" cy="81" r="32.5" fill="#0E0F15" stroke="#3E3F44"/>
<circle cx="249" cy="211" r="43.5" fill="#0E0F15" stroke="#3E3F44"/>
<circle cx="107" cy="117" r="32.5" fill="#0E0F15" stroke="#3E3F44"/>
<circle cx="365" cy="453" r="56.5" fill="#0E0F15" stroke="#3E3F44"/>
<circle cx="820" cy="483" r="32.5" fill="#0E0F15" stroke="#3E3F44"/>
<circle cx="648" cy="526" r="47.5" fill="#0E0F15" stroke="#3E3F44"/>
<circle cx="697.5" cy="347.5" r="48" fill="#ED0161" stroke="#3E3F44"/>
<circle cx="865" cy="246" r="32.5" fill="#0E0F15" stroke="#3E3F44"/>
<circle cx="1130" cy="122" r="32.5" fill="#0E0F15" stroke="#3E3F44"/>
<circle cx="970" cy="390" r="32.5" fill="#0E0F15" stroke="#3E3F44"/>
<circle cx="633.5" cy="226.5" r="32" fill="#0E0F15" stroke="#3E3F44"/>
<circle cx="798.5" cy="132.5" r="32" fill="#0E0F15" stroke="#3E3F44"/>
<circle cx="341" cy="321" r="32.5" fill="#0E0F15" stroke="#3E3F44"/>
<rect width="1212" height="114" fill="url(#paint0_linear_42_1565)"/>
<path d="M685.781 346.164C685.763 346.723 685.837 347.282 685.986 347.822C686.154 348.287 686.359 348.734 686.582 349.163C686.657 349.293 686.713 349.442 686.713 349.591C686.694 349.815 686.564 350.038 686.359 350.15L685.185 350.932C685.036 351.025 684.869 351.1 684.701 351.1C684.496 351.081 684.291 350.988 684.142 350.839C683.9 350.578 683.658 350.28 683.472 349.964C683.286 349.647 683.099 349.293 682.894 348.865C681.442 350.578 679.616 351.435 677.419 351.435C675.854 351.435 674.606 350.988 673.694 350.094C672.781 349.2 672.315 348.008 672.315 346.518C672.315 344.935 672.874 343.65 674.01 342.681C675.146 341.713 676.655 341.229 678.573 341.229C679.225 341.229 679.896 341.284 680.548 341.378C681.237 341.471 681.945 341.62 682.69 341.787V340.428C682.69 339.012 682.392 338.025 681.814 337.448C681.237 336.87 680.212 336.591 678.778 336.591C678.108 336.591 677.419 336.665 676.767 336.833C676.078 337.001 675.407 337.206 674.755 337.466C674.55 337.559 674.327 337.634 674.103 337.708C674.01 337.746 673.899 337.764 673.805 337.764C673.545 337.764 673.414 337.578 673.414 337.187V336.274C673.396 336.051 673.452 335.827 673.545 335.622C673.694 335.455 673.861 335.324 674.066 335.231C674.811 334.859 675.593 334.579 676.413 334.393C677.363 334.151 678.35 334.039 679.318 334.039C681.535 334.039 683.155 334.542 684.198 335.548C685.241 336.554 685.744 338.081 685.744 340.13V346.164H685.781ZM678.22 348.995C678.871 348.995 679.523 348.883 680.138 348.66C680.827 348.418 681.423 348.008 681.907 347.468C682.205 347.133 682.429 346.723 682.541 346.276C682.671 345.754 682.727 345.196 682.727 344.656V343.873C682.168 343.743 681.591 343.631 681.013 343.557C680.436 343.482 679.84 343.445 679.263 343.445C678.015 343.445 677.102 343.687 676.487 344.19C675.873 344.693 675.575 345.401 675.575 346.332C675.575 347.207 675.798 347.859 676.264 348.306C676.73 348.753 677.363 348.995 678.22 348.995ZM693.175 351.007C692.933 351.025 692.673 350.969 692.468 350.82C692.281 350.616 692.132 350.373 692.077 350.094L687.7 335.697C687.607 335.455 687.551 335.213 687.532 334.952C687.513 334.728 687.662 334.524 687.886 334.486H689.823C690.177 334.486 690.419 334.542 690.549 334.673C690.68 334.803 690.81 335.045 690.922 335.399L694.032 347.729L696.938 335.399C697.031 335.026 697.143 334.784 697.292 334.673C697.515 334.542 697.776 334.468 698.037 334.486H699.527C699.88 334.486 700.123 334.542 700.272 334.673C700.458 334.877 700.588 335.12 700.625 335.399L703.568 347.878L706.79 335.399C706.846 335.12 706.977 334.877 707.163 334.673C707.386 334.542 707.628 334.468 707.889 334.486H709.621C709.845 334.449 710.05 334.617 710.087 334.84V334.952C710.087 335.045 710.068 335.157 710.05 335.25C710.012 335.418 709.975 335.567 709.919 335.716L705.431 350.113C705.319 350.485 705.189 350.727 705.04 350.839C704.835 350.969 704.574 351.044 704.332 351.025H702.73C702.376 351.025 702.134 350.969 701.985 350.839C701.799 350.634 701.668 350.373 701.631 350.094L698.744 338.081L695.876 350.075C695.839 350.355 695.708 350.616 695.522 350.82C695.299 350.969 695.038 351.025 694.777 351.007H693.175ZM717.109 351.51C716.14 351.51 715.172 351.398 714.24 351.174C713.309 350.951 712.583 350.709 712.098 350.429C711.856 350.318 711.651 350.131 711.521 349.908C711.447 349.74 711.409 349.573 711.409 349.386V348.436C711.409 348.045 711.558 347.859 711.838 347.859C711.949 347.859 712.061 347.878 712.173 347.915C712.285 347.952 712.452 348.027 712.639 348.101C713.29 348.399 713.98 348.604 714.687 348.753C715.414 348.902 716.159 348.977 716.904 348.977C718.077 348.977 718.99 348.772 719.623 348.362C720.238 347.989 720.61 347.319 720.591 346.593C720.61 346.108 720.424 345.643 720.089 345.289C719.753 344.935 719.12 344.618 718.207 344.32L715.507 343.482C714.147 343.054 713.141 342.421 712.527 341.582C711.931 340.8 711.596 339.869 711.596 338.882C711.577 338.155 711.745 337.448 712.098 336.814C712.434 336.218 712.881 335.697 713.439 335.287C714.017 334.84 714.669 334.524 715.376 334.319C716.14 334.095 716.922 333.983 717.723 334.002C718.133 334.002 718.561 334.021 718.971 334.077C719.399 334.132 719.791 334.207 720.182 334.281C720.573 334.356 720.908 334.468 721.243 334.579C721.523 334.673 721.783 334.784 722.026 334.915C722.249 335.026 722.435 335.175 722.584 335.38C722.715 335.567 722.771 335.771 722.752 335.995V336.87C722.752 337.261 722.603 337.466 722.324 337.466C722.081 337.429 721.839 337.355 721.616 337.243C720.498 336.74 719.269 336.498 718.04 336.516C716.978 336.516 716.14 336.684 715.563 337.038C714.985 337.392 714.687 337.932 714.687 338.696C714.669 339.198 714.874 339.683 715.246 340.018C715.619 340.372 716.308 340.726 717.295 341.042L719.94 341.88C721.281 342.309 722.249 342.905 722.826 343.668C723.404 344.413 723.702 345.345 723.683 346.276C723.702 347.021 723.534 347.766 723.199 348.436C722.864 349.07 722.398 349.628 721.839 350.075C721.225 350.56 720.517 350.914 719.772 351.118C718.915 351.379 718.021 351.51 717.109 351.51Z" fill="white"/>
<path d="M720.629 360.562C714.501 365.087 705.598 367.49 697.943 367.49C687.215 367.49 677.549 363.523 670.248 356.93C669.671 356.408 670.192 355.7 670.881 356.11C678.778 360.692 688.519 363.467 698.595 363.467C705.859 363.43 713.048 361.958 719.735 359.146C720.759 358.68 721.634 359.817 720.629 360.562Z" fill="white"/>
<path d="M723.18 357.656C722.398 356.65 718.003 357.172 716.01 357.414C715.414 357.488 715.321 356.967 715.861 356.576C719.362 354.117 725.117 354.825 725.788 355.644C726.458 356.464 725.602 362.238 722.324 364.994C721.821 365.423 721.337 365.199 721.56 364.64C722.305 362.796 723.963 358.643 723.18 357.656Z" fill="white"/>
<path d="M1074.92 255.751H1076.26L1080.09 251.926L1080.27 250.302C1078.08 248.368 1075.44 247.025 1072.58 246.399C1069.73 245.773 1066.76 245.885 1063.96 246.725C1061.16 247.564 1058.62 249.103 1056.58 251.197C1054.54 253.291 1053.07 255.869 1052.31 258.69C1052.73 258.515 1053.21 258.487 1053.65 258.609L1061.3 257.348C1061.3 257.348 1061.69 256.704 1061.89 256.744C1063.53 254.944 1065.79 253.838 1068.22 253.654C1070.65 253.469 1073.05 254.219 1074.95 255.751H1074.92Z" fill="white"/>
<path d="M1085.54 258.69C1084.66 255.453 1082.85 252.542 1080.34 250.316L1074.97 255.684C1076.09 256.598 1076.99 257.754 1077.6 259.065C1078.2 260.377 1078.5 261.808 1078.48 263.253V264.206C1079.1 264.206 1079.72 264.329 1080.3 264.569C1080.88 264.809 1081.41 265.161 1081.85 265.605C1082.3 266.049 1082.65 266.575 1082.89 267.155C1083.13 267.734 1083.25 268.356 1083.25 268.983C1083.25 269.611 1083.13 270.232 1082.89 270.811C1082.65 271.391 1082.3 271.918 1081.85 272.361C1081.41 272.805 1080.88 273.157 1080.3 273.397C1079.72 273.637 1079.1 273.761 1078.48 273.761H1068.92L1067.97 274.727V280.457L1068.92 281.41H1078.48C1081.14 281.431 1083.75 280.592 1085.9 279.018C1088.06 277.444 1089.65 275.219 1090.44 272.671C1091.23 270.122 1091.18 267.387 1090.3 264.869C1089.42 262.352 1087.75 260.185 1085.54 258.69Z" fill="white"/>
<path d="M1059.35 256.543C1056.76 256.558 1054.24 257.382 1052.15 258.899C1050.05 260.415 1048.48 262.55 1047.65 265.003C1046.82 267.457 1046.78 270.107 1047.54 272.584C1048.29 275.061 1049.8 277.241 1051.85 278.82L1057.39 273.277C1056.69 272.959 1056.07 272.475 1055.6 271.866C1055.12 271.257 1054.8 270.542 1054.66 269.781C1054.52 269.021 1054.57 268.238 1054.8 267.501C1055.03 266.763 1055.44 266.092 1055.98 265.545C1056.53 264.999 1057.2 264.593 1057.94 264.363C1058.68 264.133 1059.46 264.085 1060.22 264.224C1060.98 264.362 1061.69 264.684 1062.3 265.16C1062.91 265.636 1063.4 266.252 1063.71 266.956L1069.26 261.414C1068.09 259.893 1066.59 258.662 1064.88 257.817C1063.16 256.972 1061.27 256.536 1059.35 256.543Z" fill="white"/>
<path d="M1124.97 109.003C1125.17 109.141 1125.33 109.33 1125.43 109.549C1126.43 111.421 1127.44 113.29 1128.45 115.157C1128.49 115.241 1128.54 115.32 1128.63 115.462C1128.84 115.071 1129.02 114.725 1129.2 114.379C1129.43 113.958 1129.65 113.545 1129.86 113.123C1129.99 112.87 1130.16 112.664 1130.46 112.658C1130.79 112.652 1130.95 112.874 1131.09 113.135C1131.8 114.504 1132.53 115.854 1133.23 117.23C1133.4 117.562 1133.5 117.52 1133.73 117.29C1134.6 116.395 1135.49 115.518 1136.38 114.633C1136.88 114.127 1137.35 114.23 1137.49 114.921C1137.73 116.12 1137.91 117.33 1138.11 118.538C1138.68 122.054 1139.25 125.569 1139.82 129.082C1139.97 129.999 1139.98 129.995 1139.18 130.44C1136.64 131.847 1134.1 133.244 1131.57 134.668C1130.81 135.096 1130.1 135.12 1129.34 134.684C1126.65 133.166 1123.96 131.665 1121.26 130.164C1121.05 130.046 1120.97 129.948 1121.01 129.668C1121.81 124.645 1122.6 119.618 1123.38 114.588C1123.63 112.96 1123.9 111.335 1124.15 109.706C1124.18 109.43 1124.31 109.176 1124.53 109L1124.97 109.003Z" fill="white"/>
<path d="M885.228 258.718H856.888L856.878 258.663L873.974 255.64C874.006 255.465 873.861 255.392 873.78 255.29C870.926 251.886 868.071 248.486 865.216 245.088C865.068 244.913 865.018 244.769 865.103 244.537C866.609 240.417 868.11 236.294 869.606 232.17C869.629 232.105 869.663 232.044 869.729 231.898L885.228 258.718Z" fill="white"/>
<path d="M868.327 230C868.356 230.191 868.258 230.301 868.202 230.421C864.352 238.68 860.502 246.938 856.653 255.196C856.524 255.475 856.375 255.572 856.064 255.57C853.479 255.556 850.894 255.554 848.308 255.565C847.981 255.565 847.922 255.511 848.095 255.215C851.155 249.924 854.21 244.63 857.258 239.335C857.333 239.202 857.431 239.083 857.548 238.985C861.094 236.017 864.639 233.049 868.182 230.08C868.228 230.049 868.277 230.023 868.327 230Z" fill="white"/>
<path d="M950.228 388.979H950.792C950.807 389.025 950.818 389.073 950.823 389.121C950.829 389.436 950.865 389.731 951.236 389.834C951.591 389.932 952.017 389.813 952.191 389.486C952.376 389.146 952.512 388.782 952.594 388.403C953.039 386.222 953.459 384.032 953.887 381.846C953.901 381.771 953.907 381.7 953.921 381.589H952.888L952.979 381H956.859C956.923 381.526 956.871 381.617 956.394 381.574C955.958 381.534 955.832 381.709 955.758 382.109C955.4 384.053 955.006 385.992 954.63 387.934C954.254 389.889 953.034 390.773 951.056 390.422C949.71 390.183 949.923 390.305 950.228 388.979Z" fill="white"/>
<path d="M973.977 387.666L974.541 387.706C974.586 388.261 974.553 388.3 974.022 388.3C973.492 388.3 972.97 388.3 972.443 388.294C972.397 388.288 972.352 388.277 972.308 388.261L972.363 387.735C971.933 388.218 971.461 388.451 970.877 388.446C969.847 388.437 969.236 387.844 969.222 386.816C969.196 384.986 970.801 383.131 972.618 382.951C973.22 382.892 973.838 382.98 974.447 383.026C974.748 383.046 974.828 383.221 974.766 383.524C974.502 384.811 974.26 386.103 974.014 387.393C973.998 387.472 973.991 387.557 973.977 387.666ZM970.792 386.853C970.879 387.179 970.885 387.484 971.239 387.62C971.557 387.742 971.987 387.663 972.179 387.352C972.396 387.005 972.56 386.628 972.666 386.232C972.841 385.555 972.95 384.863 973.082 384.177C973.162 383.762 973.007 383.605 972.596 383.712C972.004 383.862 971.543 384.239 971.341 384.802C971.1 385.464 970.971 386.167 970.792 386.853Z" fill="white"/>
<path d="M961.392 387.666L961.994 387.708C962.004 388.292 961.998 388.299 961.481 388.299C960.942 388.299 960.404 388.295 959.865 388.292C959.829 388.285 959.794 388.275 959.761 388.262C959.769 388.126 959.778 387.984 959.789 387.789L959.523 388.01C958.909 388.523 958.216 388.577 957.512 388.279C956.835 387.991 956.654 387.382 956.664 386.7C956.692 384.946 958.249 383.158 959.995 382.96C960.608 382.891 961.24 382.98 961.863 383.019C962.17 383.039 962.273 383.203 962.204 383.534C961.919 384.891 961.665 386.257 961.392 387.666ZM958.244 386.788C958.293 387.314 958.4 387.534 958.715 387.633C958.903 387.691 959.104 387.683 959.286 387.609C959.468 387.535 959.619 387.401 959.713 387.229C959.89 386.901 960.024 386.551 960.112 386.188C960.271 385.533 960.383 384.867 960.511 384.205C960.598 383.754 960.435 383.585 959.984 383.72C959.389 383.9 958.938 384.292 958.737 384.874C958.524 385.496 958.405 386.15 958.244 386.788Z" fill="white"/>
<path d="M963.28 383.666C963.335 383.05 963.335 383.049 963.853 383.049H965.523C965.661 383.72 965.792 384.356 965.924 384.993C966.055 385.629 966.189 386.264 966.34 386.997C967.307 386.036 967.963 384.987 968.296 383.692L967.805 383.631C967.756 383.092 967.793 383.049 968.315 383.049C968.503 383.049 968.69 383.052 968.878 383.058C968.937 383.07 968.996 383.088 969.052 383.111C968.994 383.444 968.976 383.795 968.873 384.12C968.378 385.679 967.48 386.998 966.361 388.17C966.242 388.295 965.98 388.327 965.783 388.33C964.805 388.347 964.805 388.338 964.602 387.377C964.389 386.347 964.171 385.318 963.964 384.287C963.889 383.914 963.886 383.493 963.28 383.666Z" fill="white"/>
<path d="M979.932 397.34C979.768 398.16 979.605 398.915 979.471 399.671C979.427 399.915 979.341 400.013 979.086 400.002C978.625 399.983 978.162 399.997 977.639 399.997C978.079 397.741 978.512 395.524 978.952 393.269L978.291 393.233C978.21 392.716 978.268 392.643 978.75 392.643H980.815C980.797 392.834 980.782 392.989 980.762 393.213C981.35 392.585 982.04 392.418 982.817 392.527C983.618 392.638 984.215 393.142 984.321 393.935C984.497 395.277 984.155 396.477 983.117 397.404C982.511 397.945 981.772 398.104 980.978 398.015C980.541 397.969 980.339 397.832 979.932 397.34ZM982.535 394.238C982.433 393.862 982.444 393.497 982.034 393.332C981.649 393.182 981.172 393.324 980.889 393.674C980.857 393.712 980.828 393.753 980.804 393.796C980.363 394.684 980.16 395.671 980.216 396.66C980.237 397.051 980.503 397.253 980.9 397.262C981.416 397.275 981.782 397.011 981.928 396.544C982.165 395.787 982.336 395.009 982.535 394.238Z" fill="white"/>
<path d="M955.106 395.798H955.698C955.715 395.869 955.736 395.927 955.744 395.987C955.873 396.942 956.302 397.367 957.259 397.416C957.634 397.434 958.009 397.405 958.375 397.329C958.574 397.291 958.76 397.206 958.918 397.079C959.075 396.952 959.199 396.789 959.278 396.603C959.558 395.981 959.397 395.55 958.757 395.325C958.333 395.174 957.892 395.073 957.459 394.948L957.241 394.89C955.378 394.39 954.927 392.76 956.258 391.333C956.542 391.02 956.891 390.774 957.281 390.61C957.671 390.447 958.092 390.371 958.514 390.388C959.445 390.416 960.371 390.603 961.296 390.723C961.501 390.748 961.563 390.854 961.514 391.062C961.424 391.426 961.353 391.795 961.301 392.167C961.263 392.461 961.075 392.439 960.87 392.448C960.644 392.457 960.606 392.343 960.58 392.155C960.486 391.463 960.173 391.102 959.478 391.033C958.983 390.992 958.485 391.017 957.996 391.108C957.591 391.178 957.327 391.484 957.217 391.894C957.077 392.411 957.209 392.73 957.714 392.908C958.29 393.112 958.884 393.276 959.478 393.426C960.862 393.775 961.526 394.524 960.893 396.301C960.612 397.089 959.998 397.564 959.217 397.798C957.784 398.227 956.366 398.064 954.97 397.603C954.89 397.576 954.787 397.422 954.799 397.345C954.889 396.835 954.999 396.322 955.106 395.798Z" fill="white"/>
<path d="M976.697 392.614L975.795 397.263L976.537 397.305C976.498 397.502 976.462 397.67 976.426 397.862H973.915C974.216 396.321 974.505 394.802 974.806 393.248H974.053C974.01 393.414 973.976 393.582 973.951 393.752C973.912 394.119 973.762 394.312 973.35 394.159C973.35 394.159 973.32 394.139 973.317 394.118C973.207 393.374 972.699 393.14 972.033 393.543C971.493 393.87 971.239 394.404 971.108 394.991C970.917 395.845 970.743 396.706 970.597 397.569C970.544 397.889 970.415 397.98 970.107 397.962C969.673 397.937 969.237 397.956 968.753 397.956C969.054 396.381 969.349 394.861 969.649 393.305L968.917 393.255C968.892 392.691 968.905 392.676 969.409 392.675H971.515C971.478 392.935 971.447 393.162 971.414 393.393C971.454 393.393 971.49 393.399 971.499 393.387C972.161 392.607 973.003 392.468 973.981 392.584C974.697 392.669 975.431 392.608 976.157 392.612L976.697 392.614Z" fill="white"/>
<path d="M987.889 391.056C987.796 391.566 987.703 392.077 987.602 392.635H988.966C989.053 393.177 988.996 393.248 988.507 393.25C987.47 393.25 987.47 393.25 987.275 394.279C987.117 395.106 986.948 395.925 986.803 396.75C986.759 397.001 986.615 397.318 987.001 397.451C987.302 397.555 987.629 397.376 987.802 397.047C988.062 396.547 988.079 396.539 988.643 396.652C988.568 397.319 988.172 397.839 987.524 397.93C986.956 398.007 986.38 398.015 985.811 397.952C985.213 397.89 984.955 397.572 985.031 396.974C985.145 396.072 985.344 395.175 985.508 394.278C985.566 393.959 985.629 393.643 985.698 393.281L984.988 393.223C985.018 392.659 985.018 392.645 985.523 392.65C985.762 392.65 985.856 392.57 985.889 392.342C985.938 391.995 986.023 391.654 986.078 391.308C986.112 391.091 986.19 390.977 986.439 390.99C986.876 391.013 987.315 391 987.753 391.005C987.8 391.016 987.846 391.033 987.889 391.056Z" fill="white"/>
<path d="M968.01 392.941C967.93 393.354 967.86 393.758 967.774 394.16C967.699 394.522 967.426 394.32 967.218 394.366C967.203 394.313 967.191 394.258 967.183 394.203C967.156 393.768 967.119 393.32 966.628 393.15C966.082 392.962 965.55 393.038 965.13 393.451C964.929 393.64 964.78 393.878 964.699 394.142C964.517 394.865 964.323 395.599 964.269 396.338C964.197 397.341 965.026 397.811 965.906 397.303C966.156 397.142 966.366 396.924 966.519 396.668C966.81 396.209 966.875 396.16 967.5 396.311C967.15 397.173 966.567 397.783 965.647 397.937C965.081 398.029 964.503 398.029 963.937 397.937C962.792 397.746 962.19 396.83 962.339 395.649C962.628 393.357 964.35 392.146 966.735 392.57C967.091 392.633 967.439 392.742 967.788 392.835C967.865 392.864 967.939 392.9 968.01 392.941Z" fill="white"/>
<path d="M976.983 390.955C976.983 391.545 976.447 392.083 975.849 392.083C975.383 392.083 975.046 391.765 975.046 391.32C975.046 390.732 975.586 390.201 976.188 390.192C976.664 390.193 976.981 390.495 976.983 390.955Z" fill="white"/>
<path d="M332.731 447.907H328.265V461.743H326.44V447.907H322V446.272H332.731V447.907ZM341.148 450.685L336.054 463.513C335.156 465.801 333.875 466.945 332.241 466.945C331.778 466.945 331.397 466.891 331.097 466.809V465.229C331.479 465.366 331.833 465.42 332.132 465.42C333.031 465.42 333.685 464.875 334.148 463.813L335.019 461.716L330.716 450.685H332.677L335.673 459.183C335.7 459.292 335.782 459.564 335.891 460.027H335.945C335.973 459.864 336.054 459.591 336.163 459.21L339.296 450.685H341.148ZM344.035 460.136H343.98V466.809H342.21V450.685H343.98V452.619H344.035C344.906 451.148 346.187 450.412 347.848 450.412C349.264 450.412 350.381 450.903 351.171 451.883C351.961 452.864 352.369 454.198 352.369 455.86C352.369 457.712 351.906 459.183 351.008 460.3C350.109 461.416 348.883 461.961 347.331 461.961C345.941 462.015 344.825 461.389 344.035 460.136ZM344.008 455.696V457.249C344.008 458.175 344.307 458.938 344.906 459.564C345.506 460.191 346.241 460.517 347.167 460.517C348.229 460.517 349.074 460.109 349.7 459.292C350.299 458.475 350.599 457.331 350.599 455.86C350.599 454.634 350.327 453.654 349.755 452.973C349.183 452.265 348.42 451.938 347.44 451.938C346.404 451.938 345.587 452.292 344.961 453C344.307 453.708 344.008 454.607 344.008 455.696ZM363.21 456.65H355.42C355.447 457.875 355.774 458.829 356.401 459.51C357.027 460.191 357.899 460.517 359.015 460.517C360.268 460.517 361.412 460.109 362.447 459.292V460.953C361.467 461.661 360.187 462.015 358.607 462.015C357.054 462.015 355.829 461.525 354.93 460.517C354.031 459.51 353.595 458.093 353.595 456.296C353.595 454.58 354.085 453.163 355.066 452.101C356.046 451.012 357.245 450.467 358.688 450.467C360.132 450.467 361.249 450.93 362.039 451.883C362.829 452.809 363.237 454.117 363.237 455.778L363.21 456.65ZM361.385 455.152C361.385 454.117 361.14 453.327 360.65 452.755C360.159 452.183 359.478 451.91 358.634 451.91C357.79 451.91 357.081 452.21 356.509 452.809C355.938 453.409 355.556 454.198 355.42 455.152H361.385ZM364.081 461.198V459.973C365.198 460.681 366.315 461.035 367.459 461.035C368.657 461.035 369.583 460.79 370.21 460.272C370.836 459.755 371.136 459.074 371.136 458.175C371.136 457.385 370.918 456.759 370.509 456.268C370.101 455.805 369.175 455.152 367.786 454.335C366.206 453.409 365.225 452.646 364.817 452.047C364.408 451.42 364.19 450.712 364.19 449.922C364.19 448.833 364.626 447.907 365.471 447.144C366.315 446.381 367.459 446 368.875 446C369.801 446 370.727 446.163 371.626 446.463V447.58C370.727 447.171 369.747 446.953 368.712 446.953C367.649 446.953 366.832 447.226 366.206 447.743C365.579 448.288 365.28 448.942 365.28 449.759C365.28 450.549 365.498 451.175 365.906 451.638C366.315 452.101 367.241 452.755 368.63 453.545C370.074 454.362 371.027 455.097 371.517 455.724C372.007 456.35 372.225 457.086 372.225 457.93C372.225 459.128 371.817 460.082 371 460.844C370.183 461.607 369.011 461.961 367.513 461.961C366.969 461.961 366.369 461.879 365.661 461.716C364.953 461.552 364.436 461.416 364.081 461.198ZM381.431 461.253C380.614 461.743 379.634 462.015 378.49 462.015C376.992 462.015 375.766 461.498 374.84 460.463C373.914 459.428 373.451 458.093 373.451 456.405C373.451 454.661 373.969 453.218 375.004 452.101C376.039 450.984 377.373 450.412 379.007 450.412C379.852 450.412 380.669 450.576 381.459 450.93V452.047C380.669 451.556 379.797 451.311 378.871 451.311C377.564 451.311 376.529 451.774 375.712 452.7C374.895 453.626 374.513 454.852 374.513 456.323C374.513 457.766 374.895 458.91 375.63 459.782C376.365 460.654 377.346 461.089 378.544 461.089C379.661 461.089 380.614 460.79 381.431 460.218V461.253ZM388.023 451.72C387.696 451.475 387.315 451.366 386.852 451.366C385.98 451.366 385.245 451.829 384.673 452.728C384.073 453.626 383.801 454.907 383.801 456.568V461.77H382.821V450.685H383.801V453.136H383.856C384.101 452.292 384.509 451.638 385.054 451.175C385.599 450.712 386.225 450.467 386.961 450.467C387.369 450.467 387.751 450.521 388.05 450.658V451.72H388.023ZM389.603 447.907C389.385 447.907 389.194 447.825 389.031 447.661C388.867 447.498 388.786 447.307 388.786 447.062C388.786 446.817 388.867 446.626 389.031 446.49C389.194 446.354 389.385 446.272 389.603 446.272C389.821 446.272 390.011 446.354 390.202 446.49C390.365 446.626 390.447 446.817 390.447 447.062C390.447 447.28 390.365 447.498 390.202 447.661C390.011 447.825 389.821 447.907 389.603 447.907ZM389.112 461.743V450.685H390.093V461.743H389.112ZM393.498 459.782H393.443V466.836H392.463V450.685H393.443V452.973H393.498C393.906 452.156 394.451 451.529 395.186 451.093C395.922 450.658 396.739 450.44 397.61 450.44C399.027 450.44 400.116 450.93 400.906 451.883C401.696 452.864 402.077 454.171 402.077 455.833C402.077 457.685 401.614 459.183 400.715 460.327C399.817 461.471 398.618 462.043 397.147 462.043C395.513 462.015 394.287 461.28 393.498 459.782ZM393.443 455.669V457.058C393.443 458.175 393.797 459.128 394.478 459.918C395.186 460.708 396.085 461.117 397.229 461.117C398.346 461.117 399.272 460.626 399.98 459.673C400.688 458.693 401.042 457.44 401.042 455.86C401.042 454.471 400.715 453.381 400.062 452.564C399.408 451.747 398.564 451.338 397.474 451.338C396.194 451.338 395.186 451.774 394.478 452.646C393.77 453.517 393.443 454.498 393.443 455.669ZM408.097 461.58C407.579 461.825 407.089 461.934 406.653 461.934C405.019 461.934 404.202 460.953 404.202 458.992V451.611H402.213V450.712H404.202V447.825L404.692 447.661L405.182 447.498V450.712H408.097V451.611H405.182V458.91C405.182 459.673 405.291 460.218 405.536 460.572C405.782 460.926 406.19 461.089 406.762 461.089C407.171 461.089 407.606 460.953 408.097 460.681V461.58Z" fill="white"/>
<path d="M825.883 490.637C823.938 490.637 821.992 490.644 820.048 490.63C819.67 490.63 819.47 490.672 819.467 491.135C819.465 491.599 819.626 491.698 820.06 491.694C822.325 491.671 824.592 491.694 826.857 491.666C827.346 491.659 827.473 491.814 827.451 492.277C827.416 493.015 827.418 493.757 827.451 494.497C827.505 495.912 826.861 496.953 825.728 497.727C824.387 498.644 822.838 499.001 821.272 499.23C818.799 499.598 816.274 499.228 814.011 498.166C813.219 497.814 812.541 497.248 812.051 496.533C811.7 496.017 811.517 495.404 811.526 494.78C811.54 492.18 811.526 489.578 811.546 486.977C811.563 484.867 813.352 483.1 815.484 483.083C818.031 483.064 820.578 483.083 823.125 483.075C826.251 483.075 828.405 480.919 828.417 477.797C828.417 476.856 828.429 475.915 828.417 474.976C828.411 474.64 828.52 474.517 828.864 474.524C829.866 474.544 830.871 474.498 831.872 474.55C833.349 474.628 834.233 475.591 834.795 476.814C835.473 478.289 835.775 479.872 835.902 481.503C835.987 482.602 836.09 483.694 835.861 484.77C835.56 486.185 835.2 487.594 834.466 488.872C833.79 490.047 832.805 490.664 831.418 490.651C829.573 490.633 827.729 490.651 825.883 490.651V490.637ZM822.491 495.21C822.489 495.604 822.641 495.983 822.916 496.265C823.191 496.547 823.565 496.71 823.959 496.718C824.739 496.727 825.406 496.023 825.405 495.194C825.405 494.323 824.808 493.724 823.939 493.728C823.07 493.732 822.485 494.333 822.491 495.212V495.21Z" fill="white"/>
<path d="M819.328 482.075C818.13 482.075 816.92 482.068 815.717 482.075C812.69 482.096 810.54 484.225 810.496 487.25C810.482 488.211 810.481 489.172 810.504 490.132C810.512 490.508 810.424 490.669 810.01 490.651C809.27 490.617 808.526 490.637 807.784 490.637C806.242 490.637 805.11 489.943 804.337 488.629C803.575 487.341 803.357 485.898 803.14 484.459C802.82 482.391 803.08 480.353 803.615 478.344C804.247 475.974 806.061 474.546 808.521 474.533C811.971 474.513 815.422 474.521 818.873 474.516C819.454 474.516 819.67 474.208 819.486 473.658C819.377 473.342 819.119 473.474 818.927 473.473C816.66 473.46 814.393 473.447 812.127 473.473C811.648 473.478 811.513 473.344 811.532 472.873C811.572 471.834 811.532 470.792 811.564 469.752C811.604 468.351 812.275 467.375 813.597 466.854C814.919 466.332 816.314 466.168 817.712 466.065C819.571 465.93 821.438 466.005 823.28 466.287C824.538 466.48 825.594 467.078 826.465 467.973C827.133 468.658 827.427 469.528 827.427 470.489C827.427 472.994 827.439 475.493 827.427 477.994C827.415 480.342 825.664 482.064 823.297 482.078C821.973 482.086 820.649 482.078 819.325 482.078L819.328 482.075ZM814.996 471.454C815.197 471.455 815.395 471.415 815.579 471.337C815.764 471.26 815.931 471.145 816.07 471.002C816.21 470.858 816.318 470.688 816.39 470.501C816.462 470.314 816.496 470.115 816.489 469.914C816.482 469.521 816.324 469.145 816.048 468.865C815.772 468.584 815.398 468.421 815.005 468.407C814.602 468.413 814.216 468.575 813.93 468.86C813.644 469.144 813.48 469.529 813.472 469.932C813.472 470.336 813.633 470.723 813.919 471.008C814.205 471.294 814.592 471.454 814.996 471.454Z" fill="white"/>
<path d="M855.894 340C856.037 340.044 856.175 340.08 856.309 340.126C860.435 341.528 864.561 342.93 868.686 344.332C869.043 344.453 869.157 344.577 869.099 345.001C868.709 347.889 868.365 350.785 868.004 353.677C867.686 356.224 867.362 358.77 867.048 361.319C867.014 361.599 866.812 361.671 866.622 361.776C863.58 363.457 860.538 365.136 857.495 366.815C856.968 367.102 856.443 367.58 855.898 367.606C855.354 367.633 854.834 367.108 854.307 366.818C851.301 365.164 848.298 363.507 845.296 361.847C845.054 361.714 844.928 361.56 844.896 361.274C844.633 358.912 844.349 356.551 844.073 354.189C843.795 351.813 843.518 349.436 843.241 347.058C843.165 346.397 843.109 345.734 843.013 345.075C842.96 344.715 843.064 344.547 843.42 344.424C845.773 343.605 848.118 342.761 850.466 341.926C852.14 341.33 853.814 340.736 855.488 340.142C855.624 340.086 855.76 340.045 855.894 340ZM855.874 341.076C855.779 341.272 855.714 341.414 855.649 341.554C854.416 344.283 853.185 347.013 851.954 349.744C850.333 353.342 848.71 356.939 847.086 360.535C846.917 360.906 846.937 361.013 847.373 360.994C848.184 360.954 848.998 360.95 849.809 360.962C850.129 360.962 850.287 360.866 850.401 360.561C850.89 359.29 851.413 358.032 851.91 356.764C852.006 356.529 852.108 356.422 852.388 356.422C854.824 356.422 857.26 356.409 859.695 356.382C860.044 356.382 860.191 356.506 860.318 356.809C860.857 358.093 861.427 359.364 861.969 360.647C862.07 360.885 862.187 360.971 862.452 360.97C863.2 360.97 863.948 361.001 864.697 361.021C865.245 361.036 865.245 361.037 865.021 360.557L855.874 341.076Z" fill="white"/>
<path d="M853.215 353.812C854.132 351.643 854.998 349.593 855.865 347.544C856.07 347.604 856.092 347.777 856.156 347.909C857.039 349.725 857.911 351.548 858.8 353.363C858.968 353.707 858.937 353.822 858.519 353.818C856.789 353.802 855.058 353.812 853.215 353.812Z" fill="white"/>
<path d="M560.615 417.997C560.24 417.456 559.787 416.975 559.27 416.568C557.616 415.242 555.707 414.432 553.705 413.817C553.369 413.713 553.265 413.608 553.353 413.248C553.691 411.892 553.866 410.5 553.876 409.102C553.876 407.696 553.755 406.309 553.117 405.026C552.44 403.665 551.349 402.953 549.803 403.002C548.818 403.034 547.904 403.336 547.022 403.745C545.306 404.54 543.829 405.681 542.464 406.973C542.232 407.193 542.112 407.19 541.883 406.973C541.419 406.53 540.933 406.11 540.427 405.717C538.924 404.557 537.333 403.558 535.443 403.148C533.354 402.695 531.78 403.471 530.998 405.346C530.817 405.787 530.684 406.245 530.599 406.713C530.197 408.892 530.471 411.035 530.962 413.16C531.053 413.557 530.969 413.683 530.583 413.796C529.162 414.194 527.797 414.77 526.519 415.51C525.391 416.174 524.357 416.949 523.632 418.065C522.786 419.368 522.797 420.682 523.619 422C524.028 422.639 524.54 423.205 525.134 423.675C526.776 425.013 528.676 425.843 530.676 426.464C530.972 426.555 531.032 426.674 530.959 426.949C530.69 427.999 530.515 429.072 530.437 430.153C530.324 431.724 530.382 433.278 530.986 434.759C531.694 436.497 533.119 437.345 534.917 437.113C535.747 437.005 536.557 436.773 537.319 436.426C539.057 435.64 540.573 434.527 541.95 433.218C542.166 433.009 542.287 432.998 542.498 433.218C542.798 433.522 543.115 433.808 543.449 434.075C545.015 435.37 546.67 436.508 548.685 436.992C550.999 437.549 552.635 436.661 553.443 434.414C553.634 433.871 553.766 433.31 553.837 432.739C554.085 430.823 553.907 428.932 553.468 427.066C553.357 426.588 553.459 426.428 553.916 426.297C555.003 425.98 556.053 425.55 557.05 425.012C558.438 424.279 559.73 423.414 560.632 422.081C561.549 420.731 561.538 419.352 560.615 417.997ZM543.543 408.189C544.961 406.878 546.467 405.7 548.287 404.988C548.76 404.803 549.259 404.688 549.766 404.649C550.667 404.579 551.278 404.969 551.657 405.767C552.147 406.803 552.229 407.915 552.255 408.978C552.22 410.312 552.056 411.64 551.765 412.943C551.712 413.191 551.633 413.257 551.37 413.197C549.865 412.865 548.342 412.628 546.808 412.487C546.719 412.479 546.634 412.449 546.559 412.401C546.485 412.353 546.423 412.287 546.379 412.209C545.509 410.974 544.568 409.791 543.559 408.667C543.404 408.496 543.332 408.385 543.543 408.189ZM542.155 426.184C541.122 426.184 540.089 426.176 539.056 426.184C538.771 426.184 538.614 426.059 538.465 425.835C537.312 424.098 536.267 422.291 535.337 420.424C535.277 420.319 535.245 420.2 535.245 420.078C535.245 419.957 535.277 419.838 535.337 419.733C536.266 417.866 537.308 416.057 538.457 414.318C538.513 414.219 538.593 414.136 538.691 414.077C538.788 414.019 538.899 413.987 539.013 413.984C541.109 413.856 543.211 413.856 545.308 413.984C545.421 413.989 545.532 414.023 545.629 414.083C545.725 414.143 545.805 414.227 545.86 414.327C546.999 416.073 548.045 417.878 548.994 419.734C549.051 419.832 549.081 419.944 549.081 420.057C549.081 420.17 549.051 420.282 548.994 420.38C548.045 422.255 546.999 424.079 545.86 425.846C545.8 425.952 545.711 426.039 545.604 426.097C545.497 426.156 545.375 426.182 545.253 426.174C544.22 426.174 543.187 426.174 542.154 426.174L542.155 426.184ZM536.06 425.122C536.21 425.388 536.593 425.687 536.455 425.909C536.316 426.131 535.899 425.876 535.606 425.839C534.892 425.748 534.184 425.608 533.471 425.495C533.188 425.45 533.047 425.371 533.172 425.029C533.527 424.049 533.855 423.06 534.295 422.067C534.899 423.111 535.488 424.112 536.06 425.122ZM533.181 415.142C533.123 414.971 533.109 414.815 533.342 414.769C534.377 414.56 535.413 414.368 536.557 414.238C535.729 415.534 535.024 416.798 534.306 418.123C533.852 417.112 533.517 416.128 533.181 415.142ZM550.019 421.983C550.533 423.041 550.892 424.076 551.25 425.114C551.295 425.244 551.264 425.346 551.119 425.377C550.013 425.622 548.892 425.802 547.764 425.915C548.572 424.6 549.3 423.346 550.019 421.985V421.983ZM550.012 418.136C549.288 416.796 548.566 415.544 547.761 414.245C548.859 414.373 549.949 414.558 551.026 414.801C551.201 414.841 551.221 414.93 551.17 415.083C550.837 416.09 550.472 417.082 550.012 418.138V418.136ZM542.03 409.734C542.2 409.546 542.277 409.697 542.371 409.8C543.068 410.564 543.716 411.37 544.392 412.268H539.941C540.592 411.387 541.29 410.541 542.03 409.734ZM532.448 406.151C532.902 404.915 533.653 404.486 534.934 404.728C536.352 404.995 537.57 405.695 538.734 406.507C539.441 407.014 540.118 407.562 540.76 408.15C540.948 408.317 541.025 408.418 540.814 408.646C539.781 409.769 538.821 410.958 537.94 412.205C537.888 412.287 537.818 412.355 537.735 412.404C537.652 412.452 537.558 412.48 537.461 412.485C535.992 412.615 534.533 412.841 533.093 413.162C532.757 413.239 532.617 413.194 532.539 412.815C532.269 411.526 532.047 410.235 532.056 408.851C532.041 407.973 532.119 407.044 532.447 406.151H532.448ZM531.58 424.691C531.506 424.93 531.411 424.994 531.162 424.915C529.215 424.287 527.349 423.505 525.813 422.099C525.213 421.549 524.706 420.929 524.628 420.104C524.649 419.595 524.841 419.108 525.173 418.722C526.113 417.542 527.388 416.845 528.724 416.232C529.531 415.872 530.362 415.566 531.21 415.317C531.437 415.248 531.523 415.283 531.593 415.514C532.056 416.985 532.61 418.425 533.254 419.825C533.296 419.903 533.319 419.99 533.32 420.079C533.321 420.167 533.3 420.255 533.26 420.334C532.607 421.749 532.046 423.204 531.579 424.691H531.58ZM540.912 431.974C539.257 433.467 537.525 434.83 535.302 435.382C535.16 435.419 535.015 435.446 534.869 435.465C534.723 435.484 534.574 435.485 534.427 435.493C533.546 435.551 532.965 435.128 532.593 434.355C532.297 433.713 532.124 433.021 532.082 432.315C531.956 430.631 532.15 428.973 532.541 427.333C532.605 427.066 532.67 426.994 532.959 427.055C534.449 427.369 535.959 427.582 537.478 427.693C537.576 427.697 537.671 427.725 537.755 427.773C537.84 427.822 537.911 427.89 537.964 427.973C538.859 429.23 539.827 430.432 540.864 431.574C540.975 431.697 541.104 431.8 540.911 431.974H540.912ZM542.367 430.456C542.24 430.599 542.152 430.549 542.048 430.435C541.3 429.625 540.597 428.775 539.941 427.889H544.416C543.785 428.785 543.1 429.642 542.366 430.456H542.367ZM551.934 433.806C551.437 435.293 550.576 435.771 549.057 435.405C547.44 435.017 546.102 434.106 544.824 433.093C544.4 432.757 544.017 432.372 543.598 432.029C543.389 431.86 543.41 431.751 543.579 431.562C544.594 430.423 545.536 429.221 546.399 427.962C546.449 427.879 546.519 427.81 546.602 427.761C546.685 427.711 546.779 427.683 546.876 427.679C548.361 427.558 549.836 427.335 551.291 427.012C551.626 426.935 551.799 426.962 551.883 427.376C552.135 428.592 552.281 429.827 552.318 431.068C552.299 431.905 552.242 432.872 551.933 433.802L551.934 433.806ZM559.245 421.215C558.714 421.989 557.992 422.548 557.209 423.043C555.984 423.821 554.646 424.35 553.279 424.823C552.966 424.927 552.862 424.846 552.768 424.551C552.306 423.114 551.745 421.712 551.088 420.354C551.038 420.262 551.012 420.159 551.012 420.055C551.012 419.951 551.038 419.848 551.088 419.756C551.709 418.418 552.249 417.043 552.704 415.639C552.775 415.417 552.808 415.25 553.122 415.35C554.829 415.895 556.483 416.552 557.94 417.627C558.481 418.002 558.95 418.472 559.324 419.015C559.522 419.322 559.67 419.649 559.662 420.027C559.682 420.474 559.492 420.854 559.248 421.213L559.245 421.215Z" fill="white"/>
<path d="M542.135 423.461C541.459 423.457 540.8 423.251 540.241 422.871C539.682 422.491 539.248 421.953 538.994 421.326C538.741 420.698 538.678 420.009 538.816 419.346C538.953 418.684 539.283 418.076 539.765 417.602C540.247 417.127 540.858 416.807 541.522 416.681C542.186 416.555 542.872 416.629 543.494 416.894C544.115 417.16 544.644 417.604 545.014 418.171C545.383 418.738 545.576 419.402 545.569 420.079C545.569 420.528 545.479 420.973 545.306 421.387C545.132 421.801 544.879 422.176 544.559 422.491C544.239 422.806 543.86 423.054 543.444 423.22C543.028 423.387 542.583 423.469 542.135 423.461Z" fill="white"/>
<path d="M955.781 105.021H962.527L945.763 134.014C940.159 124.32 934.596 114.698 929 105.021H935.71C936.661 106.667 937.611 108.313 938.562 109.959C940.891 113.988 943.219 118.018 945.546 122.047C945.711 122.333 945.784 122.377 945.969 122.054C947.095 120.087 948.24 118.12 949.376 116.159C950.939 113.456 952.499 110.753 954.057 108.048C954.639 107.044 955.271 106.066 955.781 105.021Z" fill="white"/>
<path d="M955.459 105.219C955.137 105.843 954.78 106.444 954.419 107.051C954.242 107.349 954.065 107.648 953.89 107.952L953.89 107.952C952.336 110.657 950.776 113.36 949.209 116.062L949.209 116.062C948.799 116.772 948.387 117.482 947.976 118.191C947.248 119.445 946.521 120.699 945.801 121.958L945.801 121.958C945.788 121.981 945.776 122.001 945.765 122.019C945.752 121.999 945.739 121.976 945.724 121.95C943.401 117.918 941.073 113.889 938.739 109.863C937.846 108.316 936.952 106.769 936.059 105.222C936.442 105.221 936.825 105.22 937.208 105.219C938.7 105.216 940.194 105.212 941.687 105.199C941.761 105.199 941.785 105.219 941.803 105.237C941.816 105.251 941.831 105.27 941.849 105.301C941.862 105.321 941.871 105.337 941.881 105.356C941.89 105.371 941.899 105.388 941.912 105.41L942.084 105.31M955.459 105.219L935.944 105.023C936.365 105.022 936.787 105.021 937.208 105.02C938.701 105.017 940.194 105.013 941.686 105C941.91 105 941.981 105.127 942.058 105.264C942.066 105.279 942.075 105.295 942.084 105.31M955.459 105.219C955.027 105.218 954.596 105.217 954.164 105.216C952.727 105.213 951.289 105.211 949.851 105.201L949.851 105.201C949.779 105.2 949.753 105.219 949.734 105.237C949.706 105.266 949.685 105.302 949.645 105.372C949.639 105.383 949.632 105.396 949.624 105.409L949.624 105.409C948.687 107.03 947.751 108.649 946.815 110.269M955.459 105.219L949.451 105.31M942.084 105.31C943.234 107.298 944.382 109.287 945.529 111.276C945.567 111.341 945.606 111.405 945.65 111.477C945.633 111.507 945.615 111.538 945.597 111.568L945.769 111.669L945.938 111.565C945.919 111.533 945.9 111.502 945.882 111.474C945.946 111.365 946.008 111.259 946.07 111.153C946.266 110.818 946.455 110.494 946.643 110.169M942.084 105.31L941.912 105.41C943.061 107.398 944.21 109.386 945.357 111.375L945.357 111.376C945.402 111.453 945.45 111.532 945.504 111.619C945.534 111.667 945.565 111.717 945.599 111.772L945.772 112.057L945.94 111.769C946.043 111.594 946.143 111.422 946.241 111.254C946.437 110.919 946.627 110.594 946.815 110.269M946.643 110.169L946.815 110.269C946.815 110.269 946.815 110.269 946.815 110.269M946.643 110.169C947.579 108.55 948.515 106.93 949.451 105.31M946.643 110.169L946.815 110.269M949.451 105.31C949.458 105.298 949.464 105.287 949.471 105.276C949.553 105.13 949.627 105 949.853 105.002L949.451 105.31Z" fill="white" stroke="black" stroke-width="0.397849"/>
<path d="M237.537 215.183C237.537 216.946 237.537 218.625 237.537 220.305C237.537 220.601 237.592 220.866 237.118 220.865C236.673 220.865 236.675 220.647 236.676 220.326C236.681 215.825 236.681 211.323 236.676 206.821C236.676 206.525 236.621 206.253 237.094 206.257C237.532 206.257 237.55 206.472 237.539 206.799C237.522 207.313 237.539 207.828 237.539 208.49C238.008 207.789 238.374 207.172 238.994 206.769C241.523 205.126 244.839 206.222 245.884 209.118C246.517 210.84 246.491 212.735 245.812 214.439C245.156 216.141 243.852 217.033 242.086 217.186C240.32 217.338 238.719 216.992 237.724 215.307C237.705 215.278 237.66 215.265 237.537 215.183ZM237.557 211.768C237.542 212.446 237.627 213.122 237.809 213.775C238.199 215.235 239.281 216.222 240.705 216.401C242.364 216.608 243.825 216.225 244.698 214.686C245.764 212.807 245.76 210.835 244.849 208.898C244.092 207.286 242.727 206.67 240.99 206.827C239.439 206.969 238.457 207.872 237.919 209.274C237.619 210.052 237.539 210.882 237.557 211.766V211.768Z" fill="white"/>
<path d="M258.297 211.81C257.039 211.81 255.78 211.824 254.521 211.803C254.122 211.795 253.966 211.874 254.015 212.32C254.197 214.015 254.745 215.488 256.469 216.174C258.169 216.85 260.758 216.494 261.596 213.898C261.631 213.791 261.671 213.687 261.697 213.578C261.797 213.171 262.131 213.321 262.362 213.334C262.727 213.355 262.526 213.643 262.498 213.795C262.059 216.142 259.642 217.635 257.101 217.171C255.15 216.815 253.954 215.675 253.427 213.788C253.012 212.336 253.042 210.792 253.513 209.357C254.243 207.069 256.219 205.815 258.662 206.056C260.743 206.262 262.338 207.95 262.632 210.259C262.829 211.81 262.829 211.81 261.263 211.81H258.297ZM257.918 211.034H260.404C262.052 211.034 262.052 211.034 261.557 209.414C261.108 207.947 259.765 206.872 258.312 206.819C256.03 206.735 254.318 208.267 254.069 210.588C254.03 210.953 254.134 211.044 254.489 211.044C255.632 211.022 256.774 211.036 257.918 211.036V211.034Z" fill="white"/>
<path d="M221.241 211.81C220.028 211.81 218.814 211.858 217.605 211.792C216.895 211.754 216.794 211.993 216.898 212.618C217.133 214.046 217.609 215.316 218.983 216.022C221.223 217.174 223.645 216.192 224.497 213.822C224.56 213.647 224.519 213.379 224.776 213.34C224.968 213.309 225.209 213.291 225.359 213.382C225.529 213.483 225.394 213.705 225.349 213.869C224.697 216.192 223.048 217.313 220.426 217.217C218.328 217.139 216.655 215.698 216.219 213.537C215.782 211.375 215.908 209.285 217.434 207.524C219.656 204.959 223.982 205.766 225.152 208.942C225.423 209.678 225.568 210.455 225.582 211.239C225.592 211.68 225.461 211.827 225.014 211.819C223.756 211.794 222.499 211.81 221.241 211.81ZM220.792 211.036C221.937 211.036 223.084 211.036 224.23 211.036C224.431 211.036 224.696 211.128 224.678 210.742C224.578 208.563 223.002 206.829 220.967 206.805C218.883 206.781 217.226 208.265 216.918 210.679C216.865 211.093 217.107 211.044 217.354 211.044L220.792 211.036Z" fill="white"/>
<path d="M278.275 206.038C279.36 206.046 280.24 206.157 281.031 206.654C281.895 207.196 282.308 208.005 282.429 208.985C282.455 209.209 282.549 209.503 282.131 209.51C281.844 209.514 281.608 209.524 281.59 209.123C281.524 207.649 280.192 206.856 278.84 206.822C278.099 206.804 277.366 206.807 276.66 207.117C275.892 207.455 275.389 207.982 275.378 208.835C275.367 209.67 275.854 210.188 276.605 210.506C277.585 210.922 278.642 211.025 279.658 211.29C280.09 211.403 280.526 211.488 280.947 211.655C282.026 212.085 282.669 212.807 282.745 214.006C282.827 215.307 282.283 216.244 281.095 216.722C279.31 217.439 277.502 217.507 275.787 216.501C274.797 215.919 274.306 214.977 274.171 213.847C274.146 213.636 274.111 213.412 274.432 213.451C274.643 213.477 274.899 213.311 275.029 213.689C275.876 216.153 277.736 217.045 280.248 216.221C281.343 215.864 281.932 215.159 281.932 214.214C281.932 213.287 281.379 212.68 280.267 212.279C279.101 211.86 277.852 211.808 276.678 211.419C275.309 210.963 274.579 210.16 274.546 208.971C274.506 207.644 275.185 206.696 276.463 206.324C277.11 206.138 277.77 205.996 278.275 206.038Z" fill="white"/>
<path d="M268.463 206.044C269.878 206.081 271.19 206.344 271.99 207.698C272.232 208.105 272.36 208.568 272.361 209.041C272.361 209.251 272.438 209.512 272.066 209.51C271.782 209.51 271.589 209.518 271.528 209.118C271.31 207.69 270.498 206.961 269.051 206.843C268.175 206.772 267.297 206.766 266.482 207.177C265.798 207.523 265.323 208.022 265.324 208.841C265.324 209.659 265.799 210.157 266.502 210.478C267.493 210.934 268.579 211.018 269.618 211.293C270.049 211.407 270.489 211.504 270.908 211.658C272.088 212.091 272.699 212.935 272.72 214.208C272.741 215.481 272.099 216.327 270.987 216.754C269.222 217.432 267.428 217.497 265.736 216.499C264.743 215.912 264.256 214.969 264.143 213.835C264.127 213.678 264.039 213.424 264.34 213.455C264.558 213.476 264.827 213.272 264.966 213.716C265.781 216.287 268.488 217.303 270.849 215.945C271.57 215.53 271.927 214.903 271.868 214.048C271.803 213.09 271.155 212.663 270.373 212.344C269.325 211.916 268.182 211.874 267.11 211.551C266.701 211.434 266.302 211.285 265.916 211.107C264.806 210.571 264.391 209.647 264.514 208.46C264.63 207.342 265.344 206.702 266.339 206.357C267.018 206.108 267.741 206.001 268.463 206.044Z" fill="white"/>
<path d="M235.396 216.895C234.666 217.131 234.235 216.936 233.845 216.363C232.938 215.031 231.94 213.762 231.016 212.44C230.715 212.01 230.574 212.109 230.318 212.461C229.367 213.764 228.367 215.03 227.439 216.348C227.074 216.871 226.683 217.14 225.957 216.909C226.505 216.169 227.03 215.444 227.568 214.725C228.305 213.738 229.036 212.747 229.797 211.779C230.051 211.457 230.038 211.242 229.785 210.923C228.594 209.418 227.431 207.892 226.232 206.342C226.932 206.16 227.408 206.271 227.82 206.875C228.616 208.038 229.503 209.14 230.338 210.277C230.578 210.604 230.723 210.683 231.008 210.287C231.857 209.106 232.781 207.979 233.613 206.787C233.993 206.24 234.423 206.191 235.048 206.339C233.878 207.88 232.764 209.386 231.596 210.854C231.28 211.253 231.31 211.492 231.606 211.873C232.88 213.52 234.117 215.194 235.396 216.895Z" fill="white"/>
<path d="M248.935 208.214C249.947 206.958 251.158 206.324 252.696 206.264C253.006 206.252 253.152 206.297 253.152 206.643C253.152 206.968 253.037 207.071 252.719 207.066C250.577 207.028 248.915 208.867 248.935 211.181C248.949 212.929 248.935 214.676 248.935 216.424C248.935 216.698 249.035 216.996 248.54 217.005C248.027 217.015 248.09 216.72 248.09 216.405C248.09 213.224 248.09 210.043 248.09 206.862C248.09 206.559 247.998 206.248 248.527 206.257C249.081 206.266 248.921 206.617 248.93 206.895C248.942 207.333 248.935 207.774 248.935 208.214Z" fill="white"/>
<path d="M642.254 212.001C643.098 212.475 643.934 212.965 644.789 213.417C645.167 213.616 645.317 213.871 645.316 214.302C645.304 218.546 645.302 222.791 645.313 227.036C645.313 227.38 645.19 227.602 644.889 227.774C643.446 228.594 642.009 229.423 640.577 230.262C640.3 230.424 640.058 230.432 639.777 230.268C638.323 229.418 636.865 228.576 635.402 227.74C635.147 227.594 635.035 227.399 635.036 227.104C635.042 225.411 635.042 223.718 635.036 222.025C635.036 221.73 635.148 221.537 635.404 221.391C636.882 220.546 638.357 219.695 639.83 218.84C640.065 218.704 640.282 218.702 640.514 218.84C640.839 219.035 641.17 219.22 641.499 219.409C641.759 219.558 641.883 219.488 641.883 219.19C641.883 216.925 641.882 214.66 641.88 212.394C641.88 212.223 641.922 212.092 642.067 212L642.254 212.001ZM638.447 224.57C638.447 224.844 638.451 225.118 638.447 225.393C638.442 225.442 638.452 225.492 638.477 225.535C638.501 225.578 638.538 225.613 638.582 225.634C639.069 225.91 639.553 226.188 640.036 226.47C640.074 226.496 640.119 226.509 640.166 226.509C640.212 226.508 640.257 226.494 640.294 226.468C640.777 226.186 641.262 225.908 641.748 225.632C641.79 225.611 641.825 225.579 641.848 225.538C641.871 225.498 641.881 225.452 641.878 225.405C641.874 224.852 641.874 224.298 641.878 223.744C641.882 223.695 641.871 223.646 641.846 223.603C641.822 223.56 641.785 223.526 641.74 223.504C641.254 223.228 640.77 222.949 640.288 222.666C640.196 222.612 640.122 222.616 640.031 222.67C639.554 222.95 639.075 223.226 638.594 223.498C638.488 223.558 638.445 223.63 638.447 223.751C638.452 224.021 638.447 224.295 638.447 224.568L638.447 224.57Z" fill="white"/>
<path d="M657.839 223.244H657.823H657.807C657.807 222.745 657.807 222.247 657.807 221.748C657.812 221.745 657.817 221.744 657.823 221.744C657.828 221.744 657.833 221.745 657.838 221.748L657.839 223.244Z" fill="white"/>
<path d="M632.761 224.522C632.761 225.374 632.758 226.227 632.764 227.079C632.766 227.331 632.662 227.507 632.449 227.628C631.971 227.899 631.49 228.166 631.014 228.441C630.035 229.007 629.053 229.57 628.083 230.152C627.779 230.335 627.522 230.33 627.219 230.152C625.788 229.313 624.353 228.483 622.912 227.662C622.663 227.519 622.547 227.331 622.547 227.046C622.552 225.341 622.552 223.636 622.547 221.931C622.547 221.666 622.65 221.479 622.875 221.349C624.372 220.488 625.868 219.626 627.364 218.763C627.596 218.63 627.813 218.679 628.032 218.806C629.019 219.38 630.007 219.951 630.998 220.52C631.47 220.793 631.941 221.07 632.419 221.338C632.661 221.474 632.772 221.668 632.77 221.946C632.765 222.806 632.768 223.663 632.768 224.521L632.761 224.522Z" fill="white"/>
<path d="M610.002 225.306C610.002 224.161 610.006 223.016 610 221.871C610 221.593 610.104 221.401 610.346 221.262C611.835 220.411 613.322 219.556 614.807 218.698C615.027 218.57 615.239 218.569 615.459 218.696C616.951 219.556 618.443 220.413 619.936 221.269C620.165 221.4 620.269 221.59 620.269 221.85C620.263 224.165 620.258 226.48 620.253 228.795C620.253 229.121 620.059 229.231 619.775 229.069C618.906 228.575 618.039 228.076 617.169 227.581C616.94 227.451 616.841 227.259 616.842 226.998C616.846 225.958 616.837 224.919 616.847 223.88C616.851 223.569 616.733 223.363 616.462 223.218C616.134 223.042 615.812 222.853 615.493 222.66C615.249 222.51 615.02 222.51 614.776 222.66C614.448 222.862 614.114 223.055 613.775 223.24C613.528 223.374 613.421 223.567 613.423 223.845C613.428 224.872 613.418 225.898 613.429 226.925C613.432 227.255 613.311 227.471 613.017 227.633C612.18 228.097 611.355 228.58 610.524 229.054C610.198 229.241 610.008 229.133 610.007 228.761C610.007 227.609 610.007 226.458 610.007 225.306L610.002 225.306Z" fill="white"/>
<path d="M657.808 221.749C657.808 222.248 657.808 222.747 657.808 223.245C657.783 223.42 657.678 223.538 657.533 223.623C656.641 224.142 655.749 224.66 654.857 225.176C654.595 225.326 654.396 225.21 654.392 224.915C654.388 224.54 654.384 224.166 654.392 223.795C654.398 223.588 654.32 223.461 654.139 223.362C653.719 223.133 653.306 222.892 652.894 222.647C652.745 222.558 652.613 222.555 652.461 222.647C652.039 222.899 651.614 223.144 651.185 223.382C651.023 223.472 650.96 223.591 650.96 223.774C650.968 224.259 650.968 224.744 650.96 225.23C650.957 225.414 651.03 225.526 651.19 225.617C652.62 226.431 654.049 227.25 655.476 228.071C655.519 228.096 655.562 228.121 655.605 228.146C655.728 228.214 655.85 228.286 655.849 228.445C655.849 228.605 655.73 228.678 655.606 228.745C655.046 229.054 654.486 229.364 653.928 229.676C653.628 229.842 653.329 230.005 653.032 230.175C652.801 230.309 652.584 230.309 652.347 230.175C650.875 229.332 649.401 228.493 647.925 227.658C647.697 227.528 647.588 227.348 647.588 227.083C647.592 225.359 647.592 223.636 647.588 221.912C647.588 221.655 647.693 221.476 647.914 221.351C649.4 220.496 650.886 219.639 652.37 218.78C652.61 218.64 652.831 218.641 653.07 218.78C654.535 219.634 656.002 220.486 657.471 221.335C657.64 221.427 657.778 221.543 657.808 221.749Z" fill="white"/>
<path d="M638.861 235.364C638.861 236.173 638.854 236.982 638.863 237.791C638.867 238.202 638.692 238.492 638.344 238.693C636.953 239.494 635.563 240.296 634.173 241.098C633.805 241.311 633.446 241.307 633.082 241.085C632.641 240.817 632.194 240.558 631.75 240.294C631.7 240.264 631.622 240.243 631.638 240.165C631.65 240.102 631.722 240.103 631.772 240.082C631.899 240.03 632.037 239.994 632.146 239.918C632.331 239.788 632.483 239.8 632.666 239.927C632.928 240.107 633.211 240.252 633.48 240.419C633.596 240.491 633.693 240.483 633.809 240.417C635.18 239.621 636.554 238.828 637.931 238.039C638.068 237.96 638.098 237.862 638.097 237.72C638.094 236.506 638.097 235.292 638.097 234.079C638.097 233.718 638.094 233.357 638.097 232.994C638.097 232.86 638.051 232.776 637.933 232.709C636.546 231.913 635.161 231.115 633.778 230.315C633.738 230.287 633.69 230.272 633.641 230.272C633.591 230.272 633.543 230.287 633.503 230.315C632.114 231.12 630.724 231.921 629.332 232.721C629.284 232.743 629.245 232.78 629.218 232.825C629.191 232.87 629.179 232.923 629.183 232.975C629.184 234.575 629.184 236.175 629.183 237.774C629.178 237.823 629.189 237.873 629.213 237.916C629.238 237.959 629.275 237.994 629.319 238.015C629.683 238.219 630.04 238.435 630.404 238.637C630.608 238.75 630.826 238.824 631.065 238.753C631.305 238.682 631.445 238.51 631.463 238.267C631.471 238.155 631.468 238.043 631.468 237.93V233.472C631.468 233.198 631.484 233.182 631.749 233.183C632.336 233.186 632.271 233.114 632.273 233.695C632.274 235.177 632.274 236.658 632.273 238.139C632.276 238.326 632.255 238.512 632.211 238.694C632.073 239.221 631.681 239.529 631.136 239.569C630.701 239.601 630.313 239.479 629.942 239.27C629.594 239.075 629.251 238.873 628.906 238.675C628.577 238.485 628.413 238.203 628.413 237.818C628.416 236.187 628.416 234.556 628.413 232.926C628.413 232.54 628.577 232.261 628.909 232.07C630.322 231.258 631.735 230.444 633.146 229.629C633.469 229.442 633.798 229.436 634.122 229.623C635.545 230.442 636.967 231.263 638.388 232.085C638.706 232.269 638.862 232.548 638.861 232.918C638.859 233.733 638.861 234.548 638.861 235.364Z" fill="white"/>
<path d="M634.827 233.068C635.238 233.056 635.647 233.098 636.035 233.251C636.596 233.474 636.873 233.906 636.946 234.489C636.965 234.642 636.903 234.713 636.749 234.707C636.712 234.703 636.674 234.703 636.637 234.707C636.336 234.748 636.118 234.696 636.045 234.336C635.998 234.106 635.793 233.968 635.565 233.907C635.094 233.778 634.598 233.775 634.126 233.898C633.844 233.973 633.704 234.138 633.692 234.368C633.68 234.599 633.74 234.702 633.96 234.778C634.273 234.885 634.602 234.922 634.928 234.971C635.37 235.038 635.815 235.086 636.244 235.222C636.753 235.383 637.09 235.687 637.119 236.252C637.145 236.795 636.942 237.223 636.47 237.506C636.095 237.731 635.681 237.809 635.256 237.83C634.7 237.858 634.149 237.819 633.622 237.617C633.051 237.399 632.695 236.898 632.687 236.322C632.687 236.18 632.731 236.113 632.879 236.12C633.027 236.126 633.178 236.123 633.328 236.12C633.423 236.118 633.489 236.157 633.5 236.252C633.563 236.781 633.912 236.987 634.391 237.037C634.85 237.086 635.311 237.107 635.763 236.986C635.987 236.926 636.178 236.817 636.244 236.568C636.322 236.272 636.244 236.1 635.959 235.99C635.637 235.867 635.296 235.83 634.956 235.79C634.481 235.734 634.007 235.688 633.551 235.518C632.595 235.162 632.683 233.926 633.274 233.481C633.631 233.212 634.039 233.105 634.473 233.07C634.589 233.06 634.708 233.068 634.827 233.068Z" fill="white"/>
<path d="M653.666 224.488C653.819 224.922 653.572 225.112 653.23 225.324C652.856 225.557 652.583 225.567 652.198 225.335C651.832 225.115 651.698 224.893 651.699 224.465C651.699 224.044 651.824 223.823 652.19 223.61C652.572 223.388 652.844 223.379 653.225 223.61C653.589 223.83 653.81 224.046 653.666 224.488Z" fill="white"/>
<path d="M640.354 231.791C640.463 231.789 640.572 231.809 640.673 231.849C640.775 231.889 640.867 231.949 640.946 232.025C641.024 232.101 641.087 232.192 641.13 232.292C641.173 232.392 641.196 232.5 641.198 232.609C641.207 233.058 640.824 233.443 640.371 233.445C640.262 233.446 640.154 233.425 640.054 233.385C639.953 233.344 639.861 233.284 639.784 233.208C639.706 233.132 639.644 233.042 639.602 232.942C639.559 232.842 639.537 232.735 639.536 232.626C639.535 232.517 639.555 232.41 639.595 232.309C639.636 232.208 639.696 232.117 639.772 232.039C639.848 231.962 639.939 231.9 640.038 231.857C640.138 231.815 640.246 231.792 640.354 231.791ZM639.67 232.608C639.668 232.794 639.739 232.973 639.868 233.106C639.997 233.239 640.174 233.316 640.359 233.319C640.736 233.323 641.059 232.999 641.059 232.617C641.057 232.431 640.982 232.254 640.851 232.124C640.719 231.993 640.542 231.919 640.356 231.919C640.174 231.92 640 231.993 639.872 232.122C639.743 232.251 639.671 232.426 639.67 232.608Z" fill="white"/>
<path d="M640.05 232.612C640.045 232.556 640.045 232.5 640.05 232.445C640.068 232.347 639.985 232.19 640.099 232.162C640.266 232.12 640.464 232.104 640.62 232.217C640.643 232.235 640.662 232.256 640.676 232.281C640.69 232.305 640.7 232.333 640.703 232.361C640.706 232.389 640.704 232.418 640.696 232.445C640.689 232.473 640.675 232.498 640.658 232.52C640.588 232.608 640.611 232.653 640.647 232.734C640.683 232.815 640.68 232.903 640.696 232.988C640.704 233.03 640.731 233.079 640.659 233.085C640.606 233.09 640.54 233.106 640.523 233.027C640.51 232.966 640.501 232.905 640.496 232.843C640.49 232.734 640.421 232.717 640.331 232.714C640.223 232.711 640.242 232.783 640.228 232.85C640.211 232.932 640.303 233.083 640.139 233.08C639.963 233.078 640.07 232.921 640.051 232.835C640.037 232.764 640.05 232.686 640.05 232.612ZM640.337 232.553C640.432 232.553 640.504 232.534 640.506 232.425C640.507 232.316 640.428 232.303 640.344 232.296C640.251 232.287 640.228 232.333 640.232 232.416C640.236 232.499 640.228 232.571 640.337 232.554V232.553Z" fill="white"/>
<path d="M793.921 132.232C797.724 132.232 801.526 132.239 805.33 132.232C806.238 132.235 807.139 132.073 807.99 131.754C808.272 131.645 808.387 131.55 808.22 131.225C807.163 129.182 807.645 127.269 808.737 125.41C808.944 125.058 809.146 124.978 809.511 125.229C810.765 126.092 811.686 127.192 812.02 128.703C812.106 129.094 812.264 129.133 812.61 129.079C813.937 128.882 815.221 128.985 816.428 129.653C816.872 129.899 816.966 130.149 816.724 130.613C815.735 132.511 814.123 133.403 812.049 133.497C811.527 133.52 811.288 133.668 811.095 134.149C809.95 137.014 808.381 139.603 805.998 141.627C803.314 143.904 800.169 145.114 796.708 145.576C793.988 145.955 791.223 145.839 788.545 145.233C785.264 144.481 783.154 142.468 782.026 139.357C781.377 137.579 781.03 135.703 781.001 133.81C780.983 132.588 781.324 132.232 782.57 132.232H793.921Z" fill="white"/>
<path d="M794.679 131.538C794.218 131.538 793.756 131.531 793.294 131.538C792.979 131.543 792.835 131.403 792.836 131.088C792.841 130.242 792.841 129.396 792.836 128.55C792.836 128.227 793.001 128.109 793.307 128.111C794.23 128.117 795.153 128.119 796.077 128.111C796.436 128.111 796.605 128.24 796.597 128.62C796.581 129.409 796.578 130.198 796.597 130.986C796.61 131.426 796.415 131.562 796.005 131.542C795.566 131.521 795.122 131.538 794.679 131.538Z" fill="white"/>
<path d="M794.719 124.067C795.181 124.067 795.644 124.075 796.106 124.067C796.445 124.06 796.599 124.205 796.596 124.549C796.588 125.358 796.591 126.168 796.596 126.977C796.596 127.342 796.419 127.495 796.059 127.491C795.153 127.483 794.248 127.48 793.342 127.491C792.961 127.496 792.831 127.328 792.836 126.967C792.848 126.177 792.851 125.387 792.836 124.597C792.828 124.191 793.003 124.046 793.393 124.062C793.831 124.081 794.275 124.066 794.719 124.067Z" fill="white"/>
<path d="M799.168 128.115C799.515 128.13 799.863 128.128 800.21 128.108C800.774 128.052 801.022 128.231 800.98 128.843C800.93 129.554 800.955 130.27 800.972 130.984C800.983 131.37 800.859 131.548 800.445 131.548C799.538 131.53 798.63 131.534 797.718 131.548C797.342 131.554 797.209 131.386 797.215 131.021C797.229 130.231 797.233 129.439 797.215 128.648C797.206 128.234 797.391 128.103 797.779 128.117C798.241 128.128 798.705 128.115 799.168 128.115Z" fill="white"/>
<path d="M799.085 127.487C798.642 127.487 798.198 127.479 797.755 127.487C797.396 127.494 797.218 127.345 797.222 126.974C797.229 126.164 797.231 125.354 797.222 124.545C797.222 124.197 797.37 124.06 797.709 124.063C798.615 124.07 799.521 124.07 800.427 124.063C800.822 124.063 800.98 124.234 800.972 124.627C800.959 125.398 800.961 126.169 800.972 126.94C800.978 127.333 800.812 127.504 800.417 127.491C799.972 127.476 799.528 127.487 799.085 127.487Z" fill="white"/>
<path d="M786.018 128.115C786.504 128.199 787.24 127.847 787.646 128.267C788.022 128.657 787.764 129.373 787.771 129.944C787.79 131.542 787.777 131.542 786.209 131.542C785.669 131.542 785.129 131.534 784.589 131.542C784.207 131.551 784.015 131.403 784.025 131.002C784.035 130.192 784.032 129.382 784.025 128.573C784.025 128.258 784.163 128.112 784.477 128.115C784.956 128.119 785.438 128.115 786.018 128.115Z" fill="white"/>
<path d="M803.636 128.115C804.12 128.198 804.859 127.847 805.261 128.266C805.637 128.656 805.379 129.372 805.385 129.943C805.404 131.541 805.392 131.541 803.824 131.541C803.285 131.541 802.745 131.533 802.205 131.541C801.822 131.55 801.632 131.398 801.636 131C801.645 130.19 801.643 129.381 801.636 128.571C801.636 128.256 801.775 128.111 802.09 128.115C802.572 128.119 803.058 128.115 803.636 128.115Z" fill="white"/>
<path d="M799.076 120.001C799.518 120.001 799.961 120.01 800.404 120.001C800.78 119.99 800.977 120.134 800.968 120.537C800.956 121.345 800.956 122.153 800.968 122.961C800.968 123.314 800.809 123.431 800.474 123.431C799.57 123.421 798.665 123.421 797.76 123.431C797.363 123.436 797.212 123.251 797.218 122.867C797.228 122.078 797.23 121.29 797.218 120.501C797.211 120.119 797.387 119.989 797.746 120.001C798.19 120.01 798.633 120.001 799.076 120.001Z" fill="white"/>
<path d="M790.287 124.066C790.731 124.066 791.175 124.075 791.618 124.066C791.98 124.056 792.142 124.192 792.133 124.576C792.113 125.366 792.117 126.158 792.133 126.949C792.14 127.348 791.972 127.501 791.579 127.494C790.711 127.48 789.842 127.478 788.973 127.494C788.547 127.503 788.389 127.325 788.4 126.906C788.42 126.153 788.429 125.401 788.4 124.649C788.379 124.17 788.588 124.041 789.018 124.064C789.447 124.088 789.862 124.066 790.287 124.066Z" fill="white"/>
<path d="M790.278 131.537C789.816 131.537 789.355 131.537 788.892 131.537C788.56 131.537 788.399 131.393 788.401 131.05C788.409 130.223 788.411 129.394 788.401 128.567C788.401 128.245 788.536 128.112 788.848 128.113C789.788 128.113 790.735 128.118 791.678 128.113C792.034 128.113 792.137 128.289 792.131 128.621C792.117 129.428 792.114 130.238 792.131 131.045C792.14 131.433 791.964 131.553 791.607 131.541C791.165 131.526 790.721 131.537 790.278 131.537Z" fill="white"/>
<path d="M460.05 246.066H448.633C448.098 246.066 448.097 246.066 448.269 245.545C448.786 243.987 449.311 242.433 449.811 240.871C449.917 240.54 450.066 240.425 450.421 240.425C457.465 240.435 464.51 240.435 471.555 240.425C471.932 240.425 472.047 240.522 472.039 240.909C472.016 242.471 472.016 244.034 472.039 245.598C472.045 245.985 471.929 246.082 471.555 246.076C467.724 246.061 463.886 246.066 460.05 246.066Z" fill="white"/>
<path d="M461.858 235.341C458.633 235.341 455.409 235.335 452.183 235.348C451.776 235.348 451.648 235.301 451.803 234.853C452.355 233.273 452.868 231.68 453.382 230.088C453.469 229.82 453.586 229.713 453.885 229.714C459.802 229.724 465.718 229.724 471.635 229.714C471.95 229.714 472.044 229.8 472.041 230.118C472.025 231.714 472.02 233.311 472.041 234.905C472.046 235.286 471.918 235.349 471.573 235.347C468.338 235.341 465.099 235.341 461.858 235.341Z" fill="white"/>
<path d="M463.576 224.633C460.949 224.633 458.323 224.626 455.696 224.64C455.309 224.64 455.197 224.588 455.339 224.176C455.892 222.581 456.42 220.977 456.938 219.371C457.027 219.096 457.149 219 457.443 219.001C462.165 219.011 466.887 219.011 471.609 219.001C471.945 219.001 472.046 219.09 472.042 219.431C472.025 221.026 472.025 222.622 472.042 224.216C472.042 224.564 471.928 224.642 471.602 224.641C468.928 224.628 466.253 224.633 463.576 224.633Z" fill="white"/>
<path d="M443.625 224.633C441.917 224.633 440.21 224.625 438.502 224.64C438.149 224.64 437.993 224.583 438 224.174C438.025 222.595 438.019 221.017 438 219.439C438 219.109 438.079 218.999 438.426 219C442.501 219.012 446.576 219.012 450.651 219C451.048 219 451.111 219.09 450.984 219.462C450.443 221.043 449.92 222.631 449.413 224.224C449.316 224.538 449.176 224.645 448.841 224.642C447.104 224.623 445.364 224.633 443.625 224.633Z" fill="white"/>
<path d="M447.566 229.768C447.068 231.287 446.573 232.8 446.078 234.307C445.736 235.349 445.733 235.348 444.616 235.348C442.57 235.348 440.524 235.337 438.477 235.358C438.084 235.358 437.993 235.241 438.001 234.874C438.021 233.296 438.013 231.717 438.007 230.133C438.007 229.879 438.016 229.717 438.354 229.718C441.367 229.731 444.381 229.726 447.394 229.729C447.452 229.737 447.51 229.75 447.566 229.768Z" fill="white"/>
<path d="M441.039 240.422C441.894 240.422 442.748 240.437 443.601 240.414C443.988 240.404 444.02 240.518 443.905 240.856C443.354 242.469 442.822 244.089 442.295 245.711C442.214 245.959 442.114 246.077 441.829 246.072C440.684 246.056 439.54 246.058 438.396 246.072C438.11 246.072 438.001 246.005 438.003 245.697C438.018 244.07 438.02 242.442 438.003 240.815C437.998 240.47 438.137 240.414 438.429 240.418C439.298 240.43 440.168 240.422 441.039 240.422Z" fill="white"/>
<path d="M482.887 85.4508L482.887 85.4508C481.616 87.6519 481.993 90.5438 483.74 93.591L483.87 93.5164L483.74 93.591C483.831 93.7492 483.981 93.865 484.157 93.9127C484.333 93.9604 484.521 93.9363 484.679 93.8456C484.837 93.7549 484.953 93.605 485.001 93.4289C485.048 93.2529 485.024 93.0651 484.934 92.9069L484.934 92.9068C483.382 90.2005 483.106 87.8202 484.077 86.1383L484.077 86.1383C484.737 84.9964 485.962 84.1977 487.637 83.7945C489.312 83.3913 491.424 83.387 493.833 83.8256C493.922 83.8431 494.014 83.8428 494.103 83.8247C494.192 83.8065 494.277 83.7707 494.352 83.7193C494.428 83.668 494.492 83.6022 494.542 83.5258C494.591 83.4493 494.625 83.3637 494.642 83.274C494.658 83.1843 494.656 83.0922 494.637 83.0032C494.617 82.9141 494.58 82.8298 494.528 82.7552C494.475 82.6807 494.408 82.6173 494.331 82.5688C494.254 82.5206 494.169 82.488 494.079 82.4729C488.825 81.5162 484.589 82.5024 482.887 85.4508ZM514.379 106.487L514.38 106.486C514.529 106.383 514.631 106.225 514.664 106.047C514.697 105.868 514.659 105.684 514.556 105.534C514.454 105.384 514.297 105.281 514.119 105.246C513.941 105.212 513.756 105.249 513.605 105.35L513.604 105.351C511.865 106.537 509.097 106.871 505.833 106.374C502.575 105.877 498.849 104.554 495.221 102.459C492.187 100.707 489.534 98.6018 487.503 96.3703C487.443 96.3022 487.37 96.2468 487.288 96.2071C487.206 96.1673 487.117 96.1441 487.026 96.1391C486.935 96.134 486.844 96.1471 486.758 96.1776C486.672 96.2082 486.593 96.2555 486.525 96.3169C486.458 96.3783 486.403 96.4525 486.365 96.5351C486.326 96.6178 486.304 96.7074 486.301 96.7985C486.297 96.8897 486.312 96.9806 486.344 97.0661C486.375 97.1511 486.424 97.2291 486.486 97.2954C488.616 99.6368 491.382 101.83 494.534 103.65C498.349 105.853 502.291 107.251 505.785 107.756C509.274 108.261 512.34 107.877 514.379 106.487Z" fill="white" stroke="white" stroke-width="0.3"/>
<path d="M508.804 83.5244L508.804 83.5244C508.714 83.5232 508.625 83.5042 508.542 83.4685C508.459 83.4328 508.384 83.3812 508.321 83.3165C508.258 83.2518 508.208 83.1753 508.175 83.0915C508.141 83.0076 508.125 82.9179 508.126 82.8277C508.127 82.7374 508.146 82.6482 508.182 82.5653C508.217 82.4823 508.269 82.4072 508.334 82.3442C508.398 82.2812 508.475 82.2316 508.559 82.1982L508.804 83.5244ZM508.804 83.5244C511.847 83.5637 513.989 84.512 514.944 86.1657C515.602 87.3052 515.682 88.7618 515.197 90.4098C514.712 92.0577 513.665 93.8852 512.088 95.7477C512.028 95.816 511.983 95.8956 511.954 95.9817L512.096 96.0295M508.804 83.5244L512.096 96.0295M512.096 96.0295L511.954 95.9817C511.925 96.0683 511.913 96.1599 511.92 96.251C511.927 96.3422 511.951 96.4311 511.993 96.5125C512.034 96.5939 512.092 96.6663 512.161 96.7253C512.231 96.7844 512.312 96.8289 512.399 96.8563C512.486 96.8838 512.578 96.8935 512.669 96.8851C512.76 96.8767 512.849 96.8502 512.929 96.8072C513.009 96.7644 513.08 96.7062 513.138 96.6358M512.096 96.0295L513.138 96.6358M513.138 96.6358C516.578 92.5716 517.833 88.4207 516.135 85.4782C514.884 83.3121 512.255 82.1939 508.823 82.1494C508.823 82.1494 508.823 82.1494 508.823 82.1494L513.138 96.6358ZM504.175 82.6525L504.175 82.6524L504.171 82.6532C501.051 83.3219 497.734 84.6279 494.55 86.4659C490.611 88.7399 487.353 91.5556 485.167 94.4162C482.985 97.2717 481.855 100.194 482.219 102.674C482.23 102.765 482.259 102.852 482.304 102.931C482.35 103.011 482.411 103.081 482.484 103.136C482.557 103.192 482.64 103.233 482.729 103.256C482.818 103.279 482.91 103.284 483.001 103.271C483.092 103.257 483.179 103.226 483.258 103.178C483.336 103.13 483.405 103.068 483.458 102.993C483.512 102.919 483.551 102.834 483.571 102.745C483.592 102.656 483.594 102.564 483.579 102.474C483.273 100.384 484.299 97.7678 486.362 95.1172C488.422 92.4715 491.497 89.8163 495.237 87.6567L495.237 87.6567C498.302 85.8869 501.486 84.6351 504.459 83.9973L504.459 83.9974L504.463 83.9966C504.637 83.9548 504.789 83.8464 504.885 83.6945C504.98 83.5426 505.013 83.3593 504.975 83.1838C504.938 83.0082 504.833 82.8544 504.683 82.7551C504.534 82.6558 504.351 82.619 504.175 82.6525Z" fill="white" stroke="white" stroke-width="0.3"/>
<path d="M491.303 105.798C491.302 105.82 491.302 105.841 491.304 105.863H491.274L491.346 106.063C493.146 111.086 496.116 114.258 499.519 114.258C502 114.258 504.267 112.567 506.017 109.657C506.066 109.58 506.1 109.494 506.115 109.404C506.131 109.313 506.128 109.221 506.108 109.131C506.087 109.041 506.048 108.957 505.994 108.882C505.94 108.808 505.871 108.745 505.792 108.697L505.715 108.826L505.792 108.697C505.714 108.65 505.626 108.619 505.535 108.606C505.444 108.593 505.351 108.598 505.262 108.622C505.173 108.646 505.09 108.687 505.017 108.743C504.945 108.799 504.884 108.869 504.84 108.948C503.29 111.524 501.413 112.883 499.519 112.883C498.201 112.883 496.898 112.222 495.712 110.975C494.526 109.728 493.466 107.903 492.641 105.601C492.612 105.515 492.566 105.435 492.506 105.367C492.446 105.298 492.372 105.242 492.29 105.202C492.208 105.162 492.118 105.139 492.027 105.134C491.935 105.129 491.844 105.142 491.758 105.173C491.672 105.204 491.593 105.252 491.525 105.314C491.458 105.376 491.403 105.45 491.365 105.534C491.327 105.617 491.306 105.707 491.303 105.798ZM501.811 76.3836L501.811 76.3836L501.809 76.3828C501.643 76.3118 501.456 76.3091 501.288 76.3752C501.12 76.4414 500.984 76.571 500.911 76.7361L501.048 76.7969L500.911 76.7361C500.838 76.9012 500.832 77.0885 500.896 77.2575C500.96 77.4265 501.087 77.5637 501.251 77.6393L501.251 77.6394L501.253 77.6402C503.18 78.4956 504.889 80.712 506.118 83.8047C507.344 86.8912 508.081 90.8245 508.081 95.0711C508.081 98.5187 507.599 101.819 506.71 104.665C506.681 104.751 506.669 104.842 506.675 104.933C506.682 105.025 506.707 105.114 506.748 105.196C506.79 105.277 506.847 105.35 506.917 105.409C506.987 105.469 507.068 105.513 507.156 105.541C507.243 105.568 507.335 105.578 507.427 105.569C507.518 105.56 507.607 105.533 507.687 105.49C507.768 105.446 507.839 105.387 507.897 105.315C507.954 105.244 507.996 105.163 508.022 105.075C508.955 102.092 509.455 98.6524 509.455 95.0711C509.455 90.603 508.674 86.4386 507.331 83.1397C505.991 79.8456 504.082 77.3919 501.811 76.3836ZM518.15 104.506C518.15 103.784 517.863 103.092 517.353 102.581C516.842 102.071 516.15 101.784 515.428 101.784C514.706 101.784 514.013 102.071 513.503 102.581C512.992 103.092 512.705 103.784 512.705 104.506C512.705 105.228 512.992 105.92 513.503 106.431C514.013 106.942 514.706 107.228 515.428 107.228C516.15 107.228 516.842 106.942 517.353 106.431C517.863 105.92 518.15 105.228 518.15 104.506ZM516.775 104.506C516.775 104.863 516.633 105.206 516.38 105.459C516.128 105.711 515.785 105.853 515.428 105.853C515.07 105.853 514.728 105.711 514.475 105.459C514.222 105.206 514.08 104.863 514.08 104.506C514.08 104.149 514.222 103.806 514.475 103.553C514.728 103.301 515.07 103.159 515.428 103.159C515.785 103.159 516.128 103.301 516.38 103.553C516.633 103.806 516.775 104.149 516.775 104.506ZM483.572 107.228C484.294 107.228 484.987 106.942 485.497 106.431C486.008 105.92 486.295 105.228 486.295 104.506C486.295 103.784 486.008 103.092 485.497 102.581C484.987 102.071 484.294 101.784 483.572 101.784C482.85 101.784 482.158 102.071 481.647 102.581C481.137 103.092 480.85 103.784 480.85 104.506C480.85 105.228 481.137 105.92 481.647 106.431C482.158 106.942 482.85 107.228 483.572 107.228ZM483.572 105.853C483.215 105.853 482.872 105.711 482.619 105.459C482.367 105.206 482.225 104.863 482.225 104.506C482.225 104.148 482.367 103.806 482.619 103.553C482.872 103.3 483.215 103.158 483.572 103.158C483.93 103.158 484.272 103.3 484.525 103.553C484.778 103.806 484.92 104.148 484.92 104.506C484.92 104.863 484.778 105.206 484.525 105.459C484.272 105.711 483.93 105.853 483.572 105.853Z" fill="white" stroke="white" stroke-width="0.3"/>
<path d="M500.471 77.5254C500.227 77.7694 499.9 77.9101 499.556 77.9196H499.518C499.341 77.9196 499.166 77.8848 499.003 77.8171C498.839 77.7494 498.691 77.6501 498.566 77.525C498.441 77.3999 498.341 77.2514 498.274 77.0879C498.206 76.9244 498.171 76.7492 498.171 76.5723C498.171 76.3954 498.206 76.2202 498.274 76.0567C498.341 75.8933 498.441 75.7447 498.566 75.6196C498.691 75.4945 498.839 75.3953 499.003 75.3276C499.166 75.2599 499.341 75.225 499.518 75.225C499.876 75.225 500.219 75.367 500.471 75.6197C500.724 75.8724 500.866 76.2152 500.866 76.5726C500.866 76.93 500.724 77.2727 500.471 77.5254ZM499.943 97.0377L500.061 97.0122V97.0061C500.527 96.8683 500.928 96.5664 501.189 96.1543C501.472 95.7082 501.568 95.1689 501.457 94.6526C501.345 94.1364 501.035 93.6848 500.593 93.3952C500.152 93.1056 499.614 93.0013 499.096 93.1049L499.096 93.1049L499.094 93.1054C498.572 93.218 498.117 93.5331 497.828 93.9815C497.539 94.4299 497.44 94.9747 497.552 95.4962C497.665 96.0176 497.98 96.473 498.428 96.7621C498.65 96.9052 498.898 97.0033 499.158 97.0505C499.418 97.0978 499.685 97.0935 499.943 97.0377ZM499.518 79.2946C499.876 79.2946 500.23 79.2242 500.56 79.0874C500.89 78.9506 501.191 78.7501 501.443 78.4973C501.696 78.2445 501.897 77.9444 502.033 77.6141C502.17 77.2838 502.241 76.9298 502.241 76.5723C502.241 76.2148 502.17 75.8608 502.033 75.5305C501.897 75.2002 501.696 74.9001 501.443 74.6473C501.191 74.3946 500.89 74.194 500.56 74.0572C500.23 73.9204 499.876 73.85 499.518 73.85C498.796 73.85 498.104 74.1368 497.593 74.6473C497.083 75.1579 496.796 75.8503 496.796 76.5723C496.796 77.2943 497.083 77.9868 497.593 78.4973C498.104 79.0078 498.796 79.2946 499.518 79.2946Z" fill="white" stroke="white" stroke-width="0.3"/>
<path d="M329.154 320.766C329.154 319.647 329.148 318.527 329.16 317.406C329.16 317.145 329.094 317.008 328.831 316.908C327.661 316.464 327.033 315.573 327.001 314.346C326.973 313.214 327.505 312.322 328.538 311.818C329.613 311.293 330.654 311.423 331.588 312.181C331.787 312.343 331.917 312.357 332.133 312.229C334.11 311.084 336.084 309.941 338.073 308.821C338.405 308.633 338.333 308.397 338.307 308.134C338.174 306.74 338.933 305.542 340.208 305.137C342.2 304.502 344.118 306.162 343.8 308.265C343.757 308.547 343.814 308.668 344.043 308.799C346.036 309.941 348.026 311.092 350.011 312.25C350.217 312.369 350.345 312.35 350.524 312.201C351.472 311.418 352.528 311.293 353.612 311.838C354.669 312.372 355.175 313.284 355.102 314.471C355.029 315.683 354.376 316.477 353.267 316.942C353.19 316.983 353.124 317.042 353.073 317.113C353.023 317.184 352.989 317.266 352.975 317.352C352.957 319.652 352.969 321.952 352.955 324.254C352.955 324.574 353.137 324.646 353.369 324.742C354.549 325.222 355.175 326.263 355.094 327.591C355.03 328.693 354.201 329.705 353.071 330.001C352.119 330.251 351.235 330.072 350.49 329.407C350.284 329.226 350.137 329.204 349.898 329.343C347.953 330.478 346.003 331.605 344.048 332.723C343.811 332.859 343.722 332.982 343.775 333.29C343.979 334.428 343.634 335.4 342.685 336.083C341.736 336.766 340.677 336.827 339.656 336.237C338.635 335.648 338.176 334.732 338.307 333.571C338.359 333.117 338.231 332.908 337.847 332.692C335.969 331.634 334.104 330.546 332.235 329.456C331.972 329.303 331.801 329.268 331.527 329.487C330.619 330.214 329.592 330.316 328.552 329.811C327.512 329.306 326.992 328.416 327.008 327.285C327.029 326.093 327.63 325.211 328.747 324.751C329.072 324.618 329.165 324.461 329.159 324.126C329.142 323.007 329.154 321.891 329.154 320.766ZM341.04 326.704C343.673 326.704 346.307 326.696 348.941 326.711C349.377 326.711 349.696 326.666 349.806 326.166C349.859 325.959 349.973 325.773 350.131 325.629C350.424 325.367 350.355 325.148 350.182 324.85C347.543 320.297 344.914 315.739 342.296 311.175C342.012 310.677 341.742 310.396 341.152 310.559C341.002 310.59 340.847 310.582 340.702 310.536C340.339 310.44 340.169 310.594 339.993 310.899C337.365 315.475 334.727 320.046 332.078 324.612C331.831 325.036 331.64 325.384 332.1 325.78C332.233 325.907 332.323 326.072 332.358 326.252C332.442 326.656 332.691 326.713 333.05 326.706C335.713 326.697 338.373 326.704 341.04 326.704ZM332.539 327.967L332.509 328.104C332.572 328.164 332.639 328.219 332.711 328.268C334.727 329.428 336.746 330.589 338.756 331.761C338.995 331.901 339.119 331.824 339.306 331.679C340.386 330.829 341.816 330.838 342.848 331.72C343.093 331.929 343.254 331.921 343.514 331.768C345.435 330.648 347.363 329.543 349.285 328.429C349.42 328.351 349.543 328.252 349.672 328.164C349.659 328.098 349.647 328.031 349.635 327.965L332.539 327.967ZM330.472 324.601L330.604 324.635L339.19 309.761C338.997 309.792 338.933 309.786 338.887 309.812C336.814 311.003 334.74 312.193 332.681 313.399C332.584 313.455 332.517 313.671 332.535 313.797C332.733 315.175 332.081 316.369 330.784 316.885C330.489 317.004 330.414 317.168 330.415 317.459C330.423 319.699 330.415 321.94 330.422 324.179C330.43 324.321 330.447 324.462 330.472 324.601ZM343.085 309.743L342.982 309.852L351.519 324.633C351.65 324.527 351.676 324.472 351.676 324.418C351.676 322.041 351.682 319.665 351.669 317.288C351.656 317.215 351.626 317.146 351.583 317.086C351.539 317.026 351.482 316.977 351.416 316.942C350.024 316.307 349.444 315.362 349.6 313.844C349.633 313.528 349.509 313.416 349.285 313.286C347.347 312.172 345.41 311.054 343.473 309.933C343.347 309.861 343.214 309.806 343.085 309.743Z" fill="white"/>
<path d="M214.804 328C215.054 328.466 215.275 328.919 215.525 329.357C215.727 329.711 216.005 329.999 216.286 330.284C217.222 331.233 218.08 332.241 218.751 333.4C219.633 334.927 220.228 336.565 220.609 338.279C220.87 339.446 220.904 340.634 220.821 341.826C220.697 343.682 220.165 345.488 219.263 347.115C218.472 348.547 217.46 349.795 216.145 350.785C215.903 350.967 215.849 350.962 215.652 350.721C215.352 350.353 215.247 349.907 215.152 349.455C215.058 349.003 215.052 348.533 214.989 348.104C214.903 349.112 214.831 350.151 214.479 351.162C214.21 351.011 213.986 350.819 213.767 350.625C211.602 348.724 210.06 346.429 209.341 343.618C208.985 342.234 208.932 340.83 209.07 339.41C209.228 337.771 209.59 336.184 210.227 334.664C211.064 332.667 212.288 330.947 213.917 329.516C214.382 329.108 214.823 328.698 214.804 328Z" fill="white"/>
<path d="M280.697 86.7538C280.883 86.2693 281.029 85.7802 281.254 85.3292C282.253 83.3309 282.203 81.2573 281.678 79.1697C281.306 77.6931 280.208 77.3462 278.774 77.5889C278.217 77.6819 277.686 77.9069 277.025 78.1069C277.143 77.4894 277.226 76.9036 277.372 76.3345C277.685 75.1164 278.202 74.0024 279.147 73.1302C280.322 72.0468 281.757 71.7948 283.26 71.965C286.448 72.3258 288.556 74.1605 289.881 76.9984C289.921 77.1019 289.955 77.2078 289.981 77.3155C289.552 77.3564 289.154 77.3769 288.761 77.4355C287.163 77.6735 286.425 78.7578 286.724 80.3525C286.966 81.6339 287.504 82.7944 288.114 83.927C288.648 84.9173 289.2 85.8974 289.759 86.91C288.914 87.2745 288.764 88.0259 288.702 88.9C288.609 90.238 288.387 91.5668 288.215 92.8984C288.132 93.5419 288.08 94.1928 287.941 94.8251C287.646 96.179 286.811 96.83 285.325 97.0745C283.492 97.3758 282.683 96.1874 282.589 94.774C282.46 92.8296 282.435 90.8778 282.395 88.9288C282.369 87.6772 282.083 87.2438 280.908 86.8552C280.853 86.8356 280.799 86.804 280.697 86.7538Z" fill="white"/>
<path d="M278.087 72.5916C277.607 73.528 277.078 74.4011 276.698 75.3356C276.254 76.4282 276.088 77.5952 276.068 78.7827C276.041 80.3449 275.952 81.9052 275.932 83.4665C275.918 84.5721 276.27 85.5736 277.035 86.391C277.264 86.6364 277.286 86.7862 277.052 87.0419C276.441 87.7002 275.856 88.3828 275.264 89.0588C274.514 89.9171 273.997 89.9152 273.272 89.0179C272.491 88.0527 272.026 86.9163 271.613 85.7633C270.753 83.3716 270.105 80.9168 269.778 78.3987C269.664 77.4143 269.702 76.4183 269.89 75.4454C270.262 73.434 271.442 72.3358 273.498 72.0662C275.078 71.8597 276.64 72.0941 278.087 72.5916Z" fill="white"/>
<path d="M290.544 86.0023C291.3 84.6475 291.009 83.2127 290.948 81.776C290.903 80.8852 290.944 79.9922 291.069 79.1091C291.224 78.1258 291.055 77.119 290.589 76.2395C289.659 74.43 288.38 72.9608 286.577 71.9779C286.504 71.937 286.438 71.8849 286.287 71.777C289.139 71.4051 291.669 71.7398 293.575 74.0301C293.824 74.3589 293.977 74.7509 294.015 75.1618C294.183 76.7593 293.829 78.2983 293.376 79.8168C292.727 82.0012 291.773 84.0835 290.544 86.0023Z" fill="white"/>
<path d="M281.164 81.9614C281.114 82.8479 280.908 83.7186 280.555 84.5334C280.323 85.0709 280.106 85.6155 279.904 86.1672C279.708 86.6991 279.609 86.767 279.055 86.5903C277.959 86.2407 277.223 85.4801 277.027 84.38C276.881 83.5626 277.013 82.6969 277.017 81.8526C277.017 81.237 277.059 80.6168 277.004 80.0049C276.961 79.526 277.046 79.168 277.525 79.0137C278.152 78.81 278.778 78.5599 279.425 78.4725C280.169 78.3721 280.648 78.7663 280.791 79.4954C280.947 80.3118 281.042 81.1394 281.164 81.9614ZM279.77 79.8469C280.171 79.8562 280.514 79.6116 280.524 79.314C280.534 79.0165 280.142 78.7561 279.63 78.7561C279.339 78.7561 279.006 78.7561 278.965 79.1653C278.934 79.4954 279.356 79.8385 279.776 79.8469H279.77Z" fill="white"/>
<path d="M289.848 85.145C289.061 83.6032 288.155 82.2233 287.754 80.609C287.684 80.34 287.635 80.0657 287.607 79.7889C287.541 79.0115 288.046 78.4443 288.867 78.3615C289.053 78.3429 289.239 78.3466 289.425 78.3457C290.169 78.3457 290.247 78.3996 290.101 79.1435C289.854 80.4091 289.926 81.6617 290.088 82.9272C290.18 83.6404 290.183 84.3713 289.848 85.145ZM288.748 79.6708C289.049 79.4392 289.289 79.2858 289.483 79.0877C289.544 79.0254 289.516 78.7456 289.471 78.7307C289.228 78.6582 288.979 78.6066 288.727 78.5763C288.68 78.5716 288.634 78.5853 288.597 78.6144C288.425 78.7595 288.258 78.9111 288.091 79.0608C288.294 79.2505 288.494 79.4365 288.748 79.6708Z" fill="white"/>
<path d="M292.275 86.5517C292.92 86.4587 293.454 86.3732 293.986 86.2951C294.808 86.1742 295.43 86.4494 295.763 87.0799C296.035 87.5941 295.891 88.3166 295.358 88.8662C294.344 89.9104 293.079 90.4395 291.647 90.5883C291.157 90.6395 290.662 90.6525 290.115 90.6813C290.09 90.91 290.053 91.1462 290.039 91.3908C289.956 92.7679 289.86 94.1423 289.399 95.4599C289.018 96.5715 288.249 97.5083 287.233 98.0987C286.217 98.6891 285.022 98.8936 283.868 98.6745C282.752 98.4681 282.04 97.7549 281.613 96.732C281.22 95.7711 280.998 94.749 280.957 93.7118C280.921 92.9679 280.881 92.224 280.848 91.5954C279.987 91.6502 279.134 91.7637 278.284 91.7414C277.423 91.7366 276.598 91.3952 275.986 90.7901C274.331 91.7785 273.08 91.5479 271.894 90.0239C270.899 88.7462 270.319 87.2575 269.812 85.7464C269.019 83.3799 268.404 80.9659 268.087 78.4869C267.911 77.1924 268.004 75.8755 268.36 74.6186C269.076 72.1367 271.029 70.5931 273.617 70.4192C275.341 70.3039 277.008 70.5773 278.655 71.0646C278.883 71.1227 279.124 71.1021 279.339 71.006C280.442 70.4806 281.603 70.2128 282.809 70.3309C284.111 70.4592 285.375 70.2751 286.662 70.1077C289.812 69.6995 292.63 70.4137 294.825 72.8974C295.384 73.5295 295.706 74.3354 295.738 75.1784C295.871 77.4203 295.348 79.5572 294.556 81.6159C293.964 83.1558 293.193 84.6278 292.501 86.1286C292.448 86.2272 292.388 86.3323 292.275 86.5517ZM291.03 87.051C291.523 86.1667 292.024 85.3466 292.45 84.4892C293.764 81.854 294.769 79.1173 294.954 76.1427C295.01 75.2388 294.974 74.3331 294.375 73.5752C293.726 72.7393 292.895 72.0622 291.945 71.5955C289.727 70.5113 287.433 70.5662 285.1 71.138C284.773 71.2143 284.435 71.2282 284.104 71.179C282.879 70.993 281.593 70.8182 280.493 71.3863C279.393 71.9545 278.425 71.7927 277.345 71.4793C276.063 71.0964 274.713 70.9962 273.388 71.1855C270.657 71.5844 269.076 73.3818 268.848 76.1929C268.717 77.8099 268.979 79.373 269.327 80.9352C269.877 83.4003 270.501 85.8506 271.67 88.1055C272.069 88.8536 272.578 89.537 273.181 90.1327C273.854 90.804 274.719 90.7501 275.447 90.1234C275.785 89.8332 276.068 89.4724 276.367 89.1423C276.952 88.4914 277.531 87.8294 278.068 87.224L279.616 87.6471C279.244 88.3389 278.965 88.5268 278.113 88.7369C277.68 88.8429 277.232 88.9424 276.838 89.1405C276.302 89.4111 276.28 89.9774 276.745 90.3558C276.909 90.4916 277.104 90.6469 277.303 90.6757C278.047 90.7873 278.806 90.9723 279.534 90.8961C280.208 90.8254 280.849 90.4563 281.504 90.2182C281.504 90.341 281.494 90.54 281.504 90.738C281.587 92.2677 281.578 93.8066 281.783 95.3232C282.049 97.2658 283.47 98.2245 285.409 97.9539C287.479 97.6647 288.533 96.652 288.883 94.6137C288.951 94.2176 288.994 93.8168 289.045 93.417C289.201 92.1914 289.357 90.9649 289.51 89.7672C290.23 89.7672 290.905 89.8146 291.579 89.757C292.838 89.6501 293.96 89.1805 294.808 88.2171C294.897 88.1003 294.962 87.9661 294.997 87.823C295.032 87.6799 295.038 87.531 295.012 87.3858C294.925 87.025 294.538 86.9832 294.198 87.0269C293.799 87.0771 293.404 87.1719 293.005 87.2128C292.346 87.2658 291.679 87.3542 291.028 87.0501L291.03 87.051Z" fill="white"/>
<path d="M277.536 89.7804C277.891 89.6874 278.195 89.601 278.506 89.5387C278.842 89.4779 279.162 89.3504 279.448 89.1639C279.733 88.9774 279.979 88.7355 280.17 88.4526C280.24 88.3512 280.329 88.2666 280.409 88.1736C280.621 87.9197 280.844 87.7021 281.183 87.9876C281.498 88.2526 281.53 88.6385 281.271 88.9705C280.427 90.051 278.88 90.4062 277.536 89.7804Z" fill="white"/>
<path d="M293.631 88.0717C292.681 88.8026 291.593 88.9226 290.47 88.9151C290.376 88.9143 290.283 88.9069 290.191 88.8928C289.95 88.8565 289.618 88.9439 289.673 88.505C289.732 88.0215 290.103 87.6189 290.435 87.7788C291.442 88.2642 292.476 88.1508 293.522 88.0327C293.551 88.0299 293.578 88.0503 293.631 88.0717Z" fill="white"/>
<path d="M92.7073 110.571H104.047V110.559H104.407C108.055 110.559 111.703 110.599 115.351 110.555C117.472 110.529 119.299 109.687 120.855 108.246C121.04 108.075 121.03 107.963 120.893 107.767C117.062 102.279 110.223 99.6078 103.72 101.15C98.5389 102.379 94.8371 105.493 92.4816 110.238C92.3171 110.568 92.3237 110.571 92.7073 110.571Z" fill="white"/>
<path d="M120.861 126.026C119.198 124.483 117.243 123.694 114.967 123.696C107.558 123.7 100.149 123.7 92.7402 123.696H92.3948C92.4003 123.733 92.408 123.77 92.4178 123.806C92.4382 123.857 92.4606 123.907 92.4836 123.956C93.8311 126.903 95.8867 129.246 98.6133 130.98C101.995 133.131 105.703 133.925 109.667 133.36C114.394 132.687 118.112 130.33 120.902 126.478C121.044 126.287 121.033 126.186 120.861 126.026Z" fill="white"/>
<path d="M105.015 122.036C105.047 122.045 105.079 122.05 105.112 122.053C108.007 122.053 110.902 122.103 113.791 122.039C116.796 121.973 119.011 119.072 118.378 116.145C117.868 113.785 115.935 112.219 113.509 112.214C110.791 112.208 108.074 112.214 105.356 112.214C105.247 112.214 105.138 112.227 105.027 112.234C104.951 112.227 104.875 112.215 104.799 112.215C100.536 112.215 96.2722 112.212 92.0085 112.208C91.7868 112.208 91.7124 112.29 91.6585 112.481C90.7912 115.555 90.7768 118.627 91.6381 121.705C91.7104 121.969 91.8012 122.065 92.0921 122.065C96.2899 122.053 100.488 122.05 104.686 122.056C104.798 122.055 104.906 122.043 105.015 122.036Z" fill="white"/>
<path d="M643.632 510.231C644.167 509.914 644.763 510.039 645.323 510.039C647.339 510.039 649.362 509.914 651.37 510.112C651.285 510.945 651.562 511.745 651.562 512.581C651.533 521.952 651.551 531.32 651.541 540.691C651.541 543.4 651.647 546.114 651.374 548.818C649.025 549.011 646.675 548.907 644.327 548.865C644.223 548.865 644.123 548.751 644.019 548.69C644.019 548.497 644.042 548.305 643.855 548.189C643.855 536.009 643.855 523.823 643.855 511.631C643.888 511.154 643.812 510.675 643.632 510.231Z" fill="#101014"/>
<path d="M651.369 548.822C651.642 546.118 651.535 543.404 651.537 540.694C651.546 531.324 651.537 521.956 651.558 512.585C651.558 511.749 651.285 510.949 651.366 510.116C653.314 510.741 655.02 511.86 656.864 512.718C657.172 512.86 657.105 513.208 657.105 513.487C657.105 514.601 657.105 515.716 657.105 516.83V542.044C657.105 543.166 657.105 544.285 657.091 545.406C657.091 545.72 657.17 546.091 656.805 546.256C654.995 547.089 653.3 548.222 651.369 548.822Z" fill="white"/>
<path d="M643.632 510.231C643.814 510.676 643.892 511.156 643.859 511.635C643.859 523.816 643.859 536.002 643.859 548.194C643.911 548.361 643.961 548.526 644.013 548.692C643.669 548.859 643.398 548.646 643.119 548.499C641.694 547.795 640.278 547.063 638.839 546.384C638.416 546.191 638.303 545.926 638.305 545.495C638.314 544.341 638.287 543.203 638.276 542.056C638.276 540.106 638.286 538.156 638.276 536.206C638.268 529.747 638.259 523.289 638.249 516.83C638.267 515.721 638.286 514.612 638.305 513.503C638.305 513.161 638.249 512.818 638.674 512.618C640.334 511.843 641.98 511.033 643.632 510.231Z" fill="white"/>
<path d="M638.249 516.842C638.259 523.3 638.268 529.759 638.276 536.217C638.276 538.167 638.276 540.118 638.276 542.068C636.762 542.416 635.247 542.756 633.737 543.114C633.466 543.206 633.178 543.237 632.895 543.202C632.895 534.925 632.895 526.645 632.895 518.365C632.895 517.471 632.923 516.576 632.937 515.672C634.752 515.824 636.456 516.53 638.249 516.842Z" fill="#101014"/>
<path d="M657.122 542.048V516.834C658.959 516.52 660.711 515.818 662.578 515.649C662.557 516.062 662.521 516.476 662.521 516.889C662.521 525.665 662.521 534.442 662.521 543.221C660.903 543.048 659.378 542.466 657.789 542.164C657.561 542.123 657.341 542.087 657.122 542.048Z" fill="#101014"/>
<path d="M632.923 515.682C632.91 516.576 632.881 517.47 632.881 518.374C632.881 526.653 632.881 534.933 632.881 543.212C631.919 543.033 631.167 542.414 630.296 542.044C629.936 541.894 630.015 541.581 630.015 541.306C630.015 533.384 630.015 525.462 630.015 517.54C630.015 517.301 629.913 517.009 630.236 516.874C631.146 516.487 631.915 515.83 632.923 515.682Z" fill="white"/>
<path d="M662.509 543.221C662.509 534.443 662.509 525.666 662.509 516.889C662.509 516.476 662.546 516.062 662.567 515.649C663.446 515.874 664.169 516.437 665 516.768C665.385 516.918 665.385 517.218 665.385 517.555C665.385 525.461 665.385 533.368 665.385 541.275C665.385 541.598 665.41 541.923 665.023 542.079C664.169 542.421 663.431 543.029 662.509 543.221Z" fill="white"/>
<path d="M644.005 548.691C643.953 548.526 643.903 548.361 643.852 548.193C644.044 548.316 644.017 548.509 644.015 548.693L644.005 548.691Z" fill="white"/>
<defs>
<linearGradient id="paint0_linear_42_1565" x1="606" y1="0" x2="606" y2="114" gradientUnits="userSpaceOnUse">
<stop stop-color="#0E0F15"/>
<stop offset="1" stop-color="#0E0F15" stop-opacity="0"/>
</linearGradient>
</defs>
</svg>
